# .PCD v.7 - Point Cloud Data file format
VERSION .7
FIELDS x y z
SIZE 4 4 4
TYPE F F F
COUNT 1 1 1
WIDTH 2215
HEIGHT 1
VIEWPOINT 0 0 0 1 0 0 0
POINTS 2215
DATA ascii
-0.35054 -0.29037 -1.9011
-0.319942 -0.289593 -1.90355
-0.274476 -0.288983 -1.90561
-0.222451 -0.288343 -1.90742
-0.174727 -0.286728 -1.91053
-0.124312 -0.286527 -1.911
-0.073362 -0.286479 -1.91105
-0.0251619 -0.286534 -1.91063
0.0245063 -0.287426 -1.90944
0.0718447 -0.28904 -1.90746
0.121889 -0.291561 -1.90296
0.15406 -0.292445 -1.90083
-0.21153 -0.037492 -1.912
-0.55872 -0.317378 -1.85217
-0.520288 -0.314434 -1.85777
-0.472762 -0.311463 -1.86408
-0.424552 -0.309852 -1.86722
-0.374346 -0.309796 -1.86791
-0.324628 -0.310423 -1.86781
-0.274721 -0.310341 -1.86867
-0.224645 -0.310911 -1.86713
-0.175017 -0.310595 -1.8685
-0.124801 -0.310969 -1.86809
-0.0741109 -0.31085 -1.86838
-0.0257151 -0.310602 -1.86899
0.024877 -0.310814 -1.86942
0.0750418 -0.311249 -1.86924
0.124777 -0.311003 -1.86972
0.174858 -0.311299 -1.86898
0.224062 -0.311883 -1.86863
0.272148 -0.314918 -1.86408
0.322787 -0.318539 -1.85797
0.356678 -0.3208 -1.85223
-0.418532 -0.297673 -1.88627
-0.373727 -0.296395 -1.89124
-0.325143 -0.296109 -1.89293
-0.275649 -0.296324 -1.89305
-0.227577 -0.296733 -1.89334
-0.176117 -0.29645 -1.89281
-0.12344 -0.296444 -1.89224
-0.074481 -0.296615 -1.89385
-0.0228647 -0.296204 -1.89371
0.0250335 -0.2962 -1.89342
0.0757959 -0.296439 -1.8938
0.125301 -0.296551 -1.89372
0.174381 -0.296904 -1.89307
0.222675 -0.298857 -1.88725
0.3411 -0.0191495 -1.8672
0.370256 -0.0185416 -1.86869
-0.35293 0.45823 -1.8622
-0.090866 0.46074 -1.8588
-0.137795 0.528495 -1.8636
-0.310935 -0.35118 -1.8012
-0.063074 -0.351105 -1.8008
0.0198711 -0.351225 -1.80143
0.055456 -0.351005 -1.8003
0.127652 -0.35114 -1.801
0.173768 -0.351142 -1.80176
0.228523 -0.351242 -1.80205
0.272364 -0.351207 -1.80243
0.325115 -0.351697 -1.80118
0.369126 -0.351623 -1.80209
0.420344 -0.35132 -1.80266
0.469325 -0.351336 -1.80325
0.504445 -0.35134 -1.80205
-0.704738 -0.345533 -1.80175
-0.669426 -0.341309 -1.80826
-0.622761 -0.336718 -1.8172
-0.574219 -0.333501 -1.82365
-0.524901 -0.332704 -1.82517
-0.474952 -0.333455 -1.82446
-0.424989 -0.333208 -1.82517
-0.374746 -0.333736 -1.82473
-0.324723 -0.334037 -1.82475
-0.275032 -0.334162 -1.82473
-0.224617 -0.334997 -1.82383
-0.174801 -0.335163 -1.82437
-0.124061 -0.335005 -1.82439
-0.0746319 -0.335254 -1.82455
-0.0248484 -0.335125 -1.82493
0.0249884 -0.335656 -1.82459
0.0748852 -0.336055 -1.82434
0.125034 -0.335899 -1.82512
0.174993 -0.336311 -1.82544
0.225022 -0.336446 -1.82573
0.275319 -0.336636 -1.82588
0.324594 -0.336771 -1.82537
0.373871 -0.336602 -1.82497
0.42354 -0.340541 -1.81873
0.470408 -0.344771 -1.81004
0.501485 -0.34876 -1.8036
-0.716067 -0.0430939 -1.81757
-0.691777 -0.0438953 -1.81792
0.34785 -0.018108 -1.85
0.377735 -0.0169505 -1.83675
-0.53324 0.44118 -1.80645
-0.42647 0.44501 -1.8152
-0.32613 0.4497 -1.8275
-0.25031 0.44579 -1.805
-0.43802 0.45345 -1.8496
-0.3449 0.45005 -1.829
-0.139395 0.469645 -1.81477
-0.008769 0.45504 -1.8291
0.11768 0.45815 -1.8346
-0.133676 0.521081 -1.81714
-0.807964 -0.37102 -1.75395
-0.771083 -0.36681 -1.76215
-0.723337 -0.362515 -1.77008
-0.674806 -0.362333 -1.77128
-0.624951 -0.362772 -1.77109
-0.575123 -0.362333 -1.7721
-0.524893 -0.362361 -1.77214
-0.474684 -0.362144 -1.77272
-0.42453 -0.362929 -1.7721
-0.375 -0.363129 -1.77239
-0.324969 -0.362741 -1.77325
-0.274834 -0.363417 -1.77315
-0.224828 -0.363211 -1.77296
-0.175337 -0.363139 -1.77373
-0.126086 -0.363738 -1.77353
-0.0751219 -0.363723 -1.77331
-0.0245937 -0.363893 -1.77323
0.0253062 -0.363824 -1.7742
0.0745406 -0.363996 -1.77466
0.12504 -0.364865 -1.77395
0.175038 -0.36535 -1.77382
0.224771 -0.365668 -1.77378
0.274823 -0.365269 -1.77439
0.325114 -0.36559 -1.77458
0.375229 -0.36582 -1.7743
0.424905 -0.36596 -1.77398
0.474914 -0.365572 -1.77499
0.523705 -0.367543 -1.77175
0.564773 -0.370378 -1.76511
-0.712251 -0.348281 -1.79466
-0.673185 -0.347932 -1.79584
-0.62779 -0.347964 -1.79606
-0.574363 -0.3482 -1.79641
-0.524877 -0.348308 -1.79581
-0.47742 -0.348135 -1.79716
-0.426824 -0.348001 -1.79677
-0.377006 -0.348711 -1.79709
-0.328521 -0.348084 -1.79751
-0.273592 -0.348393 -1.79803
-0.227746 -0.348499 -1.79727
-0.169723 -0.349195 -1.79726
-0.123717 -0.348835 -1.79619
-0.0826578 -0.348998 -1.7986
-0.03101 -0.348546 -1.79874
0.0211593 -0.346945 -1.7992
0.062838 -0.34903 -1.8
0.135328 -0.348445 -1.7995
0.16471 -0.34892 -1.7994
0.2717 -0.349 -1.7998
0.39748 -0.34898 -1.7997
0.608183 -0.281403 -1.75977
0.62404 -0.24489 -1.7679
0.6338 -0.18395 -1.7511
-0.20475 -0.054029 -1.7627
-0.71494 -0.044516 -1.76805
-0.72322 0.42783 -1.7657
-0.639783 0.433143 -1.78047
-0.52643 0.43779 -1.79255
-0.428717 0.430872 -1.75752
-0.37618 0.43312 -1.76665
-0.328402 0.43884 -1.78335
-0.24868 0.43205 -1.7558
-0.12921 0.435527 -1.76347
-0.07065 0.438965 -1.77095
-0.00579193 0.441223 -1.77353
0.0459033 0.436883 -1.7561
0.116197 0.440607 -1.76437
0.16697 0.440632 -1.76447
0.20417 0.44153 -1.7617
-0.132677 0.507947 -1.7714
-0.862755 -0.401317 -1.70183
-0.819444 -0.401812 -1.70162
-0.772691 -0.400789 -1.70267
-0.727224 -0.401524 -1.70302
-0.670589 -0.401523 -1.70175
-0.628259 -0.401425 -1.70234
-0.575554 -0.401648 -1.7022
-0.524052 -0.401343 -1.70245
-0.475093 -0.401177 -1.70331
-0.425082 -0.401581 -1.70338
-0.374711 -0.401558 -1.70399
-0.323276 -0.401722 -1.70397
-0.273685 -0.401988 -1.70383
-0.225289 -0.402328 -1.70418
-0.176194 -0.402263 -1.7034
-0.124013 -0.402286 -1.70412
-0.0738094 -0.402216 -1.70387
-0.025018 -0.402814 -1.70459
0.0254827 -0.403082 -1.70546
0.0768181 -0.403187 -1.70498
0.124924 -0.403307 -1.70567
0.173609 -0.403361 -1.70651
0.225631 -0.403749 -1.70673
0.275475 -0.404033 -1.70718
0.324718 -0.404045 -1.70786
0.375823 -0.404381 -1.70733
0.424583 -0.404841 -1.70772
0.474651 -0.404101 -1.70773
0.521631 -0.404143 -1.70748
-0.905897 -0.38361 -1.70293
-0.869889 -0.392666 -1.71334
-0.823315 -0.387217 -1.72414
-0.77516 -0.386685 -1.72643
-0.725212 -0.386811 -1.72653
-0.674745 -0.387435 -1.72602
-0.624797 -0.387789 -1.72594
-0.575092 -0.387214 -1.72674
-0.525235 -0.387253 -1.72744
-0.474971 -0.386982 -1.72756
-0.425009 -0.387847 -1.72726
-0.374921 -0.387712 -1.72724
-0.325297 -0.38779 -1.72787
-0.275386 -0.388271 -1.72765
-0.225303 -0.38802 -1.72847
-0.174956 -0.38811 -1.72849
-0.125558 -0.388363 -1.72883
-0.0760132 -0.388521 -1.72884
-0.0250676 -0.389093 -1.72859
0.0245761 -0.388502 -1.7299
0.0752082 -0.388959 -1.73026
0.124768 -0.38964 -1.73028
0.175245 -0.389714 -1.731
0.225091 -0.389329 -1.73215
0.274908 -0.38971 -1.73152
0.324465 -0.389721 -1.73251
0.374612 -0.389937 -1.73205
0.425014 -0.390461 -1.73245
0.475133 -0.389995 -1.73223
0.525509 -0.390594 -1.73072
0.558841 -0.385388 -1.73423
0.642573 -0.384033 -1.7075
0.653943 -0.384282 -1.72283
0.586207 -0.318513 -1.73573
0.66692 -0.326807 -1.72205
0.676283 -0.277617 -1.70987
0.59395 -0.23908 -1.7071
0.69049 -0.22246 -1.7072
0.61622 -0.19084 -1.7186
-0.97724 -0.10677 -1.7008
-0.19978 -0.053026 -1.7299
0.663423 -0.027151 -1.7291
0.76851 0.14368 -1.704
0.78882 0.15705 -1.7006
-0.89206 0.32189 -1.7136
-0.80575 0.41797 -1.7462
-0.78674 0.412745 -1.7139
-0.729714 0.415116 -1.71742
-0.672524 0.415954 -1.7167
-0.626458 0.419133 -1.72631
-0.577547 0.419123 -1.72283
-0.524171 0.415676 -1.70866
-0.471122 0.415537 -1.70257
-0.424353 0.417054 -1.70662
-0.374787 0.418297 -1.70837
-0.32005 0.418792 -1.70876
-0.273543 0.41875 -1.70701
-0.245215 0.41813 -1.70396
-0.117363 0.420039 -1.71015
-0.0758065 0.420973 -1.7113
-0.024751 0.42132 -1.71172
0.0249832 0.42207 -1.71236
0.0747081 0.422595 -1.71392
0.126305 0.423194 -1.71507
0.175618 0.4234 -1.7149
0.225334 0.425 -1.71684
0.27591 0.426044 -1.71875
0.325667 0.426149 -1.71893
0.375139 0.426823 -1.71957
0.410366 0.427315 -1.72009
-0.131567 0.493372 -1.72052
-0.13209 0.50022 -1.7444
-0.862795 -0.408686 -1.68263
-0.824942 -0.415605 -1.67521
-0.774658 -0.415428 -1.67494
-0.724656 -0.415736 -1.67452
-0.674751 -0.415793 -1.6744
-0.624722 -0.415463 -1.67513
-0.575001 -0.415867 -1.6753
-0.525006 -0.416136 -1.67487
-0.475224 -0.416399 -1.67437
-0.425048 -0.416722 -1.6748
-0.374921 -0.416871 -1.67507
-0.324743 -0.417179 -1.6749
-0.274906 -0.417284 -1.67515
-0.224876 -0.418087 -1.6748
-0.174781 -0.418294 -1.6748
-0.125608 -0.418779 -1.67423
-0.0756605 -0.418687 -1.67484
-0.025086 -0.419302 -1.67473
0.0248464 -0.41967 -1.67528
0.0748604 -0.420168 -1.67514
0.125272 -0.420398 -1.67531
0.175246 -0.42098 -1.6747
0.224508 -0.42186 -1.67441
0.2746 -0.422004 -1.67492
0.324784 -0.422162 -1.67577
0.374273 -0.422858 -1.67505
0.42507 -0.423146 -1.67482
0.474826 -0.42279 -1.67531
0.516034 -0.419276 -1.67973
0.59635 -0.43228 -1.65115
0.614147 -0.42537 -1.65791
0.68322 -0.4302 -1.65944
0.724284 -0.425771 -1.66936
0.761795 -0.430709 -1.66
-0.885295 -0.38933 -1.68567
-0.834595 -0.398935 -1.69935
-0.52975 -0.39897 -1.6995
0.540362 -0.388385 -1.68077
0.630137 -0.380714 -1.65985
0.679254 -0.364303 -1.66198
0.718203 -0.359394 -1.66148
0.767779 -0.358226 -1.65858
0.54391 -0.34814 -1.6611
0.56555 -0.32858 -1.6945
0.64285 -0.339045 -1.68425
0.694533 -0.348633 -1.6526
0.731455 -0.343494 -1.66837
0.775015 -0.332392 -1.66693
0.8022 -0.32608 -1.66805
-0.93299 -0.26359 -1.6805
0.5711 -0.293745 -1.69085
0.57672 -0.233577 -1.66803
0.67751 -0.23359 -1.6863
0.71187 -0.1211 -1.6851
0.71441 -0.0763305 -1.6664
0.745444 0.135964 -1.66094
0.776804 0.140451 -1.6657
0.824574 0.133909 -1.66585
0.863407 0.121381 -1.6531
0.70639 0.15419 -1.6523
0.784009 0.152424 -1.68637
0.808147 0.151668 -1.68745
0.835474 0.23798 -1.66004
0.79311 0.284805 -1.66275
0.82097 0.283027 -1.66107
-0.838535 0.34344 -1.6758
0.814509 0.320672 -1.65666
-0.762539 0.392556 -1.66109
-0.725192 0.392773 -1.66133
-0.674324 0.392636 -1.66143
-0.624031 0.392643 -1.66119
-0.574892 0.392785 -1.66207
-0.524323 0.392464 -1.66191
-0.47409 0.392245 -1.66179
-0.42573 0.392912 -1.66292
-0.375453 0.392381 -1.66235
-0.324502 0.392737 -1.66301
-0.275444 0.392409 -1.66303
-0.242737 0.391571 -1.66146
-0.117285 0.392175 -1.66232
-0.0755514 0.392286 -1.66349
-0.02467 0.392025 -1.66318
0.0246002 0.392449 -1.66396
0.075174 0.392237 -1.66348
0.125223 0.392003 -1.66301
0.175801 0.391783 -1.6627
0.225161 0.392093 -1.66358
0.274582 0.392074 -1.66328
0.324777 0.391861 -1.66313
0.374666 0.392027 -1.66281
0.411226 0.3924 -1.66346
0.68364 0.38604 -1.6779
0.810603 0.35318 -1.65436
-0.76304 0.404134 -1.68253
-0.724709 0.403902 -1.68105
-0.675067 0.404276 -1.68143
-0.623912 0.404727 -1.68219
-0.574077 0.406262 -1.68504
-0.524136 0.406103 -1.68467
-0.474286 0.407049 -1.68606
-0.424488 0.407091 -1.68663
-0.374521 0.407676 -1.68738
-0.32582 0.408037 -1.68841
-0.27595 0.407766 -1.68779
-0.244071 0.407463 -1.68686
-0.118577 0.407898 -1.68746
-0.0755293 0.407768 -1.68867
-0.0255589 0.407408 -1.68819
0.0241486 0.407645 -1.68858
0.0747568 0.407434 -1.68813
0.124286 0.407367 -1.68865
0.174887 0.407485 -1.68842
0.22443 0.407563 -1.68833
0.272678 0.407571 -1.68856
0.324573 0.407764 -1.69022
0.374981 0.407242 -1.68823
0.412371 0.407926 -1.68862
-0.24369 0.48213 -1.6858
-0.130641 0.481204 -1.67809
-1.05213 -0.454513 -1.60137
-1.0234 -0.453263 -1.60553
-0.989315 -0.453919 -1.60583
-0.92363 -0.454488 -1.602
-0.805963 -0.452777 -1.60487
-0.775701 -0.453709 -1.60657
-0.726239 -0.453439 -1.60771
-0.674231 -0.453515 -1.60635
-0.625095 -0.453713 -1.60624
-0.573902 -0.453593 -1.60726
-0.526086 -0.453944 -1.60665
-0.474544 -0.453816 -1.60632
-0.425054 -0.454233 -1.60773
-0.374852 -0.454368 -1.60777
-0.323756 -0.454241 -1.60788
-0.27454 -0.454899 -1.60821
-0.22524 -0.45484 -1.60882
-0.175088 -0.455082 -1.60956
-0.124541 -0.454963 -1.60925
-0.0752474 -0.455288 -1.60948
-0.024303 -0.455629 -1.61041
0.025541 -0.455738 -1.61048
0.0752984 -0.456206 -1.61029
0.124847 -0.456395 -1.61171
0.175629 -0.456495 -1.61167
0.225127 -0.456942 -1.61177
0.274779 -0.456742 -1.6129
0.324751 -0.457398 -1.6122
0.375322 -0.45725 -1.61381
0.424681 -0.457864 -1.6131
0.468731 -0.457395 -1.61407
0.58357 -0.458462 -1.61221
0.625751 -0.458163 -1.61344
0.674872 -0.457914 -1.61263
0.725664 -0.458203 -1.61325
0.775119 -0.458413 -1.6133
0.820617 -0.458169 -1.61274
0.853093 -0.463547 -1.60083
-1.01568 -0.443878 -1.61966
-0.990541 -0.438303 -1.62294
-0.936836 -0.439421 -1.61051
-0.818231 -0.436738 -1.63215
-0.774566 -0.44009 -1.63055
-0.725099 -0.439556 -1.632
-0.67516 -0.439858 -1.63026
-0.624613 -0.439674 -1.63057
-0.574591 -0.439544 -1.63155
-0.524785 -0.439904 -1.63145
-0.474798 -0.440507 -1.63085
-0.425104 -0.440116 -1.63166
-0.375556 -0.440291 -1.63245
-0.32569 -0.440546 -1.63287
-0.275262 -0.440388 -1.63371
-0.224758 -0.440713 -1.63342
-0.17516 -0.441132 -1.63376
-0.125862 -0.441356 -1.63372
-0.0757898 -0.441159 -1.63448
-0.025183 -0.441609 -1.6345
0.025106 -0.441768 -1.63502
0.0750003 -0.4419 -1.63575
0.124282 -0.442178 -1.63607
0.174128 -0.442579 -1.63664
0.225223 -0.442788 -1.63665
0.274852 -0.442639 -1.63784
0.325167 -0.443177 -1.63753
0.374864 -0.443416 -1.63817
0.424893 -0.443507 -1.63791
0.475269 -0.443587 -1.63805
0.505072 -0.436718 -1.64328
0.590135 -0.441537 -1.63402
0.628416 -0.426968 -1.63662
0.671211 -0.435696 -1.63507
0.72344 -0.443442 -1.63747
0.775167 -0.443397 -1.63844
0.807436 -0.445144 -1.6337
-1.00822 -0.356514 -1.62827
-0.991757 -0.355813 -1.61423
-0.861227 -0.37898 -1.62903
0.519297 -0.380487 -1.63127
0.58892 -0.379615 -1.6101
0.634533 -0.385219 -1.63169
0.672374 -0.371295 -1.62104
0.721217 -0.361803 -1.63677
0.753646 -0.35559 -1.64883
-0.974382 -0.34408 -1.61669
-0.886263 -0.335133 -1.6394
0.61262 -0.341803 -1.63087
0.693489 -0.348533 -1.64569
0.732812 -0.346163 -1.64273
0.754103 -0.343333 -1.6464
-1.0069 -0.28469 -1.6439
-0.89923 -0.29209 -1.6377
0.63355 -0.266165 -1.62825
-1.0098 -0.22135 -1.60465
-0.91537 -0.23595 -1.6322
0.55269 -0.24815 -1.6247
0.56512 -0.17712 -1.6092
0.6652 -0.19063 -1.627
0.891393 -0.155055 -1.63498
0.905798 -0.155614 -1.62565
-1.045 -0.12667 -1.6081
0.678017 -0.123163 -1.62413
0.888463 -0.128436 -1.62877
0.91109 -0.133383 -1.61485
-0.19186 -0.050524 -1.6483
0.59309 -0.08956 -1.61965
-1.0935 -0.048516 -1.6355
-0.19247 -0.040645 -1.61745
0.782751 0.0966986 -1.60541
0.826032 0.0937833 -1.61024
0.878479 0.0904947 -1.61511
0.914031 0.0889241 -1.61482
0.739512 0.122133 -1.62326
0.774349 0.116735 -1.62795
0.825037 0.111341 -1.63457
0.871335 0.108152 -1.63582
0.908483 0.102667 -1.62869
-0.95436 0.22516 -1.642
0.86158 0.22532 -1.6431
0.842393 0.289955 -1.64444
0.860614 0.290679 -1.63573
-0.81971 0.33547 -1.6368
0.830236 0.329357 -1.64155
0.859859 0.329562 -1.62883
-0.80098 0.3552 -1.6416
-0.762943 0.371068 -1.62587
-0.72481 0.371042 -1.62484
-0.675503 0.371242 -1.62524
-0.625086 0.370831 -1.62482
-0.575005 0.370238 -1.62417
-0.525186 0.369845 -1.62387
-0.475506 0.369721 -1.62404
-0.42452 0.370273 -1.62533
-0.374994 0.369587 -1.62451
-0.325115 0.370045 -1.62544
-0.27479 0.369742 -1.62506
-0.240896 0.368413 -1.62256
-0.116896 0.368987 -1.62433
-0.0755792 0.369235 -1.62498
-0.02538 0.36874 -1.62432
0.0247987 0.368953 -1.62481
0.0748135 0.368765 -1.62469
0.124991 0.368588 -1.62463
0.174678 0.368448 -1.62404
0.225227 0.36834 -1.62404
0.275069 0.36861 -1.6245
0.324704 0.368647 -1.62414
0.375035 0.368823 -1.62408
0.413472 0.369419 -1.62408
0.794312 0.355547 -1.63385
0.830568 0.373991 -1.6332
0.859697 0.375678 -1.61906
0.838458 0.416109 -1.61968
0.858569 0.417961 -1.60947
-0.23689 0.461285 -1.6141
-0.13045 0.464074 -1.61996
0.844248 0.454726 -1.60788
-1.10644 -0.478555 -1.55591
-1.07063 -0.471775 -1.56926
-1.02552 -0.469462 -1.57475
-0.983141 -0.468571 -1.57452
-0.91693 -0.467934 -1.57398
-0.890048 -0.475859 -1.56139
-0.805275 -0.458039 -1.59074
-0.77218 -0.468614 -1.57639
-0.724507 -0.470449 -1.57508
-0.675237 -0.470712 -1.57484
-0.625133 -0.470828 -1.5747
-0.575051 -0.470799 -1.57488
-0.524936 -0.471327 -1.57435
-0.475133 -0.470987 -1.57541
-0.424967 -0.471741 -1.57463
-0.374753 -0.472342 -1.57418
-0.325149 -0.47227 -1.57533
-0.274806 -0.473495 -1.57433
-0.22508 -0.473192 -1.57481
-0.174986 -0.47348 -1.57513
-0.126153 -0.474311 -1.57481
-0.0757461 -0.474609 -1.57451
-0.0249062 -0.475075 -1.57532
0.0248478 -0.475467 -1.57515
0.074934 -0.476061 -1.57424
0.125297 -0.476656 -1.57464
0.174772 -0.476728 -1.57497
0.224876 -0.47767 -1.57412
0.274718 -0.47775 -1.57483
0.324845 -0.478263 -1.57469
0.374921 -0.478388 -1.57556
0.424667 -0.479316 -1.57447
0.460223 -0.473418 -1.58215
0.540763 -0.485073 -1.56299
0.575603 -0.479864 -1.57428
0.624682 -0.479879 -1.57463
0.674711 -0.479681 -1.5748
0.725174 -0.480117 -1.57442
0.775065 -0.479828 -1.57471
0.82489 -0.479287 -1.57481
0.871195 -0.482277 -1.57052
0.907558 -0.48969 -1.55708
-0.957126 -0.441087 -1.59336
-0.929854 -0.436762 -1.57988
-0.895724 -0.43644 -1.5618
-0.811565 -0.438277 -1.58975
0.474842 -0.429705 -1.5676
0.54605 -0.430013 -1.5606
0.5639 -0.40481 -1.5754
0.92736 -0.409731 -1.56628
-1.0031 -0.35358 -1.5995
-0.98215 -0.353071 -1.58471
-0.93251 -0.35675 -1.5546
-0.81562 -0.37711 -1.55513
0.48973 -0.37238 -1.5654
0.574327 -0.375777 -1.57973
0.927457 -0.391368 -1.57106
-0.974383 -0.341752 -1.57176
-0.94289 -0.31101 -1.5617
-0.83523 -0.333245 -1.55555
0.511132 -0.320132 -1.5801
0.58876 -0.34783 -1.5887
-0.97673 -0.25992 -1.5849
-0.94816 -0.2855 -1.5552
-0.862516 -0.284321 -1.57454
0.606817 -0.283953 -1.58813
-0.99888 -0.23245 -1.5969
-0.90862 -0.20113 -1.5935
0.61522 -0.24273 -1.5774
-1.0054 -0.18124 -1.57975
-0.99139 -0.1745 -1.558
0.54036 -0.18236 -1.5564
0.64014 -0.188705 -1.5903
-0.903395 -0.140058 -1.55807
0.553595 -0.14709 -1.56625
0.63771 -0.14007 -1.5594
0.82998 -0.10233 -1.5554
0.87701 -0.112534 -1.5761
0.910025 -0.11872 -1.5975
-1.0359 -0.065042 -1.5591
-0.89816 -0.098338 -1.5665
0.660745 -0.06991 -1.56275
0.84548 0.048458 -1.55195
0.869214 0.0487671 -1.55473
0.741841 0.0836968 -1.56625
0.775579 0.0787551 -1.57495
0.825494 0.0713553 -1.57546
0.873417 0.0665058 -1.57789
0.907323 0.0721151 -1.59044
-1.038 0.12824 -1.597
0.69463 0.11953 -1.5658
0.727362 0.107669 -1.58741
0.753917 0.102667 -1.59697
-0.99613 0.15664 -1.5901
-0.805598 0.31357 -1.57958
-0.761203 0.337691 -1.56934
-0.724317 0.338 -1.5683
-0.674209 0.338357 -1.56928
-0.624295 0.337974 -1.56926
-0.574458 0.337847 -1.56929
-0.525219 0.337838 -1.56998
-0.474875 0.338118 -1.57052
-0.424674 0.337496 -1.56999
-0.375223 0.337401 -1.56988
-0.325066 0.337346 -1.57053
-0.275602 0.337817 -1.57136
-0.238475 0.337296 -1.57065
-0.1161 0.337592 -1.57111
-0.0754345 0.337678 -1.57166
-0.0248479 0.337522 -1.57154
0.0250521 0.337572 -1.57203
0.0748964 0.337805 -1.5723
0.124751 0.337265 -1.57177
0.174911 0.33739 -1.57214
0.224897 0.337335 -1.57217
0.274776 0.337746 -1.57222
0.324694 0.337469 -1.57159
0.374912 0.337378 -1.57125
0.414509 0.337603 -1.57072
-0.758977 0.352904 -1.59416
-0.72459 0.352787 -1.59346
-0.674262 0.353236 -1.59421
-0.625978 0.35296 -1.59443
-0.573857 0.352623 -1.59423
-0.523896 0.352432 -1.59431
-0.473995 0.352722 -1.59563
-0.425002 0.352572 -1.59506
-0.374091 0.352463 -1.59526
-0.325409 0.352703 -1.59576
-0.274989 0.352828 -1.59633
-0.239409 0.352891 -1.59655
-0.119529 0.355495 -1.59622
-0.0750906 0.352832 -1.59713
-0.0238161 0.352729 -1.59692
0.0279922 0.352375 -1.59648
0.0761968 0.352688 -1.59785
0.125887 0.35248 -1.59756
0.17476 0.352367 -1.59721
0.223165 0.351912 -1.59669
0.274604 0.352738 -1.59767
0.326167 0.352483 -1.59671
0.371973 0.354039 -1.59613
0.416608 0.353218 -1.59456
0.89851 0.38922 -1.5937
-0.12821 0.44924 -1.5666
0.82097 0.44152 -1.5857
0.872482 0.429114 -1.5967
-0.12861 0.45447 -1.5849
0.83827 0.4532 -1.5995
-1.10702 -0.503918 -1.51323
-1.0748 -0.504613 -1.50958
-1.02507 -0.505457 -1.50987
-0.979714 -0.505546 -1.50983
-0.918691 -0.504619 -1.50905
-0.874851 -0.505974 -1.51032
-0.841107 -0.507049 -1.50678
-0.75029 -0.503095 -1.51065
-0.7251 -0.505972 -1.51036
-0.675178 -0.506206 -1.51072
-0.624598 -0.506003 -1.51071
-0.574606 -0.506271 -1.5115
-0.524053 -0.506702 -1.51087
-0.475805 -0.506432 -1.51164
-0.4255 -0.505943 -1.51263
-0.375101 -0.506703 -1.51204
-0.325098 -0.506952 -1.51219
-0.27533 -0.506809 -1.51246
-0.224845 -0.507493 -1.51344
-0.174539 -0.507805 -1.51358
-0.124731 -0.508118 -1.51358
-0.0750426 -0.508169 -1.51454
-0.0250282 -0.508396 -1.51498
0.0252521 -0.508274 -1.51595
0.0752788 -0.508844 -1.51635
0.125164 -0.509214 -1.51583
0.175184 -0.509586 -1.51634
0.225094 -0.510096 -1.51654
0.275332 -0.509399 -1.518
0.325047 -0.510431 -1.5171
0.375251 -0.510229 -1.51813
0.415036 -0.508999 -1.5202
0.495357 -0.51618 -1.50627
0.526472 -0.511149 -1.51839
0.57485 -0.511053 -1.51923
0.624659 -0.511072 -1.51936
0.67491 -0.511058 -1.51946
0.724553 -0.510861 -1.51932
0.775111 -0.511077 -1.51961
0.825294 -0.511341 -1.51844
0.874205 -0.510876 -1.51957
0.911307 -0.509212 -1.52363
-1.1116 -0.490367 -1.53483
-1.07582 -0.491188 -1.53365
-1.02474 -0.491431 -1.53384
-0.975364 -0.490037 -1.53472
-0.919955 -0.486815 -1.5289
-0.878588 -0.491502 -1.53412
-0.845751 -0.49594 -1.51717
-0.765997 -0.484503 -1.53593
-0.726078 -0.491668 -1.53392
-0.675208 -0.4921 -1.53534
-0.624344 -0.492278 -1.53489
-0.575308 -0.492216 -1.53597
-0.524879 -0.492363 -1.53566
-0.474396 -0.491978 -1.5361
-0.425309 -0.49252 -1.53617
-0.37496 -0.492799 -1.53634
-0.325344 -0.492928 -1.53743
-0.275166 -0.493369 -1.53735
-0.224951 -0.493336 -1.53865
-0.174741 -0.493385 -1.5388
-0.124938 -0.494235 -1.53803
-0.0755368 -0.494013 -1.53917
-0.0253721 -0.494245 -1.53937
0.0246714 -0.494541 -1.54007
0.0739972 -0.494808 -1.54053
0.12432 -0.494971 -1.54034
0.174789 -0.495023 -1.54195
0.223445 -0.495657 -1.54136
0.274887 -0.495656 -1.5428
0.3255 -0.49607 -1.54287
0.374288 -0.495707 -1.54278
0.424112 -0.495886 -1.54187
0.469373 -0.477743 -1.5348
0.530422 -0.493943 -1.54217
0.574007 -0.496864 -1.54419
0.625201 -0.497057 -1.54419
0.674268 -0.496649 -1.54427
0.725262 -0.496593 -1.54467
0.774871 -0.496823 -1.54411
0.82462 -0.496962 -1.54346
0.875141 -0.496557 -1.54398
0.913815 -0.497052 -1.54211
-0.925706 -0.428856 -1.52989
-0.885762 -0.420908 -1.52222
-0.77013 -0.41538 -1.5099
0.44805 -0.42858 -1.5099
0.462902 -0.426838 -1.53887
0.525857 -0.426593 -1.52047
-0.912755 -0.381792 -1.518
-0.806325 -0.36582 -1.5309
-0.790317 -0.382725 -1.5208
0.475423 -0.377133 -1.53497
0.54511 -0.39759 -1.5407
0.55194 -0.36399 -1.5301
-0.958402 -0.343033 -1.53716
-0.93505 -0.339133 -1.5073
0.490192 -0.322094 -1.53482
0.54773 -0.33174 -1.5079
-0.82866 -0.291073 -1.5178
0.50532 -0.27847 -1.5432
0.55993 -0.2959 -1.5095
-0.9563 -0.22392 -1.53075
-0.86156 -0.21109 -1.5239
0.50283 -0.2351 -1.51345
0.591365 -0.21647 -1.52275
0.60081 -0.20229 -1.5284
-0.97565 -0.18318 -1.5372
-0.88195 -0.18824 -1.5466
0.51929 -0.168275 -1.50725
0.597335 -0.19183 -1.51975
0.60664 -0.15614 -1.5151
0.53113 -0.12511 -1.5089
0.827399 -0.10566 -1.51266
0.85479 -0.11164 -1.5126
-1.0096 -0.079926 -1.52655
-0.87518 -0.079364 -1.5323
0.553875 -0.0651045 -1.52085
0.63145 -0.090847 -1.5211
0.69453 -0.0582515 -1.5037
0.717605 -0.0694445 -1.50613
0.78745 -0.097218 -1.501
0.804515 -0.099344 -1.522
-1.01315 -0.0366285 -1.51265
-0.18976 -0.0417995 -1.5374
0.55279 -0.0425575 -1.51005
0.6478 -0.0130385 -1.50535
0.677497 -0.046704 -1.50663
0.68468 0.0480687 -1.50228
0.730656 0.044153 -1.50736
0.77519 0.0416151 -1.51573
0.825802 0.0370842 -1.52241
0.860924 0.0398185 -1.53369
-1.0558 0.070413 -1.5199
0.69612 0.0660003 -1.50571
0.727541 0.0598192 -1.52685
0.773416 0.0570104 -1.53945
0.814514 0.0545383 -1.54453
0.860855 0.051407 -1.5481
-1.0003 0.12169 -1.5335
0.674887 0.122113 -1.53943
0.70015 0.10174 -1.5364
-0.805605 0.28432 -1.53085
-0.762133 0.29761 -1.50406
-0.730611 0.29889 -1.50102
-0.67562 0.298503 -1.50159
-0.62653 0.29949 -1.50217
-0.578757 0.29877 -1.50157
-0.524914 0.298541 -1.50201
-0.472358 0.298392 -1.50206
-0.422018 0.298303 -1.5024
-0.373776 0.29861 -1.5035
-0.327434 0.298196 -1.50309
-0.27555 0.298365 -1.50283
-0.233366 0.298326 -1.50301
-0.113012 0.29813 -1.50342
-0.0764322 0.298241 -1.50394
-0.0258164 0.29824 -1.50337
0.0231471 0.298179 -1.50316
0.0737158 0.298206 -1.50399
0.124881 0.298066 -1.50417
0.175533 0.298159 -1.50412
0.224571 0.298093 -1.5042
0.273442 0.29808 -1.50427
0.322584 0.298118 -1.50364
0.373081 0.298298 -1.50425
0.415897 0.29846 -1.50383
-0.757381 0.313715 -1.52708
-0.724732 0.313598 -1.52646
-0.67454 0.313198 -1.52607
-0.625021 0.313158 -1.52682
-0.574755 0.313242 -1.52726
-0.524739 0.312708 -1.5266
-0.475027 0.312902 -1.52718
-0.425409 0.312257 -1.52622
-0.374759 0.312458 -1.52753
-0.324864 0.312101 -1.52702
-0.274733 0.312625 -1.52778
-0.234423 0.31265 -1.52662
-0.115723 0.312593 -1.52871
-0.0752492 0.312432 -1.5285
-0.0251962 0.312546 -1.52883
0.0248051 0.312455 -1.52889
0.0748886 0.312656 -1.52909
0.124904 0.312216 -1.52873
0.175104 0.312546 -1.52951
0.225295 0.312312 -1.52883
0.275019 0.312703 -1.52939
0.325104 0.312464 -1.52885
0.374798 0.312294 -1.52815
0.416829 0.312255 -1.52752
-0.1321 0.38199 -1.5297
-0.23082 0.44341 -1.5498
0.3474 -0.55022 -1.4508
0.39921 -0.55007 -1.4505
0.45821 -0.55022 -1.4508
0.53246 -0.55094 -1.45277
0.5589 -0.55032 -1.4511
0.624299 -0.550794 -1.45113
0.674222 -0.551138 -1.45066
0.719066 -0.551526 -1.45452
0.763292 -0.550838 -1.4516
0.811058 -0.5509 -1.45152
0.87208 -0.55077 -1.45117
-1.10218 -0.510666 -1.49822
-1.0711 -0.521927 -1.47771
-1.02488 -0.524327 -1.4748
-0.977532 -0.524604 -1.47409
-0.922499 -0.52106 -1.47354
-0.874507 -0.52437 -1.47561
-0.827261 -0.526556 -1.47172
-0.794314 -0.53455 -1.45568
-0.716724 -0.521487 -1.4798
-0.674534 -0.525246 -1.4749
-0.625148 -0.525649 -1.47498
-0.575191 -0.525703 -1.47445
-0.525219 -0.525818 -1.47453
-0.474308 -0.526209 -1.47408
-0.424526 -0.526135 -1.47485
-0.374836 -0.526891 -1.47478
-0.324862 -0.527388 -1.47439
-0.275019 -0.527574 -1.475
-0.224852 -0.528557 -1.47465
-0.17526 -0.528989 -1.47437
-0.125491 -0.529363 -1.47477
-0.0755166 -0.529962 -1.47458
-0.0250714 -0.53025 -1.47505
0.0251562 -0.5306 -1.47504
0.0750026 -0.531493 -1.47483
0.124813 -0.531877 -1.47435
0.174612 -0.532809 -1.47432
0.225075 -0.533551 -1.47419
0.274542 -0.53308 -1.4755
0.324875 -0.534003 -1.47433
0.3751 -0.534339 -1.47475
0.404053 -0.525723 -1.47581
0.481626 -0.536739 -1.47012
0.52474 -0.534748 -1.4756
0.57469 -0.53538 -1.47485
0.625024 -0.535437 -1.47517
0.674759 -0.535544 -1.47501
0.725086 -0.535428 -1.47478
0.774999 -0.535571 -1.47475
0.824596 -0.53536 -1.47515
0.873052 -0.534712 -1.47712
0.904251 -0.524115 -1.49537
-0.927652 -0.479593 -1.47589
-0.8946 -0.492673 -1.46943
-0.834725 -0.46944 -1.48987
-0.767763 -0.476387 -1.47283
-0.732772 -0.473321 -1.47236
0.41646 -0.474604 -1.46844
0.48694 -0.475406 -1.47728
-0.904668 -0.425742 -1.47788
-0.874894 -0.422108 -1.47534
-0.820105 -0.44169 -1.45365
-0.759977 -0.42359 -1.48711
-0.734187 -0.440731 -1.46046
0.43074 -0.43188 -1.4748
0.495485 -0.439845 -1.4738
0.50554 -0.42458 -1.4817
-0.874303 -0.381419 -1.47386
-0.77289 -0.361972 -1.47227
-0.74774 -0.39539 -1.4598
0.443767 -0.3752 -1.46787
0.47936 -0.37515 -1.47305
0.520402 -0.37456 -1.48217
-0.92308 -0.332463 -1.47252
-0.879833 -0.33041 -1.46657
-0.80061 -0.3043 -1.4741
-0.781767 -0.326527 -1.46287
0.457075 -0.329105 -1.47045
0.53932 -0.323455 -1.4876
-0.90453 -0.25696 -1.4744
-0.89827 -0.27176 -1.472
-0.80878 -0.29312 -1.48355
0.475883 -0.264965 -1.47295
0.54389 -0.284945 -1.4737
-0.805 -0.23847 -1.4541
0.48491 -0.214445 -1.4616
0.55711 -0.24331 -1.4753
0.48779 -0.19926 -1.4609
0.50386 -0.17094 -1.47875
0.57211 -0.15554 -1.4528
0.52502 -0.125095 -1.49245
0.79915 -0.10027 -1.4774
0.813051 -0.103278 -1.46842
-0.97451 -0.068789 -1.4712
-0.865815 -0.0830965 -1.49025
-0.84624 -0.0843615 -1.4748
0.60579 -0.078834 -1.4674
0.686058 -0.0569824 -1.47989
0.727551 -0.0735571 -1.48342
0.773723 -0.0910525 -1.47469
-0.179085 -0.0419855 -1.4639
0.638541 -0.0152996 -1.461
0.660868 -0.0364636 -1.46288
0.640946 0.0150668 -1.46152
0.674507 0.0269299 -1.47084
0.723897 0.0250127 -1.47373
0.774375 0.0190299 -1.47478
0.816252 0.0152484 -1.47952
0.646563 0.0507637 -1.45733
0.675543 0.0551379 -1.48041
-0.911255 0.156585 -1.47025
-0.81486 0.23804 -1.473
-0.758472 0.282881 -1.47462
-0.725004 0.283869 -1.4739
-0.67511 0.283556 -1.4738
-0.624723 0.283855 -1.47458
-0.574432 0.282972 -1.4734
-0.524434 0.282893 -1.47361
-0.474873 0.282819 -1.47423
-0.425303 0.282994 -1.47464
-0.375389 0.282279 -1.47386
-0.32464 0.282217 -1.47388
-0.274798 0.282216 -1.47436
-0.232424 0.282149 -1.47404
-0.115112 0.281801 -1.47422
-0.0750713 0.28158 -1.47371
-0.025121 0.28171 -1.47436
0.0252109 0.281887 -1.47479
0.0753307 0.281347 -1.4743
0.125303 0.28102 -1.47396
0.174635 0.281028 -1.47391
0.224942 0.280986 -1.47401
0.274909 0.280829 -1.47398
0.325249 0.281344 -1.47481
0.375034 0.281068 -1.47403
0.418124 0.281941 -1.47482
-0.218041 0.326517 -1.48969
0.39984 0.30399 -1.4613
0.42192 0.3043 -1.4921
0.58573 0.34001 -1.4852
-0.130685 0.3668 -1.47367
-0.128295 0.417905 -1.4606
-1.056 -0.55614 -1.41639
-1.02483 -0.55747 -1.41403
-0.977968 -0.557953 -1.41351
-0.917383 -0.55763 -1.41487
-0.869237 -0.558027 -1.4143
-0.824926 -0.558109 -1.41549
-0.778 -0.558355 -1.4109
-0.746574 -0.564003 -1.40315
-0.667443 -0.55772 -1.41573
-0.625178 -0.558044 -1.41529
-0.574749 -0.55855 -1.4151
-0.524973 -0.558319 -1.4151
-0.474874 -0.558408 -1.41579
-0.425343 -0.558664 -1.41586
-0.374761 -0.559211 -1.41647
-0.325032 -0.559602 -1.4165
-0.274631 -0.559963 -1.41744
-0.224583 -0.560115 -1.41712
-0.174425 -0.559999 -1.41813
-0.124749 -0.560509 -1.41813
-0.0751551 -0.560726 -1.41891
-0.0244038 -0.561094 -1.41931
0.0246186 -0.56098 -1.42077
0.0749107 -0.561494 -1.4207
0.12496 -0.561904 -1.42122
0.1749 -0.562215 -1.42184
0.225182 -0.562681 -1.42196
0.275102 -0.562843 -1.42283
0.325417 -0.562691 -1.42314
0.375456 -0.562771 -1.42343
0.42471 -0.564257 -1.42109
0.47476 -0.563267 -1.42334
0.525113 -0.563249 -1.42354
0.574833 -0.56323 -1.42386
0.625192 -0.563927 -1.42422
0.67539 -0.564332 -1.42375
0.724728 -0.564143 -1.42408
0.774842 -0.564367 -1.42393
0.824754 -0.563978 -1.42476
0.86138 -0.561845 -1.42837
-1.06129 -0.542709 -1.43959
-1.02533 -0.544051 -1.438
-0.977411 -0.543852 -1.43854
-0.921894 -0.539688 -1.43767
-0.870237 -0.542197 -1.43635
-0.825647 -0.544468 -1.43985
-0.782094 -0.544077 -1.43262
-0.705536 -0.532305 -1.44335
-0.675262 -0.543803 -1.43931
-0.624734 -0.54434 -1.43977
-0.574685 -0.544509 -1.43949
-0.524992 -0.54448 -1.43978
-0.476212 -0.544596 -1.44045
-0.42407 -0.544824 -1.43956
-0.375307 -0.545159 -1.44091
-0.324808 -0.545474 -1.4412
-0.274938 -0.545558 -1.44198
-0.226023 -0.545993 -1.44203
-0.175555 -0.545796 -1.44233
-0.126391 -0.546284 -1.44307
-0.0753265 -0.546392 -1.44279
-0.026445 -0.546838 -1.44381
0.0241104 -0.547103 -1.44458
0.0747662 -0.547323 -1.44523
0.122123 -0.547474 -1.44663
0.175356 -0.547946 -1.44604
0.222945 -0.548249 -1.4458
0.275387 -0.548044 -1.44746
0.322303 -0.548448 -1.44673
0.376641 -0.542014 -1.44676
0.416634 -0.524511 -1.42558
0.473529 -0.546553 -1.44705
0.52473 -0.548533 -1.44773
0.576916 -0.54868 -1.44684
0.621069 -0.548616 -1.44746
0.673975 -0.549127 -1.44833
0.724914 -0.54904 -1.448
0.777677 -0.549153 -1.44804
0.828426 -0.549019 -1.44804
0.862331 -0.54921 -1.44705
-0.908504 -0.479215 -1.42999
-0.879762 -0.476307 -1.41603
-0.80189 -0.46539 -1.4402
-0.782003 -0.486633 -1.42088
-0.712642 -0.466035 -1.42801
-0.69991 -0.46119 -1.4034
0.399711 -0.48486 -1.42464
0.410009 -0.48297 -1.41346
0.46507 -0.467638 -1.43263
-0.872083 -0.437213 -1.4299
-0.834043 -0.414062 -1.42598
-0.729791 -0.428846 -1.43346
-0.69635 -0.445305 -1.40675
0.39967 -0.446 -1.4088
0.40405 -0.435812 -1.41153
0.474095 -0.419793 -1.42202
-0.856801 -0.377561 -1.43687
-0.838185 -0.382772 -1.41803
-0.75723 -0.356355 -1.4434
-0.746313 -0.360017 -1.43267
0.420832 -0.381467 -1.42345
0.49326 -0.37348 -1.42935
-0.904255 -0.32471 -1.44145
-0.85524 -0.334098 -1.42182
-0.838823 -0.321793 -1.40427
-0.76849 -0.31082 -1.4264
-0.741815 -0.343935 -1.4052
0.433578 -0.326602 -1.41825
0.49653 -0.34565 -1.4214
0.50381 -0.318365 -1.41925
-0.86119 -0.295785 -1.4327
-0.77796 -0.25038 -1.4115
0.44367 -0.279305 -1.4136
0.461363 -0.262427 -1.44027
0.525563 -0.27322 -1.4318
-0.876335 -0.238725 -1.4243
-0.81795 -0.20532 -1.4498
-0.7966 -0.2469 -1.4423
0.462544 -0.22493 -1.42118
0.53458 -0.228843 -1.42453
-0.81333 -0.163715 -1.4169
0.487365 -0.166705 -1.44195
0.556235 -0.167055 -1.4313
-0.90627 -0.12448 -1.4019
-0.81352 -0.13879 -1.4016
0.48409 -0.116455 -1.4065
0.5512 -0.13607 -1.4023
0.813535 -0.10195 -1.44865
-0.95297 -0.090535 -1.4422
-0.92551 -0.080988 -1.4009
-0.82163 -0.09668 -1.4039
0.50799 -0.062567 -1.4265
0.642363 -0.0582503 -1.40793
0.685363 -0.0570151 -1.41655
0.715984 -0.0691466 -1.4094
0.777504 -0.0912467 -1.43292
0.805952 -0.0986318 -1.44478
-0.96823 -0.020712 -1.43837
-0.175435 -0.0381865 -1.4051
0.595047 -0.0199831 -1.41833
0.643651 -0.0210639 -1.4421
0.674203 -0.0259076 -1.42596
0.722435 -0.0214035 -1.41603
0.769245 -0.0138284 -1.41866
0.80683 -0.00144835 -1.44623
-0.98065 0.0004406 -1.4374
0.59304 0.0018248 -1.4025
0.630209 0.0137798 -1.44031
0.678099 0.00532108 -1.44338
0.723318 0.0054557 -1.44133
0.769131 0.00359033 -1.44484
0.808975 0.00318665 -1.4481
0.640176 0.052985 -1.43362
0.6595 0.057911 -1.4408
-0.92028 0.11938 -1.42435
-0.8863 0.14062 -1.413
-0.85095 0.18953 -1.4461
-0.831964 0.182852 -1.40926
-0.822217 0.206013 -1.43197
-0.760863 0.242511 -1.40945
-0.726471 0.245233 -1.40742
-0.67551 0.244937 -1.4075
-0.624541 0.245052 -1.40851
-0.574852 0.245088 -1.40889
-0.524915 0.245103 -1.40898
-0.475338 0.245032 -1.4093
-0.424702 0.244805 -1.40929
-0.37556 0.24476 -1.40984
-0.324624 0.244604 -1.40982
-0.274607 0.244365 -1.41013
-0.228798 0.244344 -1.41019
-0.113883 0.243739 -1.40992
-0.0745607 0.243956 -1.40975
-0.0253291 0.2439 -1.41011
0.0254168 0.243925 -1.40995
0.0748232 0.243641 -1.41012
0.125152 0.24391 -1.41072
0.174552 0.243695 -1.41064
0.225146 0.243532 -1.41066
0.274087 0.243267 -1.41032
0.32524 0.24351 -1.41094
0.374641 0.243668 -1.41059
0.420274 0.243583 -1.41055
-0.756067 0.259993 -1.43357
-0.724818 0.259839 -1.4323
-0.675072 0.259971 -1.43283
-0.625402 0.259504 -1.43259
-0.575165 0.259504 -1.43293
-0.525176 0.25947 -1.43339
-0.475108 0.259267 -1.43363
-0.424982 0.259476 -1.43406
-0.374726 0.259132 -1.43411
-0.325053 0.259419 -1.43496
-0.275418 0.259246 -1.43532
-0.230232 0.259244 -1.43512
-0.114132 0.258719 -1.43539
-0.0755765 0.258951 -1.43556
-0.0243824 0.258669 -1.43544
0.0250889 0.258875 -1.43578
0.0751649 0.258523 -1.43558
0.124512 0.258378 -1.43562
0.175198 0.258443 -1.43602
0.22457 0.258285 -1.43608
0.274907 0.257982 -1.4358
0.324102 0.257987 -1.43561
0.375196 0.258496 -1.43609
0.419011 0.258752 -1.43583
-0.211127 0.319896 -1.41026
-0.129353 0.345223 -1.42307
0.3444 0.33018 -1.4158
0.35502 0.3342 -1.4394
-0.12906 0.3506 -1.40925
-0.21696 0.4069 -1.4289
-0.12742 0.40755 -1.4235
-0.31585 -0.60056 -1.3508
-0.17639 -0.60034 -1.3503
-0.1233 -0.601213 -1.35135
-0.0713689 -0.60126 -1.35144
-0.029818 -0.60076 -1.3505
0.0324705 -0.601202 -1.35162
0.0830617 -0.600712 -1.35164
0.127391 -0.601229 -1.35176
0.174757 -0.601518 -1.3522
0.229102 -0.60154 -1.35305
0.277179 -0.602063 -1.35273
0.327413 -0.602161 -1.35322
0.374895 -0.601554 -1.35346
0.425085 -0.6025 -1.35263
0.475516 -0.601981 -1.35429
0.528177 -0.602268 -1.35424
0.572491 -0.602254 -1.35352
0.625078 -0.602239 -1.35444
0.67322 -0.602568 -1.35551
0.723767 -0.602847 -1.3551
0.775426 -0.602847 -1.35599
0.818529 -0.602678 -1.35592
-1.0502 -0.56638 -1.39805
-1.02054 -0.57699 -1.37783
-0.977211 -0.57911 -1.37462
-0.918232 -0.576825 -1.37428
-0.880684 -0.578626 -1.37487
-0.827707 -0.578756 -1.3759
-0.774029 -0.577705 -1.37459
-0.725457 -0.578749 -1.36992
-0.675606 -0.576105 -1.37249
-0.625 -0.580263 -1.37509
-0.575198 -0.580209 -1.37492
-0.524912 -0.580394 -1.37512
-0.474825 -0.580938 -1.37517
-0.424633 -0.581555 -1.37495
-0.374817 -0.582003 -1.37506
-0.32495 -0.582917 -1.3749
-0.275126 -0.583181 -1.37509
-0.225176 -0.583495 -1.37477
-0.175278 -0.583936 -1.37462
-0.125483 -0.584365 -1.37489
-0.0755987 -0.584789 -1.375
-0.0253079 -0.585245 -1.3753
0.0251771 -0.585562 -1.37551
0.0748583 -0.58623 -1.37547
0.124827 -0.58687 -1.37583
0.174765 -0.587109 -1.37606
0.224951 -0.587407 -1.37648
0.274923 -0.587815 -1.37642
0.324647 -0.587468 -1.37789
0.374696 -0.587746 -1.37823
0.424718 -0.588287 -1.37695
0.474541 -0.587852 -1.37843
0.523806 -0.588014 -1.37837
0.574489 -0.588179 -1.37821
0.624409 -0.58858 -1.37852
0.674709 -0.588936 -1.37895
0.725089 -0.588714 -1.3798
0.774711 -0.588728 -1.37984
0.823153 -0.587871 -1.38042
0.852536 -0.580028 -1.39468
-0.915828 -0.542024 -1.36626
-0.869507 -0.52649 -1.37555
-0.847667 -0.516763 -1.35963
-0.76015 -0.544401 -1.38172
-0.722263 -0.541052 -1.36743
-0.67944 -0.530224 -1.36417
-0.869578 -0.478723 -1.38112
-0.838757 -0.477943 -1.36828
-0.764208 -0.462493 -1.38075
-0.744425 -0.482175 -1.3635
-0.681823 -0.479466 -1.36352
0.418663 -0.467492 -1.38906
-0.861285 -0.42444 -1.38905
-0.834212 -0.42399 -1.37627
-0.779237 -0.435637 -1.38943
-0.707093 -0.418501 -1.37974
-0.68581 -0.422801 -1.36486
0.399692 -0.422202 -1.39175
0.415633 -0.423902 -1.36901
0.45725 -0.41141 -1.38607
-0.822335 -0.379555 -1.3831
-0.784027 -0.382338 -1.36252
-0.705154 -0.377112 -1.367
0.3998 -0.387598 -1.37196
0.403297 -0.378795 -1.3645
0.46231 -0.380399 -1.37777
-0.819489 -0.336397 -1.37309
-0.731657 -0.337747 -1.38173
0.405391 -0.338179 -1.36019
0.48227 -0.329457 -1.38643
-0.830002 -0.276562 -1.37465
-0.754855 -0.256465 -1.37395
-0.73343 -0.28625 -1.3558
0.42911 -0.27936 -1.3812
0.492437 -0.28791 -1.38037
0.51127 -0.25023 -1.3952
-0.758642 -0.225448 -1.36782
0.43104 -0.229143 -1.3569
0.51667 -0.22348 -1.3881
-0.870058 -0.176773 -1.37668
-0.7754 -0.183543 -1.36745
0.4499 -0.17647 -1.365
0.45421 -0.15716 -1.3654
0.520827 -0.16804 -1.36367
-0.888415 -0.139425 -1.3869
-0.81765 -0.10171 -1.3966
-0.79093 -0.1401 -1.36635
0.47431 -0.11681 -1.385
0.5351 -0.13071 -1.37117
-0.89523 -0.072561 -1.3506
-0.78346 -0.084462 -1.3676
0.470432 -0.0871293 -1.36032
0.693952 -0.060392 -1.39782
0.73112 -0.0647582 -1.38935
0.757405 -0.0715261 -1.38083
-0.939193 -0.0168234 -1.39203
-0.172685 -0.0347198 -1.3783
0.50223 -0.031754 -1.3981
0.56253 -0.0462515 -1.3739
0.692464 -0.0477409 -1.3968
0.729744 -0.0421247 -1.39408
0.760572 -0.0376357 -1.39158
0.580028 0.024614 -1.3658
-0.91384 0.091935 -1.3684
0.59103 0.09603 -1.3648
0.610232 0.0803392 -1.36638
-0.90308 0.11463 -1.3929
-0.863303 0.136433 -1.37607
0.58664 0.105073 -1.37657
0.67601 0.142395 -1.38155
-0.83429 0.163155 -1.3792
-0.78935 0.19918 -1.3767
-0.756193 0.225889 -1.37723
-0.724349 0.226199 -1.37482
-0.674587 0.225587 -1.37405
-0.624838 0.225656 -1.37458
-0.574998 0.225497 -1.37451
-0.525579 0.225312 -1.37428
-0.475215 0.225398 -1.37502
-0.425457 0.224869 -1.3742
-0.374848 0.224842 -1.37462
-0.325026 0.224278 -1.3739
-0.274768 0.223989 -1.37378
-0.224405 0.224639 -1.37273
-0.174961 0.218114 -1.3551
-0.125526 0.222652 -1.36556
-0.0755788 0.223477 -1.37444
-0.0250425 0.222874 -1.37334
0.0248906 0.223313 -1.3745
0.0744734 0.222668 -1.37348
0.124726 0.223286 -1.37454
0.17493 0.222869 -1.37443
0.224832 0.222601 -1.37387
0.275412 0.222458 -1.37391
0.32511 0.222816 -1.37443
0.375402 0.222582 -1.37412
0.421816 0.222038 -1.37308
-0.20311 0.253936 -1.35574
-0.127543 0.273991 -1.3629
-0.20697 0.31632 -1.36233
-0.128222 0.3198 -1.38142
0.33576 0.3288 -1.3974
-0.213635 0.394425 -1.3806
-0.126171 0.390876 -1.36382
-0.2164 0.4001 -1.3975
-1.00699 -0.608233 -1.32065
-0.976466 -0.609712 -1.3179
-0.921586 -0.609321 -1.31689
-0.876727 -0.610084 -1.31824
-0.81767 -0.610103 -1.31674
-0.774977 -0.610641 -1.31903
-0.724604 -0.610548 -1.31918
-0.674536 -0.610762 -1.319
-0.625269 -0.610587 -1.31972
-0.575009 -0.611121 -1.31915
-0.52524 -0.611272 -1.31956
-0.474506 -0.611218 -1.32038
-0.424477 -0.611671 -1.32085
-0.375008 -0.611891 -1.32177
-0.32503 -0.612513 -1.3215
-0.274938 -0.612739 -1.3219
-0.224852 -0.612836 -1.32242
-0.175092 -0.612592 -1.32327
-0.124946 -0.613404 -1.32288
-0.0753127 -0.613155 -1.3239
-0.0247964 -0.613887 -1.32354
0.0250894 -0.614123 -1.32402
0.0753667 -0.614325 -1.32448
0.124835 -0.614674 -1.32514
0.17523 -0.615673 -1.32451
0.224764 -0.615803 -1.32462
0.274678 -0.616438 -1.32447
0.324665 -0.616761 -1.32473
0.375017 -0.616584 -1.32524
0.424923 -0.617413 -1.32433
0.474949 -0.617186 -1.32463
0.524636 -0.617458 -1.32447
0.574945 -0.617838 -1.32467
0.625064 -0.618024 -1.32531
0.675261 -0.618515 -1.32535
0.724698 -0.619581 -1.32418
0.774659 -0.61929 -1.32511
0.812209 -0.616841 -1.32946
-1.01181 -0.595499 -1.34215
-0.974847 -0.595967 -1.3424
-0.918538 -0.589276 -1.33677
-0.880866 -0.59297 -1.34095
-0.821154 -0.592664 -1.33549
-0.778992 -0.586037 -1.3374
-0.725484 -0.596622 -1.34465
-0.675981 -0.596824 -1.34365
-0.624451 -0.596621 -1.34334
-0.57494 -0.596338 -1.34455
-0.524992 -0.597104 -1.34389
-0.475279 -0.596582 -1.34508
-0.427064 -0.597131 -1.34466
-0.376364 -0.597613 -1.34588
-0.32523 -0.59798 -1.34577
-0.276018 -0.598016 -1.34663
-0.224451 -0.598102 -1.34695
-0.172296 -0.598496 -1.3473
-0.12788 -0.59854 -1.34729
-0.0735831 -0.598544 -1.34798
-0.0226316 -0.59859 -1.34808
0.0198136 -0.599221 -1.34734
0.0704759 -0.59882 -1.34876
0.114892 -0.598593 -1.3495
0.170387 -0.59877 -1.34913
0.213365 -0.5996 -1.34855
0.27049 -0.59845 -1.3497
-0.904617 -0.541207 -1.32715
-0.881036 -0.524169 -1.32139
-0.828251 -0.5264 -1.32334
-0.76943 -0.54939 -1.3423
-0.708016 -0.517907 -1.34036
-0.68666 -0.515146 -1.34157
-0.86157 -0.48417 -1.33218
-0.824287 -0.474535 -1.32418
-0.708799 -0.474824 -1.3177
-0.683692 -0.4734 -1.32385
-0.811022 -0.414344 -1.32878
-0.78531 -0.417018 -1.3132
-0.715998 -0.441438 -1.30636
-0.679516 -0.430219 -1.31532
0.419109 -0.40133 -1.34933
-0.806839 -0.376364 -1.32626
-0.781382 -0.37657 -1.32323
-0.678998 -0.385643 -1.31292
0.418403 -0.373048 -1.3361
0.452135 -0.362295 -1.3483
-0.80626 -0.33632 -1.33365
-0.787455 -0.331849 -1.31898
-0.709248 -0.322169 -1.33361
-0.694876 -0.318348 -1.31146
0.399843 -0.33699 -1.34277
0.415062 -0.327519 -1.31715
0.457166 -0.320402 -1.3326
-0.8004 -0.28532 -1.3351
-0.78744 -0.28193 -1.3128
-0.716463 -0.274419 -1.31754
0.403046 -0.279694 -1.31374
0.465782 -0.276973 -1.3231
-0.817742 -0.226513 -1.32827
-0.795615 -0.247805 -1.30955
-0.735265 -0.224095 -1.32725
0.407843 -0.235223 -1.31048
0.475068 -0.225737 -1.31322
-0.75724 -0.168105 -1.32495
-0.741554 -0.18186 -1.31064
0.43087 -0.174588 -1.32676
0.492317 -0.17698 -1.3157
0.50032 -0.19817 -1.3415
-0.854647 -0.1264 -1.32677
-0.82877 -0.14698 -1.3003
-0.77374 -0.1166 -1.3281
0.444218 -0.130095 -1.3303
0.451375 -0.12408 -1.34255
0.50222 -0.11842 -1.3027
-0.760013 -0.0722237 -1.3264
0.458383 -0.0658543 -1.3242
-0.87937 -0.032452 -1.3147
-0.169603 -0.0311453 -1.31498
0.46005 -0.012822 -1.31
0.539917 -0.0318909 -1.32617
0.55285 -0.019663 -1.3389
0.54283 0.02257 -1.301
0.555527 0.0193958 -1.32553
-0.88778 0.088214 -1.32933
0.59265 0.062545 -1.3209
-0.8668 0.10573 -1.3323
-0.817325 0.14417 -1.32835
-0.79546 0.14965 -1.3051
-0.75725 0.189428 -1.31931
-0.72446 0.191796 -1.31573
-0.67454 0.191205 -1.31508
-0.625564 0.19111 -1.31498
-0.57597 0.191304 -1.31533
-0.524757 0.19082 -1.31469
-0.474571 0.191146 -1.31533
-0.425094 0.191134 -1.31574
-0.375058 0.190745 -1.31529
-0.324817 0.190734 -1.31548
-0.275195 0.19036 -1.3154
-0.224517 0.190317 -1.31593
-0.174709 0.190066 -1.31682
-0.125092 0.190419 -1.31707
-0.0753888 0.190349 -1.31709
-0.0248799 0.190256 -1.31707
0.0251758 0.189882 -1.3165
0.0747746 0.189893 -1.31701
0.1249 0.189754 -1.31666
0.175103 0.189895 -1.31675
0.224861 0.189763 -1.31681
0.274893 0.189803 -1.31728
0.324913 0.189586 -1.31717
0.374397 0.189599 -1.31724
0.423892 0.189473 -1.31685
-0.753527 0.20612 -1.34163
-0.724708 0.206243 -1.34075
-0.674777 0.205822 -1.34035
-0.625067 0.205672 -1.33993
-0.574372 0.205729 -1.34005
-0.524394 0.205501 -1.34036
-0.475368 0.2057 -1.34014
-0.423786 0.205635 -1.34056
-0.374401 0.205385 -1.3407
-0.324418 0.205139 -1.34061
-0.275778 0.205033 -1.34098
-0.223637 0.206387 -1.34109
-0.174074 0.231043 -1.34241
-0.132901 0.225071 -1.3436
-0.0743522 0.204596 -1.34177
-0.0248806 0.204445 -1.3416
0.0246188 0.204524 -1.34196
0.0758049 0.204379 -1.34229
0.124968 0.204702 -1.34282
0.174867 0.204488 -1.34241
0.225428 0.204176 -1.34257
0.274528 0.204132 -1.34175
0.324111 0.20434 -1.34255
0.373809 0.204029 -1.34226
0.424119 0.204161 -1.34264
-0.201603 0.27795 -1.33302
-0.17503 0.27506 -1.32335
-0.138925 0.275447 -1.32626
0.35785 0.27673 -1.3369
-0.202183 0.321989 -1.3138
-0.175442 0.311329 -1.30502
-0.138105 0.314406 -1.30666
-0.207635 0.377568 -1.3184
-0.127298 0.379341 -1.324
0.52228 0.38157 -1.3306
-0.719386 -0.650761 -1.25169
-0.67171 -0.651155 -1.25262
-0.629618 -0.650587 -1.25153
-0.564724 -0.650919 -1.25138
-0.522508 -0.650952 -1.25132
-0.483306 -0.651405 -1.25236
-0.418751 -0.651395 -1.25237
-0.372617 -0.651344 -1.25217
-0.319425 -0.651214 -1.25237
-0.27374 -0.651413 -1.25302
-0.221489 -0.65132 -1.25246
-0.173561 -0.652066 -1.25334
-0.123243 -0.651657 -1.25395
-0.0724443 -0.651803 -1.25414
-0.0252068 -0.652391 -1.25379
0.0259996 -0.65227 -1.25447
0.0754284 -0.652531 -1.25474
0.125916 -0.653029 -1.25536
0.17455 -0.65332 -1.25591
0.225408 -0.653273 -1.25624
0.275373 -0.653766 -1.25676
0.323918 -0.653831 -1.25638
0.374522 -0.653861 -1.2577
0.42438 -0.654068 -1.25744
0.474357 -0.654185 -1.25764
0.525219 -0.654427 -1.25769
0.575481 -0.654352 -1.25811
0.626112 -0.654449 -1.25855
0.675233 -0.655033 -1.25857
0.725353 -0.655442 -1.25925
0.771006 -0.655683 -1.2595
-1.00133 -0.62156 -1.29703
-0.97516 -0.631827 -1.27688
-0.925441 -0.632169 -1.27298
-0.874259 -0.632043 -1.27567
-0.826471 -0.62919 -1.27738
-0.771794 -0.628423 -1.28463
-0.724244 -0.634497 -1.27578
-0.674559 -0.635031 -1.27484
-0.624671 -0.634809 -1.27506
-0.575164 -0.635941 -1.27419
-0.524713 -0.635615 -1.27499
-0.47472 -0.635922 -1.27507
-0.425037 -0.636333 -1.2753
-0.375016 -0.636573 -1.27573
-0.324986 -0.637339 -1.27545
-0.274827 -0.637515 -1.27592
-0.225266 -0.637786 -1.27609
-0.175042 -0.637809 -1.27711
-0.125362 -0.637962 -1.27747
-0.0754867 -0.638058 -1.27777
-0.0252273 -0.638579 -1.27777
0.0248424 -0.638686 -1.27913
0.0741583 -0.639007 -1.27905
0.124895 -0.639006 -1.27985
0.174785 -0.639545 -1.28013
0.224829 -0.639831 -1.28057
0.274596 -0.640061 -1.28103
0.325173 -0.640091 -1.2814
0.374597 -0.639912 -1.2821
0.424761 -0.640199 -1.28202
0.475239 -0.640548 -1.28226
0.52482 -0.64088 -1.28177
0.57474 -0.641092 -1.28233
0.624359 -0.640727 -1.28352
0.674699 -0.641198 -1.28333
0.724745 -0.641774 -1.28379
0.774128 -0.641398 -1.28448
0.802709 -0.637781 -1.29012
-0.912546 -0.584845 -1.27956
-0.88604 -0.57099 -1.27105
-0.809922 -0.580532 -1.27974
-0.792925 -0.576376 -1.27621
-0.869067 -0.524441 -1.27372
-0.819428 -0.525052 -1.26248
-0.787894 -0.521854 -1.26568
-0.852228 -0.486036 -1.2856
-0.836812 -0.475288 -1.28079
-0.782649 -0.467724 -1.2667
-0.80519 -0.44408 -1.2537
-0.78072 -0.425851 -1.26627
-0.708287 -0.421159 -1.28724
-0.686479 -0.419175 -1.28928
-0.80328 -0.39732 -1.296
-0.76074 -0.377005 -1.26261
-0.715103 -0.374196 -1.26257
-0.682614 -0.373124 -1.27392
-0.758666 -0.327273 -1.27654
-0.742201 -0.332547 -1.25907
-0.676751 -0.329729 -1.2699
0.419368 -0.306685 -1.29706
-0.73759 -0.290408 -1.26368
-0.680256 -0.288207 -1.26007
0.41819 -0.273532 -1.28143
0.45697 -0.25743 -1.2995
-0.777796 -0.222762 -1.26916
-0.70453 -0.21426 -1.2666
-0.69888 -0.22356 -1.2639
0.413529 -0.230575 -1.26526
0.458273 -0.229557 -1.28468
-0.810165 -0.179802 -1.28985
-0.726588 -0.17514 -1.28
0.403604 -0.181585 -1.26152
0.468876 -0.165994 -1.26787
-0.81802 -0.13572 -1.2798
-0.74064 -0.11671 -1.2696
0.413167 -0.132529 -1.26502
0.489456 -0.115493 -1.27874
-0.8459 -0.075196 -1.2799
-0.73563 -0.0734025 -1.2711
0.42695 -0.0813907 -1.26725
0.507643 -0.0524913 -1.27827
-0.161964 -0.0220893 -1.28688
0.437765 -0.0387775 -1.26525
0.45236 -0.02345 -1.28855
0.520813 -0.0159463 -1.2831
-0.85079 0.00038352 -1.2512
0.52983 0.0252883 -1.27549
0.56393 0.052593 -1.2767
-0.78764 0.14019 -1.2792
-0.050217 0.14969 -1.2502
0.26493 0.14973 -1.25045
0.326787 0.14977 -1.2508
0.361908 0.149788 -1.25094
0.44754 0.1493 -1.25225
0.45069 0.14856 -1.2513
-0.754329 0.165979 -1.2773
-0.724154 0.168659 -1.27541
-0.674768 0.167966 -1.27401
-0.624483 0.167439 -1.27355
-0.574909 0.167881 -1.27456
-0.525208 0.167383 -1.27447
-0.474769 0.167181 -1.27396
-0.424928 0.167528 -1.27467
-0.375144 0.167279 -1.27458
-0.325169 0.167015 -1.2744
-0.274661 0.166905 -1.27502
-0.225254 0.16627 -1.27448
-0.175286 0.165794 -1.27387
-0.12515 0.166294 -1.2752
-0.0748027 0.166192 -1.27535
-0.025077 0.165969 -1.27492
0.0250225 0.165495 -1.27452
0.0750909 0.165575 -1.27479
0.125107 0.165147 -1.27458
0.174674 0.16532 -1.27479
0.225001 0.165269 -1.27489
0.274708 0.165379 -1.27537
0.324738 0.164919 -1.27465
0.375425 0.164836 -1.27464
0.42441 0.164905 -1.27529
0.451147 0.153707 -1.2617
0.3301 0.26665 -1.2754
-0.201966 0.344375 -1.29643
-0.174801 0.336365 -1.29147
-0.139548 0.338449 -1.29294
-0.201596 0.363459 -1.28681
-0.175522 0.36214 -1.2784
-0.138723 0.362249 -1.28195
-0.95989 -0.66143 -1.22156
-0.92639 -0.663206 -1.21932
-0.875333 -0.663254 -1.21978
-0.83742 -0.663047 -1.21853
-0.77146 -0.660285 -1.21436
-0.72196 -0.663352 -1.21919
-0.675002 -0.664415 -1.22089
-0.624927 -0.664693 -1.22055
-0.574879 -0.664957 -1.22064
-0.525119 -0.664992 -1.22108
-0.475161 -0.665351 -1.22091
-0.424999 -0.665601 -1.22171
-0.374988 -0.666253 -1.22169
-0.324962 -0.666588 -1.22146
-0.275159 -0.666884 -1.22168
-0.225227 -0.667163 -1.2217
-0.174991 -0.668061 -1.22117
-0.125276 -0.668113 -1.22168
-0.0751074 -0.668889 -1.22133
-0.0249608 -0.669208 -1.22148
0.0251945 -0.669841 -1.22151
0.0750281 -0.670343 -1.22136
0.124759 -0.670786 -1.22141
0.174778 -0.671159 -1.22155
0.224916 -0.671971 -1.22142
0.274885 -0.672483 -1.22131
0.325055 -0.673003 -1.22089
0.37502 -0.673608 -1.22087
0.424954 -0.673763 -1.22068
0.475073 -0.673845 -1.22104
0.525046 -0.674281 -1.22065
0.575056 -0.674708 -1.2205
0.624531 -0.674761 -1.2209
0.674746 -0.675592 -1.22028
0.72452 -0.676518 -1.22
0.763368 -0.675055 -1.22287
-0.966526 -0.648496 -1.24438
-0.928305 -0.638941 -1.23592
-0.877895 -0.64142 -1.23933
-0.824593 -0.630979 -1.23148
-0.767691 -0.621687 -1.22111
-0.738959 -0.638989 -1.23102
-0.675234 -0.648664 -1.24783
-0.625612 -0.648539 -1.24744
-0.578553 -0.649152 -1.24775
-0.528161 -0.648707 -1.2482
-0.470746 -0.648895 -1.24739
-0.427768 -0.649304 -1.24836
-0.379039 -0.648787 -1.24793
-0.332087 -0.64981 -1.2468
-0.27628 -0.648133 -1.24857
-0.233013 -0.649687 -1.24848
-0.187765 -0.649635 -1.24895
-0.14564 -0.6487 -1.2487
-0.908211 -0.594423 -1.22697
-0.875427 -0.575572 -1.2273
-0.828684 -0.578419 -1.22273
-0.780828 -0.576556 -1.22255
-0.860008 -0.538816 -1.2285
-0.83825 -0.523005 -1.22222
-0.773485 -0.524533 -1.22422
-0.826287 -0.486771 -1.23039
-0.768045 -0.475414 -1.22786
-0.80278 -0.44494 -1.2326
-0.764418 -0.423836 -1.22261
-0.754176 -0.384781 -1.23456
-0.736002 -0.364512 -1.2281
-0.691436 -0.352188 -1.24915
-0.718613 -0.322635 -1.2315
-0.686229 -0.322605 -1.23659
-0.716693 -0.281523 -1.21365
-0.683089 -0.275952 -1.22039
-0.764255 -0.219465 -1.2443
-0.744655 -0.245155 -1.23065
-0.677661 -0.227768 -1.21107
0.420695 -0.210941 -1.24383
-0.762618 -0.173752 -1.21671
-0.72708 -0.17756 -1.22055
-0.679458 -0.19028 -1.20769
0.417867 -0.173578 -1.22724
0.45076 -0.16471 -1.2347
-0.80111 -0.12211 -1.2455
-0.777535 -0.11413 -1.20895
-0.711897 -0.12177 -1.2242
-0.69897 -0.13295 -1.2074
0.41269 -0.132278 -1.21458
0.462135 -0.110278 -1.22395
-0.82862 -0.063524 -1.2499
-0.79408 -0.078031 -1.2047
-0.718678 -0.0792984 -1.22855
0.404454 -0.0820264 -1.21083
0.470782 -0.0753137 -1.22326
-0.798625 -0.048435 -1.2051
-0.15588 -0.017926 -1.21733
0.413098 -0.0382007 -1.21478
0.484127 -0.00936408 -1.2109
0.48774 0.023215 -1.2012
0.50432 0.04376 -1.2085
-0.826068 0.0745365 -1.22478
0.54158 0.059449 -1.2291
-0.755794 0.130763 -1.2222
-0.723128 0.137503 -1.22101
-0.674492 0.137242 -1.22096
-0.624841 0.136819 -1.22097
-0.57472 0.136999 -1.22098
-0.525099 0.136667 -1.22054
-0.474873 0.136823 -1.22119
-0.424831 0.136491 -1.22106
-0.374914 0.136696 -1.22188
-0.324944 0.136419 -1.22156
-0.274705 0.136386 -1.22184
-0.224881 0.136223 -1.22208
-0.17495 0.136794 -1.22355
-0.125106 0.136413 -1.22351
-0.0748885 0.136584 -1.22392
-0.0249431 0.136269 -1.22352
0.0253364 0.136101 -1.22352
0.0751139 0.136187 -1.22377
0.124864 0.135814 -1.22353
0.175206 0.136277 -1.22497
0.224789 0.135676 -1.22395
0.274918 0.135714 -1.22483
0.324916 0.135598 -1.22438
0.37498 0.135011 -1.22335
0.423781 0.135101 -1.22402
0.452373 0.130367 -1.22037
-0.722329 0.152391 -1.24643
-0.675103 0.152104 -1.2464
-0.625255 0.151544 -1.24647
-0.574111 0.151768 -1.24629
-0.524702 0.151487 -1.2471
-0.476198 0.151301 -1.2467
-0.425118 0.151591 -1.24676
-0.372693 0.151402 -1.24678
-0.322773 0.151307 -1.24761
-0.275716 0.151273 -1.24674
-0.22652 0.151089 -1.24811
-0.174371 0.150998 -1.24806
-0.122844 0.150919 -1.24725
-0.0764213 0.150953 -1.24879
-0.0240705 0.151023 -1.24846
0.0222524 0.151023 -1.24798
0.0709428 0.151033 -1.24819
0.119939 0.151014 -1.24821
0.184937 0.151108 -1.24881
0.216009 0.150803 -1.24844
0.269982 0.150888 -1.24913
0.323412 0.150904 -1.24926
0.35839 0.15087 -1.249
0.422423 0.15083 -1.2487
-0.952418 -0.680005 -1.18927
-0.925205 -0.680812 -1.18693
-0.873961 -0.679547 -1.18473
-0.833238 -0.677541 -1.18132
-0.772999 -0.672442 -1.17638
-0.727804 -0.679404 -1.18486
-0.674791 -0.681926 -1.18783
-0.624794 -0.682027 -1.18776
-0.574532 -0.682093 -1.18767
-0.524913 -0.682467 -1.18826
-0.47495 -0.682606 -1.18857
-0.425138 -0.682905 -1.18912
-0.374856 -0.683141 -1.18921
-0.325021 -0.68359 -1.18964
-0.274645 -0.683656 -1.18984
-0.224372 -0.684174 -1.19043
-0.174616 -0.68422 -1.19018
-0.124947 -0.68466 -1.19098
-0.075665 -0.68507 -1.19132
-0.0254482 -0.685131 -1.1914
0.0247794 -0.685516 -1.19192
0.0747712 -0.685806 -1.1924
0.124755 -0.686132 -1.19273
0.175214 -0.686416 -1.19323
0.224856 -0.686647 -1.19336
0.274832 -0.686968 -1.19375
0.324721 -0.6874 -1.19422
0.375024 -0.68772 -1.19462
0.425151 -0.687673 -1.1945
0.474823 -0.687785 -1.19471
0.525038 -0.688121 -1.19502
0.57451 -0.688253 -1.19517
0.624888 -0.688334 -1.19538
0.674572 -0.688446 -1.19547
0.724799 -0.688856 -1.19603
0.75783 -0.689315 -1.1966
-0.919013 -0.632053 -1.1758
-0.875288 -0.637166 -1.1825
-0.809767 -0.628953 -1.18005
-0.776537 -0.632053 -1.1766
-0.728333 -0.62767 -1.17476
-0.867766 -0.570851 -1.1826
-0.818709 -0.574766 -1.17486
-0.783604 -0.585302 -1.18611
-0.85217 -0.545605 -1.1853
-0.821819 -0.526658 -1.16704
-0.804099 -0.488522 -1.16538
-0.790918 -0.465364 -1.17661
-0.776656 -0.439517 -1.18848
-0.708093 -0.256413 -1.19661
-0.690535 -0.254883 -1.19716
-0.709308 -0.224661 -1.18041
-0.686097 -0.222599 -1.18381
-0.710553 -0.183374 -1.15904
-0.682738 -0.178439 -1.17047
-0.762693 -0.119418 -1.18827
-0.725767 -0.138603 -1.16192
-0.679985 -0.128951 -1.16227
0.420363 -0.115673 -1.19222
-0.773187 -0.0786484 -1.17736
-0.70086 -0.058304 -1.195
-0.681799 -0.0821299 -1.16085
0.417675 -0.0737415 -1.17424
0.45937 -0.065494 -1.1956
-0.780884 -0.0292308 -1.16788
-0.67863 -0.0494265 -1.15445
-0.152055 -0.0158335 -1.158
0.34319 -0.0042508 -1.1545
0.397333 -0.00565953 -1.16097
0.412024 -0.0335259 -1.1641
0.458317 -0.030942 -1.17447
0.471033 0.0212985 -1.16957
-0.77503 0.085834 -1.17495
-0.725342 0.0984747 -1.15364
-0.674556 0.098565 -1.15327
-0.625619 0.0986314 -1.15461
-0.573289 0.0985628 -1.15446
-0.525385 0.098193 -1.15346
-0.475512 0.0981127 -1.15442
-0.424718 0.0982213 -1.15374
-0.37597 0.0980417 -1.15469
-0.325164 0.0977192 -1.15392
-0.275106 0.0979773 -1.1545
-0.224587 0.0978749 -1.15394
-0.175191 0.0976284 -1.15386
-0.124564 0.0979435 -1.15478
-0.0738444 0.0977168 -1.15481
-0.0243733 0.0974803 -1.15457
0.0263296 0.0970884 -1.15492
0.0744069 0.0971925 -1.15537
0.12331 0.0967244 -1.15477
0.176393 0.0963089 -1.15466
0.22268 0.0965427 -1.15541
0.274644 0.0963702 -1.15527
0.323953 0.0965315 -1.15589
0.375127 0.0965978 -1.15658
0.424067 0.0966345 -1.15605
0.458176 0.0953571 -1.16229
0.50714 0.0585185 -1.17455
-0.754886 0.108634 -1.18578
-0.721449 0.112741 -1.17787
-0.674632 0.11255 -1.17795
-0.62477 0.112449 -1.17847
-0.574749 0.112645 -1.17852
-0.524729 0.112331 -1.17852
-0.474902 0.112281 -1.17924
-0.424744 0.112093 -1.17907
-0.37464 0.112093 -1.17868
-0.324693 0.111672 -1.1784
-0.274938 0.111827 -1.17871
-0.224873 0.111544 -1.17875
-0.175185 0.111957 -1.17989
-0.124816 0.111774 -1.18007
-0.0750856 0.11192 -1.18015
-0.0252582 0.111625 -1.18007
0.0241645 0.111314 -1.1799
0.0746985 0.111375 -1.18005
0.125111 0.110823 -1.17944
0.174787 0.111109 -1.18076
0.224887 0.110619 -1.18006
0.27499 0.110684 -1.18054
0.32475 0.110528 -1.18083
0.374637 0.110162 -1.18033
0.424492 0.110057 -1.18044
0.454375 0.108029 -1.1801
0.29005 0.24555 -1.1686
-0.862314 -0.657453 -1.14181
-0.801424 -0.661747 -1.14839
-0.783985 -0.658036 -1.14327
-0.909377 -0.631497 -1.1454
-0.874712 -0.623059 -1.12689
-0.843579 -0.643296 -1.11571
-0.781953 -0.636589 -1.14066
-0.866279 -0.589564 -1.12624
-0.824015 -0.560508 -1.14307
-0.79387 -0.579782 -1.14587
-0.808035 -0.52696 -1.14599
-0.79971 -0.52075 -1.1403
-0.709673 -0.159387 -1.14457
-0.689072 -0.158722 -1.14564
-0.709832 -0.125142 -1.12687
-0.686027 -0.123175 -1.131
-0.75641 -0.059269 -1.1443
-0.713071 -0.0861803 -1.10855
-0.678857 -0.0760596 -1.11948
-0.647299 -0.0646893 -1.11893
-0.761055 -0.00813565 -1.1283
-0.740178 -0.031435 -1.10833
-0.675401 -0.0387605 -1.12396
-0.645283 -0.0293792 -1.1117
-0.51675 -0.0232831 -1.10191
-0.47204 -0.0209595 -1.1018
-0.421534 -0.0185846 -1.10191
-0.372815 -0.0155737 -1.1033
-0.322822 -0.0123255 -1.10427
-0.274717 -0.0102644 -1.10577
-0.225385 -0.00875831 -1.10787
-0.175715 -0.00829484 -1.11166
-0.125182 -0.00763417 -1.11425
-0.0748939 -0.00694282 -1.11699
-0.0254644 -0.00650909 -1.12055
0.0248674 -0.00580395 -1.12293
0.0750047 -0.00528175 -1.12528
0.124632 -0.00483504 -1.12867
0.174774 -0.00420671 -1.13102
0.224453 -0.00363007 -1.13323
0.273667 -0.00340207 -1.13561
0.323369 -0.002697 -1.13769
0.371852 -0.0022001 -1.14071
0.421174 -0.0174582 -1.14096
0.45027 -0.015724 -1.15
-0.330378 0.00145345 -1.10058
-0.267061 0.0035358 -1.10137
-0.221867 0.00535074 -1.10244
-0.173776 0.00817848 -1.10412
-0.123228 0.010481 -1.10592
-0.0741758 0.013417 -1.10743
-0.0246393 0.0155853 -1.10893
0.0250968 0.0168228 -1.11139
0.0749682 0.0177599 -1.1138
0.125116 0.0183641 -1.1166
0.175169 0.0190249 -1.11955
0.225011 0.0196795 -1.12201
0.275 0.0202052 -1.12423
0.324896 0.0209811 -1.12642
0.374897 0.0216166 -1.12919
0.419648 0.0217722 -1.12139
0.461384 0.0360054 -1.12523
-0.758613 0.068818 -1.12397
-0.719721 0.0831824 -1.12489
-0.67473 0.0830737 -1.12478
-0.625001 0.0829974 -1.125
-0.574914 0.083477 -1.12624
-0.524432 0.0829222 -1.12562
-0.474697 0.0826013 -1.12527
-0.424426 0.0822517 -1.12488
-0.374628 0.0814604 -1.12399
-0.325209 0.0816256 -1.12468
-0.274948 0.0820184 -1.12561
-0.225 0.0814548 -1.12486
-0.175235 0.0814989 -1.12518
-0.124912 0.0814943 -1.12509
-0.0747229 0.0810468 -1.12482
-0.0247644 0.0809721 -1.12521
0.0247293 0.0803186 -1.12469
0.0750029 0.0804241 -1.12526
0.124997 0.0798053 -1.12465
0.174677 0.079394 -1.1245
0.225241 0.0794479 -1.12457
0.274226 0.0790723 -1.12395
0.3247 0.0793165 -1.12502
0.374983 0.0789703 -1.12497
0.424697 0.0795126 -1.12527
0.45781 0.0749709 -1.12337
0.48741 0.189405 -1.14705
0.409547 0.317703 -1.11217
-0.86886 -0.60314 -1.0931
-0.82467 -0.63004 -1.0941
-0.8593 -0.59468 -1.0914
-0.710244 -0.0632879 -1.09323
-0.688352 -0.06247 -1.0939
-0.710217 -0.0255808 -1.07478
-0.678959 -0.0210817 -1.07866
-0.624906 -0.0140265 -1.08398
-0.574895 -0.0134601 -1.08634
-0.525259 -0.0128327 -1.08955
-0.474976 -0.01191 -1.09215
-0.425919 -0.0102849 -1.0945
-0.377448 -0.0077777 -1.09649
-0.329777 -0.00581792 -1.0977
-0.279182 -0.00487766 -1.09784
-0.223115 -0.0105291 -1.09444
-0.181625 -0.016143 -1.0992
-0.14121 -0.014753 -1.0789
-0.098678 -0.0139 -1.087
0.14484 -0.0083978 -1.0979
0.19027 -0.0073968 -1.0936
-0.713356 0.0251465 -1.05682
-0.67517 0.018107 -1.0627
-0.624685 0.0190811 -1.0675
-0.574386 0.018868 -1.07026
-0.524732 0.019685 -1.07205
-0.474516 0.0206245 -1.07333
-0.424397 0.0218874 -1.07349
-0.37465 0.0229753 -1.07386
-0.324885 0.0238959 -1.07502
-0.27504 0.0254502 -1.07595
-0.225329 0.0281042 -1.07612
-0.175336 0.03205 -1.07504
-0.125509 0.0343931 -1.07549
-0.0752713 0.0372225 -1.07379
-0.0258267 0.0399511 -1.0711
0.0245102 0.0413182 -1.07177
0.0748536 0.0422976 -1.07352
0.124492 0.0430474 -1.07591
0.17438 0.0436414 -1.07865
0.22396 0.0442657 -1.08102
0.273943 0.044561 -1.08457
0.32388 0.0453058 -1.08708
0.374648 0.0460088 -1.08934
0.424764 0.0461717 -1.09202
0.454018 0.0468674 -1.09381
-0.75258 0.053216 -1.08925
-0.719208 0.0599294 -1.08279
-0.674891 0.0594164 -1.08172
-0.624736 0.0594003 -1.08159
-0.574704 0.0598854 -1.0829
-0.524863 0.0597451 -1.08314
-0.475059 0.0594915 -1.08319
-0.425442 0.0591569 -1.08326
-0.375147 0.0586147 -1.08253
-0.324467 0.0587678 -1.08285
-0.274822 0.0590455 -1.08377
-0.225387 0.0587157 -1.0833
-0.174816 0.0588517 -1.08327
-0.124672 0.0587064 -1.08347
-0.0750209 0.0585196 -1.08357
-0.025539 0.0586362 -1.08411
0.0251306 0.0584751 -1.08409
0.07486 0.058259 -1.08475
0.12512 0.0581209 -1.08464
0.175128 0.0580232 -1.08531
0.224969 0.0577096 -1.08608
0.274776 0.0574384 -1.08647
0.324604 0.0574125 -1.08791
0.37469 0.0572906 -1.0892
0.42492 0.0575842 -1.09096
0.4535 0.057287 -1.09166
-0.57144 -0.025898 -1.0492
-0.711669 0.028195 -1.03824
-0.675309 0.029088 -1.03816
-0.625212 0.030094 -1.0396
-0.575363 0.030882 -1.04196
-0.524728 0.0313628 -1.04393
-0.475541 0.0318538 -1.04556
-0.426828 0.0332603 -1.0467
-0.377247 0.0347517 -1.04784
-0.327432 0.0374774 -1.04781
-0.281525 0.037651 -1.04895
-0.240907 0.0397383 -1.0496
