# .PCD v.7 - Point Cloud Data file format
VERSION .7
FIELDS x y z
SIZE 4 4 4
TYPE F F F
COUNT 1 1 1
WIDTH 46
HEIGHT 1
VIEWPOINT 0 0 0 1 0 0 0
POINTS 46
DATA ascii
-0.0674635 0.178925 -0.0533165
-0.06925 0.182 -0.055026
-0.074958 0.17564 -0.044892
-0.066117 0.17353 -0.047453
-0.078211 0.169 -0.034566
-0.066 0.16808 -0.030916
-0.0748963 0.17186 -0.036388
-0.0759193 0.16419 -0.0239873
-0.065921 0.16586 -0.025022
-0.0091029 0.16988 -0.021457
-0.011633 0.17699 -0.023349
-0.013986 0.184 -0.023739
-0.077179 0.15851 -0.01495
-0.0739767 0.162123 -0.015611
-0.0660235 0.161695 -0.0156795
-0.021158 0.16849 -0.012383
-0.0137715 0.16403 -0.013258
-0.0251547 0.17333 -0.0116473
-0.015198 0.17471 -0.018868
-0.020399 0.1845 -0.014943
-0.016625 0.18375 -0.019735
-0.071284 0.15839 -0.005998
-0.066429 0.15783 -0.0085673
-0.0226 0.15912 -0.003799
-0.022876 0.16406 -0.0078103
-0.0159605 0.16167 -0.00895545
-0.025736 0.17948 -0.0089653
-0.070929 0.03983 0.0085888
-0.06497 0.0455145 0.0078823
-0.0564697 0.0529677 0.0071486
-0.0825 0.074674 0.0071175
-0.068359 0.038502 0.011958
-0.0653707 0.0424843 0.0115613
-0.054844 0.049295 0.011462
-0.06145 0.059165 0.018731
-0.054145 0.054568 0.012257
-0.072702 0.065008 0.018701
-0.0675 0.061479 0.019221
-0.082879 0.076109 0.017794
-0.079222 0.070654 0.017735
-0.087777 0.0861265 0.018777
-0.089333 0.098483 0.01761
-0.053375 0.0548195 0.027761
-0.071037 0.066787 0.025228
-0.06356 0.061816 0.0232127
-0.0772875 0.071921 0.024881
