# .PCD v.7 - Point Cloud Data file format
VERSION .7
FIELDS x y z
SIZE 4 4 4
TYPE F F F
COUNT 1 1 1
WIDTH 1331
HEIGHT 1
VIEWPOINT 0 0 0 1 0 0 0
POINTS 1331
DATA ascii
-1.0935 -0.048516 -1.6355
-1.0558 0.070413 -1.5199
-1.00822 -0.356514 -1.62827
-1.0031 -0.35358 -1.5995
-1.0069 -0.28469 -1.6439
-1.0098 -0.22135 -1.60465
-1.0054 -0.18124 -1.57975
-1.045 -0.12667 -1.6081
-1.0359 -0.065042 -1.5591
-1.0096 -0.079926 -1.52655
-1.01315 -0.0366285 -1.51265
-1.038 0.12824 -1.597
-1.0003 0.12169 -1.5335
-0.991757 -0.355813 -1.61423
-0.98215 -0.353071 -1.58471
-0.974382 -0.34408 -1.61669
-0.974383 -0.341752 -1.57176
-0.958402 -0.343033 -1.53716
-0.97673 -0.25992 -1.5849
-0.99888 -0.23245 -1.5969
-0.9563 -0.22392 -1.53075
-0.99139 -0.1745 -1.558
-0.97565 -0.18318 -1.5372
-0.97724 -0.10677 -1.7008
-0.97451 -0.068789 -1.4712
-0.95297 -0.090535 -1.4422
-0.96823 -0.020712 -1.43837
-0.98065 0.0004406 -1.4374
-0.99613 0.15664 -1.5901
-0.95436 0.22516 -1.642
-0.909377 -0.631497 -1.1454
-0.908211 -0.594423 -1.22697
-0.904617 -0.541207 -1.32715
-0.908504 -0.479215 -1.42999
-0.925706 -0.428856 -1.52989
-0.904668 -0.425742 -1.47788
-0.93251 -0.35675 -1.5546
-0.912755 -0.381792 -1.518
-0.94289 -0.31101 -1.5617
-0.93505 -0.339132 -1.5073
-0.92308 -0.332463 -1.47252
-0.904255 -0.32471 -1.44145
-0.93299 -0.26359 -1.6805
-0.94816 -0.2855 -1.5552
-0.90453 -0.25696 -1.4744
-0.91537 -0.23595 -1.6322
-0.90862 -0.20113 -1.5935
-0.903395 -0.140058 -1.55807
-0.90627 -0.12448 -1.4019
-0.92551 -0.080988 -1.4009
-0.939193 -0.0168234 -1.39203
-0.91384 0.091935 -1.3684
-0.92028 0.11938 -1.42435
-0.90308 0.11463 -1.3929
-0.911255 0.156585 -1.47025
-0.874712 -0.623059 -1.12689
-0.86886 -0.60314 -1.0931
-0.88604 -0.57099 -1.27105
-0.875427 -0.575572 -1.2273
-0.867766 -0.570851 -1.1826
-0.866279 -0.589564 -1.12624
-0.8593 -0.59468 -1.0914
-0.881036 -0.524169 -1.32139
-0.869067 -0.524441 -1.27372
-0.860008 -0.538816 -1.2285
-0.85217 -0.545605 -1.1853
-0.879762 -0.476307 -1.41603
-0.869578 -0.478723 -1.38112
-0.86157 -0.48417 -1.33218
-0.852228 -0.486036 -1.2856
-0.885762 -0.420908 -1.52222
-0.874894 -0.422108 -1.47534
-0.872083 -0.437213 -1.4299
-0.861285 -0.42444 -1.38905
-0.861227 -0.37898 -1.62903
-0.874303 -0.381419 -1.47386
-0.856801 -0.377561 -1.43687
-0.886263 -0.335133 -1.6394
-0.879833 -0.33041 -1.46657
-0.85524 -0.334097 -1.42182
-0.89923 -0.29209 -1.6377
-0.862516 -0.284321 -1.57454
-0.89827 -0.27176 -1.472
-0.86119 -0.295785 -1.4327
-0.86156 -0.21109 -1.5239
-0.876335 -0.238725 -1.4243
-0.88195 -0.18824 -1.5466
-0.870058 -0.176773 -1.37668
-0.888415 -0.139425 -1.3869
-0.854647 -0.1264 -1.32677
-0.89816 -0.098338 -1.5665
-0.87518 -0.079364 -1.5323
-0.865815 -0.0830965 -1.49025
-0.89523 -0.072561 -1.3506
-0.87937 -0.032452 -1.3147
-0.85079 0.00038352 -1.2512
-0.88778 0.088214 -1.32933
-0.8863 0.14062 -1.413
-0.863303 0.136433 -1.37607
-0.8668 0.10573 -1.3323
-0.85095 0.18953 -1.4461
-0.89206 0.32189 -1.7136
-0.843579 -0.643296 -1.11571
-0.82467 -0.63004 -1.0941
-0.828684 -0.578419 -1.22273
-0.818709 -0.574766 -1.17486
-0.824015 -0.560508 -1.14307
-0.847667 -0.516763 -1.35963
-0.828251 -0.5264 -1.32334
-0.819428 -0.525052 -1.26248
-0.83825 -0.523005 -1.22222
-0.821819 -0.526658 -1.16704
-0.808035 -0.52696 -1.14599
-0.80189 -0.46539 -1.4402
-0.838757 -0.477943 -1.36828
-0.824287 -0.474535 -1.32418
-0.836812 -0.475288 -1.28079
-0.826287 -0.486771 -1.23039
-0.804099 -0.488522 -1.16538
-0.820105 -0.44169 -1.45365
-0.834043 -0.414062 -1.42598
-0.834212 -0.42399 -1.37627
-0.811022 -0.414344 -1.32878
-0.80519 -0.44408 -1.2537
-0.80278 -0.44494 -1.2326
-0.81562 -0.37711 -1.55513
-0.806325 -0.36582 -1.5309
-0.838185 -0.382772 -1.41803
-0.822335 -0.379555 -1.3831
-0.806839 -0.376364 -1.32626
-0.80328 -0.39732 -1.296
-0.83523 -0.333245 -1.55555
-0.80061 -0.3043 -1.4741
-0.838823 -0.321793 -1.40427
-0.819489 -0.336398 -1.37309
-0.80626 -0.33632 -1.33365
-0.82866 -0.291073 -1.5178
-0.80878 -0.29312 -1.48355
-0.830002 -0.276562 -1.37465
-0.8004 -0.28532 -1.3351
-0.805 -0.23847 -1.4541
-0.81795 -0.20532 -1.4498
-0.817742 -0.226513 -1.32827
-0.81333 -0.163715 -1.4169
-0.810165 -0.179802 -1.28985
-0.81352 -0.13879 -1.4016
-0.81765 -0.10171 -1.3966
-0.82877 -0.14698 -1.3003
-0.81802 -0.13572 -1.2798
-0.80111 -0.12211 -1.2455
-0.84624 -0.0843615 -1.4748
-0.82163 -0.09668 -1.4039
-0.8459 -0.075196 -1.2799
-0.82862 -0.063524 -1.2499
-0.826068 0.0745365 -1.22477
-0.817325 0.14417 -1.32835
-0.831964 0.182852 -1.40926
-0.83429 0.163155 -1.3792
-0.81486 0.23804 -1.473
-0.822217 0.206013 -1.43197
-0.805605 0.28432 -1.53085
-0.838535 0.34344 -1.6758
-0.81971 0.33547 -1.6368
-0.805598 0.31357 -1.57958
-0.80098 0.3552 -1.6416
-0.80575 0.41797 -1.7462
-0.781953 -0.636589 -1.14066
-0.780828 -0.576556 -1.22255
-0.783604 -0.585302 -1.18611
-0.79387 -0.579782 -1.14587
-0.787894 -0.521854 -1.26568
-0.773485 -0.524533 -1.22422
-0.79971 -0.52075 -1.1403
-0.782003 -0.486633 -1.42088
-0.764208 -0.462493 -1.38075
-0.782649 -0.467724 -1.2667
-0.768046 -0.475414 -1.22786
-0.790918 -0.465364 -1.17661
-0.77013 -0.41538 -1.5099
-0.759977 -0.42359 -1.48711
-0.779237 -0.435637 -1.38943
-0.78531 -0.417018 -1.3132
-0.78072 -0.425851 -1.26627
-0.764419 -0.423836 -1.22261
-0.776656 -0.439517 -1.18848
-0.790318 -0.382725 -1.5208
-0.77289 -0.361972 -1.47227
-0.75723 -0.356355 -1.4434
-0.784027 -0.382338 -1.36252
-0.781382 -0.37657 -1.32323
-0.760741 -0.377005 -1.26261
-0.754176 -0.384781 -1.23456
-0.781767 -0.326528 -1.46288
-0.76849 -0.31082 -1.4264
-0.787455 -0.331849 -1.31898
-0.758666 -0.327273 -1.27654
-0.77796 -0.25038 -1.4115
-0.754855 -0.256465 -1.37395
-0.78744 -0.28193 -1.3128
-0.7966 -0.2469 -1.4423
-0.758642 -0.225448 -1.36782
-0.795615 -0.247805 -1.30955
-0.777796 -0.222762 -1.26916
-0.764255 -0.219465 -1.2443
-0.7754 -0.183543 -1.36745
-0.75724 -0.168105 -1.32495
-0.762618 -0.173752 -1.21671
-0.79093 -0.1401 -1.36635
-0.77374 -0.1166 -1.3281
-0.777535 -0.11413 -1.20895
-0.762693 -0.119418 -1.18827
-0.78346 -0.084462 -1.3676
-0.760013 -0.0722237 -1.3264
-0.79408 -0.078031 -1.2047
-0.773187 -0.0786484 -1.17736
-0.75641 -0.059269 -1.1443
-0.798625 -0.048435 -1.2051
-0.780884 -0.0292308 -1.16788
-0.761055 -0.00813565 -1.1283
-0.77503 0.085834 -1.17495
-0.758613 0.068818 -1.12397
-0.75258 0.053216 -1.08925
-0.79546 0.14965 -1.3051
-0.78764 0.14019 -1.2792
-0.755794 0.130762 -1.2222
-0.754886 0.108634 -1.18578
-0.78935 0.19918 -1.3767
-0.75725 0.189428 -1.31931
-0.754329 0.165979 -1.2773
-0.760863 0.242511 -1.40945
-0.756193 0.225889 -1.37723
-0.753527 0.20612 -1.34163
-0.762132 0.29761 -1.50406
-0.758472 0.282881 -1.47462
-0.756067 0.259993 -1.43357
-0.761203 0.337691 -1.56934
-0.757381 0.313715 -1.52708
-0.762539 0.392556 -1.66109
-0.762943 0.371068 -1.62587
-0.758976 0.352904 -1.59416
-0.78674 0.412745 -1.7139
-0.76304 0.404134 -1.68253
-0.708016 -0.517906 -1.34036
-0.712642 -0.466035 -1.42801
-0.744425 -0.482175 -1.3635
-0.708799 -0.474824 -1.3177
-0.734187 -0.440731 -1.46046
-0.729791 -0.428846 -1.43346
-0.707093 -0.418501 -1.37974
-0.715998 -0.441438 -1.30636
-0.708287 -0.421159 -1.28724
-0.74774 -0.39539 -1.4598
-0.746313 -0.360017 -1.43267
-0.705154 -0.377112 -1.367
-0.715102 -0.374196 -1.26257
-0.736002 -0.364512 -1.2281
-0.741815 -0.343935 -1.4052
-0.731657 -0.337747 -1.38173
-0.709247 -0.322169 -1.33361
-0.742201 -0.332547 -1.25907
-0.718613 -0.322635 -1.2315
-0.73343 -0.28625 -1.3558
-0.716463 -0.274419 -1.31754
-0.73759 -0.290408 -1.26368
-0.716692 -0.281523 -1.21365
-0.708093 -0.256413 -1.19661
-0.735265 -0.224095 -1.32725
-0.70453 -0.21426 -1.2666
-0.744655 -0.245155 -1.23065
-0.709308 -0.224661 -1.18041
-0.741554 -0.18186 -1.31064
-0.726588 -0.17514 -1.28
-0.72708 -0.17756 -1.22055
-0.710553 -0.183374 -1.15904
-0.709673 -0.159387 -1.14457
-0.74064 -0.11671 -1.2696
-0.711897 -0.12177 -1.2242
-0.725767 -0.138603 -1.16192
-0.709832 -0.125142 -1.12687
-0.73563 -0.0734025 -1.2711
-0.718678 -0.0792984 -1.22855
-0.70086 -0.058304 -1.195
-0.713071 -0.0861803 -1.10855
-0.710244 -0.0632879 -1.09323
-0.716067 -0.0430939 -1.81757
-0.71494 -0.044516 -1.76805
-0.740178 -0.031435 -1.10833
-0.710217 -0.0255808 -1.07478
-0.713356 0.0251465 -1.05682
-0.711669 0.028195 -1.03824
-0.725342 0.0984747 -1.15364
-0.719721 0.0831824 -1.12489
-0.719208 0.0599294 -1.08279
-0.723128 0.137503 -1.22101
-0.721449 0.112741 -1.17787
-0.72446 0.191796 -1.31573
-0.724154 0.168659 -1.27541
-0.722329 0.152391 -1.24643
-0.726471 0.245233 -1.40742
-0.724349 0.226199 -1.37482
-0.724707 0.206243 -1.34075
-0.730611 0.29889 -1.50102
-0.725004 0.283868 -1.4739
-0.724818 0.259839 -1.4323
-0.724317 0.338 -1.5683
-0.724732 0.313598 -1.52646
-0.725192 0.392773 -1.66133
-0.72481 0.371042 -1.62484
-0.72459 0.352787 -1.59346
-0.72322 0.42783 -1.7657
-0.729714 0.415116 -1.71742
-0.724709 0.403902 -1.68105
-0.68666 -0.515146 -1.34157
-0.69991 -0.46119 -1.4034
-0.681823 -0.479466 -1.36352
-0.683693 -0.473401 -1.32385
-0.69635 -0.445305 -1.40675
-0.68581 -0.422801 -1.36486
-0.679517 -0.430219 -1.31532
-0.686479 -0.419175 -1.28928
-0.678998 -0.385643 -1.31292
-0.682615 -0.373124 -1.27392
-0.691436 -0.352188 -1.24915
-0.694876 -0.318348 -1.31146
-0.676751 -0.329729 -1.2699
-0.686229 -0.322605 -1.23659
-0.680256 -0.288207 -1.26007
-0.68309 -0.275952 -1.22039
-0.690535 -0.254883 -1.19716
-0.69888 -0.22356 -1.2639
-0.677661 -0.227768 -1.21107
-0.686097 -0.222599 -1.18381
-0.679458 -0.19028 -1.20769
-0.682738 -0.178439 -1.17047
-0.689072 -0.158722 -1.14564
-0.69897 -0.13295 -1.2074
-0.679985 -0.128951 -1.16227
-0.686028 -0.123175 -1.131
-0.681799 -0.0821299 -1.16085
-0.678857 -0.0760596 -1.11948
-0.688353 -0.06247 -1.0939
-0.691777 -0.0438953 -1.81792
-0.67863 -0.0494265 -1.15445
-0.675401 -0.0387605 -1.12397
-0.678959 -0.0210817 -1.07866
-0.67517 0.018107 -1.0627
-0.675309 0.029088 -1.03816
-0.674556 0.098565 -1.15327
-0.674729 0.0830737 -1.12478
-0.674891 0.0594164 -1.08172
-0.674492 0.137242 -1.22096
-0.674631 0.11255 -1.17795
-0.67454 0.191205 -1.31508
-0.674768 0.167966 -1.27401
-0.675103 0.152104 -1.2464
-0.67551 0.244937 -1.4075
-0.674587 0.225587 -1.37405
-0.674778 0.205822 -1.34035
-0.67562 0.298503 -1.50159
-0.67511 0.283556 -1.4738
-0.675072 0.259971 -1.43283
-0.674209 0.338357 -1.56928
-0.67454 0.313198 -1.52607
-0.674324 0.392636 -1.66143
-0.675503 0.371242 -1.62524
-0.674262 0.353236 -1.59421
-0.672524 0.415954 -1.7167
-0.675067 0.404276 -1.68143
-0.647299 -0.0646893 -1.11893
-0.645283 -0.0293792 -1.1117
-0.624906 -0.0140265 -1.08398
-0.624684 0.0190811 -1.0675
-0.625212 0.030094 -1.0396
-0.625619 0.0986314 -1.15461
-0.625001 0.0829974 -1.125
-0.624736 0.0594003 -1.08159
-0.624841 0.136819 -1.22097
-0.62477 0.112449 -1.17847
-0.625564 0.19111 -1.31498
-0.624483 0.167439 -1.27355
-0.625255 0.151544 -1.24647
-0.624541 0.245052 -1.40851
-0.624838 0.225656 -1.37458
-0.625067 0.205671 -1.33993
-0.62653 0.29949 -1.50217
-0.624723 0.283855 -1.47458
-0.625402 0.259504 -1.43259
-0.624295 0.337974 -1.56926
-0.625022 0.313158 -1.52682
-0.624031 0.392643 -1.66119
-0.625086 0.370831 -1.62482
-0.625978 0.35296 -1.59443
-0.639783 0.433143 -1.78047
-0.626458 0.419133 -1.72631
-0.623912 0.404727 -1.68219
-0.574895 -0.0134601 -1.08634
-0.57144 -0.025898 -1.0492
-0.574386 0.0188679 -1.07026
-0.575363 0.0308821 -1.04196
-0.573289 0.0985628 -1.15446
-0.574914 0.0834771 -1.12624
-0.574704 0.0598854 -1.0829
-0.57472 0.136999 -1.22098
-0.574749 0.112645 -1.17852
-0.57597 0.191304 -1.31533
-0.574909 0.167881 -1.27456
-0.574111 0.151768 -1.24629
-0.574852 0.245088 -1.40889
-0.574998 0.225497 -1.37451
-0.574373 0.205729 -1.34005
-0.578757 0.29877 -1.50157
-0.574432 0.282972 -1.4734
-0.575165 0.259504 -1.43293
-0.574458 0.337847 -1.56929
-0.574756 0.313242 -1.52726
-0.574892 0.392785 -1.66207
-0.575005 0.370238 -1.62417
-0.573857 0.352623 -1.59423
-0.577547 0.419123 -1.72283
-0.574077 0.406262 -1.68504
-0.51675 -0.0232831 -1.10191
-0.525259 -0.0128327 -1.08955
-0.524732 0.019685 -1.07205
-0.524728 0.0313628 -1.04392
-0.525385 0.098193 -1.15346
-0.524432 0.0829222 -1.12562
-0.524863 0.0597451 -1.08314
-0.525099 0.136667 -1.22054
-0.524729 0.112331 -1.17852
-0.524757 0.19082 -1.31469
-0.525208 0.167383 -1.27447
-0.524701 0.151487 -1.2471
-0.524914 0.245103 -1.40898
-0.525579 0.225312 -1.37428
-0.524394 0.205501 -1.34036
-0.524914 0.298541 -1.50201
-0.524434 0.282893 -1.47361
-0.525176 0.25947 -1.43339
-0.525219 0.337838 -1.56998
-0.524739 0.312708 -1.5266
-0.524323 0.392463 -1.66191
-0.525186 0.369845 -1.62387
-0.523896 0.352432 -1.59431
-0.53324 0.44118 -1.80645
-0.52643 0.43779 -1.79255
-0.524171 0.415676 -1.70866
-0.524136 0.406103 -1.68467
-0.47204 -0.0209595 -1.1018
-0.474976 -0.01191 -1.09215
-0.474516 0.0206245 -1.07333
-0.475541 0.0318538 -1.04556
-0.475512 0.0981127 -1.15442
-0.474697 0.0826013 -1.12527
-0.475059 0.0594915 -1.08319
-0.474873 0.136823 -1.22119
-0.474902 0.112281 -1.17924
-0.474571 0.191146 -1.31533
-0.474769 0.167181 -1.27396
-0.476198 0.151301 -1.2467
-0.475338 0.245032 -1.4093
-0.475215 0.225398 -1.37502
-0.475368 0.2057 -1.34014
-0.472358 0.298392 -1.50206
-0.474873 0.282819 -1.47423
-0.475108 0.259267 -1.43363
-0.474875 0.338118 -1.57052
-0.475027 0.312902 -1.52718
-0.47409 0.392245 -1.66179
-0.475506 0.369721 -1.62404
-0.473995 0.352722 -1.59563
-0.471122 0.415537 -1.70257
-0.474286 0.407049 -1.68606
-0.421534 -0.0185846 -1.10191
-0.425919 -0.0102849 -1.0945
-0.424397 0.0218874 -1.07349
-0.426828 0.0332603 -1.0467
-0.424718 0.0982213 -1.15374
-0.424426 0.0822518 -1.12488
-0.425442 0.0591569 -1.08326
-0.424831 0.136491 -1.22106
-0.424744 0.112093 -1.17907
-0.425094 0.191134 -1.31574
-0.424928 0.167528 -1.27467
-0.425118 0.151591 -1.24676
-0.424702 0.244805 -1.40929
-0.425457 0.224869 -1.3742
-0.423786 0.205635 -1.34056
-0.422018 0.298303 -1.5024
-0.425303 0.282994 -1.47464
-0.424982 0.259476 -1.43406
-0.424674 0.337496 -1.56999
-0.425409 0.312257 -1.52622
-0.42573 0.392912 -1.66292
-0.42452 0.370273 -1.62533
-0.425002 0.352572 -1.59506
-0.42647 0.44501 -1.8152
-0.428717 0.430873 -1.75753
-0.424353 0.417054 -1.70662
-0.424488 0.407091 -1.68663
-0.43802 0.45345 -1.8496
-0.372815 -0.0155737 -1.1033
-0.377448 -0.00777771 -1.09649
-0.37465 0.0229753 -1.07386
-0.377247 0.0347517 -1.04784
-0.37597 0.0980417 -1.15469
-0.374628 0.0814604 -1.12399
-0.375147 0.0586147 -1.08253
-0.374914 0.136696 -1.22188
-0.37464 0.112093 -1.17868
-0.375058 0.190745 -1.31529
-0.375144 0.167279 -1.27458
-0.372693 0.151402 -1.24678
-0.37556 0.24476 -1.40984
-0.374848 0.224842 -1.37462
-0.374402 0.205385 -1.3407
-0.373776 0.29861 -1.5035
-0.375389 0.28228 -1.47386
-0.374726 0.259132 -1.43411
-0.375223 0.337401 -1.56988
-0.374759 0.312458 -1.52753
-0.375453 0.392381 -1.66235
-0.374994 0.369587 -1.62451
-0.374091 0.352463 -1.59526
-0.37618 0.43312 -1.76665
-0.374787 0.418297 -1.70837
-0.374521 0.407676 -1.68738
-0.35293 0.45823 -1.8622
-0.322822 -0.0123255 -1.10427
-0.329777 -0.00581792 -1.0977
-0.330378 0.00145345 -1.10058
-0.324885 0.0238959 -1.07502
-0.327432 0.0374774 -1.04781
-0.325164 0.0977192 -1.15392
-0.325209 0.0816256 -1.12468
-0.324467 0.0587678 -1.08285
-0.324944 0.136419 -1.22156
-0.324693 0.111672 -1.1784
-0.324817 0.190734 -1.31548
-0.325169 0.167015 -1.2744
-0.322773 0.151307 -1.24761
-0.324624 0.244604 -1.40982
-0.325026 0.224278 -1.3739
-0.324418 0.205139 -1.34061
-0.327434 0.298196 -1.50309
-0.32464 0.282217 -1.47388
-0.325053 0.25942 -1.43496
-0.325066 0.337346 -1.57053
-0.324864 0.312101 -1.52702
-0.324502 0.392737 -1.66301
-0.325115 0.370045 -1.62544
-0.325409 0.352703 -1.59576
-0.32613 0.4497 -1.8275
-0.328402 0.43884 -1.78335
-0.32005 0.418792 -1.70876
-0.32582 0.408037 -1.68841
-0.3449 0.45005 -1.829
-0.274717 -0.0102644 -1.10577
-0.279182 -0.00487766 -1.09784
-0.267061 0.0035358 -1.10137
-0.275041 0.0254502 -1.07595
-0.281525 0.037651 -1.04895
-0.275106 0.0979773 -1.1545
-0.274948 0.0820184 -1.1256
-0.274823 0.0590455 -1.08377
-0.274705 0.136386 -1.22184
-0.274938 0.111827 -1.17871
-0.275195 0.19036 -1.3154
-0.274661 0.166905 -1.27502
-0.275716 0.151273 -1.24674
-0.274607 0.244365 -1.41013
-0.274768 0.223989 -1.37378
-0.275778 0.205032 -1.34098
-0.27555 0.298365 -1.50283
-0.274798 0.282216 -1.47436
-0.275418 0.259246 -1.43532
-0.275602 0.337817 -1.57136
-0.274733 0.312625 -1.52778
-0.275444 0.392409 -1.66303
-0.27479 0.369742 -1.62506
-0.274989 0.352828 -1.59633
-0.25031 0.44579 -1.805
-0.273543 0.41875 -1.70701
-0.27595 0.407766 -1.68779
-0.20475 -0.054029 -1.7627
-0.21153 -0.037492 -1.912
-0.225385 -0.00875831 -1.10787
-0.223115 -0.0105291 -1.09444
-0.221867 0.00535074 -1.10244
-0.225329 0.0281042 -1.07612
-0.240907 0.0397383 -1.0496
-0.224587 0.0978749 -1.15394
-0.225 0.0814549 -1.12486
-0.225387 0.0587157 -1.0833
-0.224881 0.136223 -1.22208
-0.224873 0.111544 -1.17875
-0.224517 0.190317 -1.31593
-0.225254 0.16627 -1.27448
-0.22652 0.151089 -1.24811
-0.228798 0.244344 -1.41019
-0.224405 0.224639 -1.37273
-0.223637 0.206387 -1.34109
-0.233366 0.298326 -1.50301
-0.232424 0.282149 -1.47404
-0.230232 0.259244 -1.43512
-0.20311 0.253936 -1.35574
-0.201603 0.27795 -1.33302
-0.238475 0.337296 -1.57065
-0.234423 0.31265 -1.52662
-0.218041 0.326517 -1.48969
-0.211127 0.319896 -1.41026
-0.20697 0.31632 -1.36233
-0.202183 0.321989 -1.3138
-0.201966 0.344375 -1.29643
-0.242737 0.391571 -1.66146
-0.240896 0.368413 -1.62256
-0.239409 0.352891 -1.59655
-0.213635 0.394425 -1.3806
-0.207635 0.377568 -1.3184
-0.201596 0.363459 -1.28681
-0.24868 0.43205 -1.7558
-0.245215 0.41813 -1.70396
-0.244071 0.407463 -1.68686
-0.23082 0.44341 -1.5498
-0.21696 0.4069 -1.4289
-0.2164 0.4001 -1.3975
-0.24369 0.48213 -1.6858
-0.23689 0.461285 -1.6141
-0.19978 -0.053026 -1.7299
-0.19186 -0.050524 -1.6483
-0.19247 -0.040645 -1.61745
-0.18976 -0.0417995 -1.5374
-0.179085 -0.0419855 -1.4639
-0.175435 -0.0381865 -1.4051
-0.172685 -0.0347198 -1.3783
-0.169603 -0.0311453 -1.31498
-0.161964 -0.0220893 -1.28688
-0.15588 -0.017926 -1.21733
-0.152055 -0.0158335 -1.158
-0.175715 -0.00829484 -1.11166
-0.181625 -0.016143 -1.0992
-0.173776 0.00817848 -1.10412
-0.175336 0.03205 -1.07504
-0.175191 0.0976284 -1.15386
-0.175235 0.0814989 -1.12518
-0.174817 0.0588517 -1.08327
-0.17495 0.136794 -1.22355
-0.175185 0.111957 -1.17989
-0.174709 0.190066 -1.31682
-0.175286 0.165794 -1.27387
-0.174371 0.150998 -1.24806
-0.174961 0.218114 -1.3551
-0.174074 0.231043 -1.34241
-0.17503 0.27506 -1.32335
-0.175442 0.311329 -1.30502
-0.174801 0.336365 -1.29147
-0.175522 0.36214 -1.2784
-0.125182 -0.00763418 -1.11425
-0.14121 -0.014753 -1.0789
-0.123229 0.010481 -1.10592
-0.125509 0.0343931 -1.07549
-0.124564 0.0979435 -1.15478
-0.124912 0.0814943 -1.12509
-0.124672 0.0587064 -1.08347
-0.125106 0.136413 -1.22351
-0.124816 0.111774 -1.18007
-0.125092 0.190419 -1.31707
-0.12515 0.166294 -1.2752
-0.122844 0.150919 -1.24725
-0.113883 0.243739 -1.40992
-0.125526 0.222652 -1.36556
-0.132901 0.225071 -1.3436
-0.113012 0.29813 -1.50342
-0.115112 0.281801 -1.47422
-0.114132 0.258719 -1.43539
-0.127543 0.273991 -1.3629
-0.138925 0.275447 -1.32626
-0.1161 0.337592 -1.57111
-0.115723 0.312593 -1.52871
-0.129353 0.345223 -1.42307
-0.128222 0.3198 -1.38142
-0.138105 0.314406 -1.30666
-0.139548 0.338449 -1.29294
-0.117285 0.392175 -1.66232
-0.116896 0.368987 -1.62433
-0.119529 0.355495 -1.59622
-0.1321 0.38199 -1.5297
-0.130685 0.3668 -1.47367
-0.12906 0.3506 -1.40925
-0.126171 0.390876 -1.36382
-0.127298 0.379341 -1.324
-0.138723 0.362249 -1.28195
-0.12921 0.435527 -1.76347
-0.117363 0.420039 -1.71015
-0.118577 0.407898 -1.68746
-0.12821 0.44924 -1.5666
-0.128295 0.417905 -1.4606
-0.12742 0.40755 -1.4235
-0.139395 0.469645 -1.81477
-0.131567 0.493372 -1.72052
-0.130641 0.481204 -1.67809
-0.13045 0.464074 -1.61996
-0.12861 0.45447 -1.5849
-0.137795 0.528495 -1.8636
-0.133676 0.521081 -1.81714
-0.132677 0.507947 -1.7714
-0.13209 0.50022 -1.7444
-0.0748939 -0.00694282 -1.11699
-0.098678 -0.0139 -1.087
-0.0741758 0.013417 -1.10743
-0.0752713 0.0372225 -1.0738
-0.0738444 0.0977168 -1.15481
-0.0747229 0.0810468 -1.12482
-0.0750209 0.0585196 -1.08357
-0.050217 0.14969 -1.2502
-0.0748885 0.136584 -1.22392
-0.0750856 0.11192 -1.18015
-0.0753888 0.190349 -1.31709
-0.0748027 0.166192 -1.27535
-0.0764213 0.150953 -1.24879
-0.0745607 0.243956 -1.40975
-0.0755787 0.223477 -1.37444
-0.0743522 0.204596 -1.34177
-0.0764322 0.298241 -1.50394
-0.0750713 0.28158 -1.47371
-0.0755765 0.258951 -1.43556
-0.0754345 0.337678 -1.57166
-0.0752492 0.312432 -1.5285
-0.0755514 0.392286 -1.66349
-0.0755792 0.369235 -1.62498
-0.0750906 0.352832 -1.59713
-0.07065 0.438965 -1.77095
-0.0758065 0.420973 -1.7113
-0.0755293 0.407768 -1.68867
-0.090866 0.46074 -1.8588
-0.0254645 -0.00650909 -1.12055
-0.0246393 0.0155853 -1.10893
-0.0258267 0.0399511 -1.0711
-0.0243733 0.0974803 -1.15457
-0.0247644 0.0809721 -1.12521
-0.025539 0.0586362 -1.08411
-0.024943 0.136269 -1.22352
-0.0252582 0.111625 -1.18007
-0.0248799 0.190256 -1.31707
-0.025077 0.165969 -1.27492
-0.0240705 0.151023 -1.24846
-0.0253291 0.2439 -1.41011
-0.0250425 0.222874 -1.37334
-0.0248806 0.204445 -1.3416
-0.0258164 0.29824 -1.50337
-0.025121 0.28171 -1.47436
-0.0243824 0.258669 -1.43544
-0.0248479 0.337522 -1.57154
-0.0251962 0.312546 -1.52883
-0.02467 0.392025 -1.66318
-0.02538 0.36874 -1.62432
-0.0238161 0.352729 -1.59692
-0.00579193 0.441223 -1.77353
-0.024751 0.42132 -1.71172
-0.0255589 0.407408 -1.68818
-0.008769 0.45504 -1.8291
0.0248674 -0.00580395 -1.12293
0.0250968 0.0168228 -1.11139
0.0245102 0.0413182 -1.07177
0.0263296 0.0970884 -1.15492
0.0247293 0.0803186 -1.12469
0.0251306 0.0584751 -1.08409
0.0253365 0.136101 -1.22352
0.0241645 0.111314 -1.1799
0.0251758 0.189882 -1.3165
0.0250225 0.165495 -1.27452
0.0222524 0.151023 -1.24798
0.0254168 0.243925 -1.40995
0.0248906 0.223313 -1.3745
0.0246188 0.204524 -1.34196
0.0231471 0.298179 -1.50316
0.0252109 0.281887 -1.47479
0.0250889 0.258875 -1.43578
0.0250521 0.337572 -1.57203
0.0248051 0.312455 -1.52889
0.0246002 0.392449 -1.66396
0.0247987 0.368953 -1.62481
0.0279922 0.352375 -1.59648
0.0459033 0.436883 -1.7561
0.0249832 0.42207 -1.71236
0.0241486 0.407645 -1.68858
0.0750047 -0.00528175 -1.12528
0.0749682 0.0177598 -1.1138
0.0748536 0.0422976 -1.07352
0.074407 0.0971926 -1.15537
0.075003 0.0804241 -1.12526
0.07486 0.058259 -1.08475
0.075114 0.136187 -1.22377
0.0746985 0.111375 -1.18005
0.0747746 0.189893 -1.31701
0.0750909 0.165575 -1.27479
0.0709428 0.151033 -1.24818
0.0748232 0.243641 -1.41012
0.0744734 0.222668 -1.37348
0.0758049 0.204379 -1.34229
0.0737158 0.298206 -1.50399
0.0753307 0.281347 -1.4743
0.075165 0.258523 -1.43558
0.0748964 0.337805 -1.5723
0.0748886 0.312656 -1.52909
0.075174 0.392237 -1.66348
0.0748135 0.368765 -1.62469
0.0761968 0.352688 -1.59785
0.0747081 0.422595 -1.71392
0.0747569 0.407434 -1.68813
0.124632 -0.00483504 -1.12867
0.14484 -0.0083978 -1.0979
0.125115 0.0183641 -1.1166
0.124492 0.0430474 -1.07591
0.12331 0.0967244 -1.15477
0.124997 0.0798053 -1.12465
0.12512 0.0581209 -1.08464
0.124864 0.135814 -1.22353
0.125111 0.110823 -1.17944
0.1249 0.189754 -1.31666
0.125107 0.165147 -1.27458
0.119939 0.151014 -1.24821
0.125152 0.24391 -1.41072
0.124726 0.223286 -1.37454
0.124968 0.204702 -1.34282
0.124881 0.298066 -1.50417
0.125303 0.28102 -1.47396
0.124512 0.258378 -1.43562
0.124751 0.337265 -1.57177
0.124904 0.312216 -1.52873
0.125223 0.392003 -1.66301
0.124991 0.368588 -1.62463
0.125887 0.35248 -1.59756
0.116197 0.440607 -1.76437
0.126305 0.423194 -1.71507
0.124286 0.407368 -1.68865
0.11768 0.45815 -1.8346
0.174774 -0.00420671 -1.13102
0.19027 -0.0073968 -1.0936
0.175169 0.019025 -1.11955
0.17438 0.0436414 -1.07865
0.176392 0.0963089 -1.15466
0.174677 0.0793939 -1.1245
0.175128 0.0580232 -1.08531
0.175206 0.136277 -1.22497
0.174787 0.111109 -1.18076
0.175103 0.189895 -1.31675
0.174674 0.16532 -1.27479
0.184937 0.151108 -1.24881
0.174552 0.243695 -1.41064
0.17493 0.222869 -1.37443
0.174867 0.204488 -1.34241
0.175533 0.298159 -1.50412
0.174635 0.281028 -1.47391
0.175198 0.258443 -1.43602
0.174911 0.33739 -1.57214
0.175104 0.312546 -1.52951
0.175801 0.391783 -1.6627
0.174678 0.368448 -1.62404
0.17476 0.352367 -1.59721
0.16697 0.440633 -1.76447
0.175618 0.4234 -1.7149
0.174887 0.407485 -1.68842
0.224454 -0.00363007 -1.13323
0.225011 0.0196795 -1.12201
0.223961 0.0442657 -1.08102
0.22268 0.0965427 -1.15541
0.225241 0.0794479 -1.12457
0.224969 0.0577096 -1.08608
0.224788 0.135676 -1.22395
0.224887 0.110619 -1.18006
0.224861 0.189763 -1.31681
0.225001 0.165269 -1.27489
0.216009 0.150803 -1.24844
0.225146 0.243532 -1.41066
0.224832 0.222601 -1.37387
0.225428 0.204176 -1.34257
0.224571 0.298093 -1.5042
0.224942 0.280986 -1.47401
0.22457 0.258285 -1.43608
0.224897 0.337335 -1.57217
0.225295 0.312312 -1.52883
0.225161 0.392093 -1.66359
0.225227 0.36834 -1.62404
0.223165 0.351912 -1.59669
0.20417 0.44153 -1.7617
0.225334 0.425 -1.71684
0.22443 0.407563 -1.68833
0.273667 -0.00340207 -1.13561
0.275 0.0202052 -1.12423
0.273943 0.044561 -1.08457
0.274644 0.0963702 -1.15527
0.274226 0.0790723 -1.12395
0.274776 0.0574384 -1.08647
0.26493 0.14973 -1.25045
0.274918 0.135714 -1.22483
0.27499 0.110684 -1.18054
0.274893 0.189803 -1.31728
0.274708 0.165379 -1.27537
0.269982 0.150888 -1.24913
0.274087 0.243267 -1.41032
0.275412 0.222458 -1.37391
0.274528 0.204132 -1.34175
0.29005 0.24555 -1.1686
0.273442 0.29808 -1.50427
0.274909 0.280829 -1.47398
0.274907 0.257982 -1.4358
0.274776 0.337746 -1.57222
0.275019 0.312703 -1.5294
0.274582 0.392074 -1.66328
0.275069 0.36861 -1.6245
0.274604 0.352738 -1.59767
0.27591 0.426044 -1.71875
0.272678 0.407571 -1.68856
0.3411 -0.0191495 -1.8672
0.34785 -0.018108 -1.85
0.34319 -0.0042508 -1.1545
0.323369 -0.002697 -1.13769
0.324896 0.0209811 -1.12642
0.32388 0.0453058 -1.08708
0.323954 0.0965315 -1.15589
0.3247 0.0793165 -1.12502
0.324604 0.0574125 -1.08791
0.326787 0.14977 -1.2508
0.324916 0.135598 -1.22438
0.32475 0.110528 -1.18083
0.324913 0.189586 -1.31717
0.324738 0.164919 -1.27465
0.323413 0.150904 -1.24926
0.32524 0.24351 -1.41094
0.32511 0.222816 -1.37443
0.324111 0.20434 -1.34255
0.322584 0.298118 -1.50364
0.325249 0.281344 -1.47481
0.324102 0.257987 -1.43561
0.3301 0.26665 -1.2754
0.324694 0.337469 -1.57159
0.325104 0.312464 -1.52885
0.3444 0.33018 -1.4158
0.33576 0.3288 -1.3974
0.324777 0.391861 -1.66313
0.324704 0.368647 -1.62414
0.326167 0.352483 -1.59671
0.325667 0.426149 -1.71893
0.324573 0.407764 -1.69022
0.399711 -0.48486 -1.42464
0.39967 -0.446 -1.4088
0.399692 -0.422202 -1.39175
0.3998 -0.387598 -1.37196
0.399843 -0.33699 -1.34277
0.370256 -0.0185416 -1.86869
0.377735 -0.0169505 -1.83675
0.397333 -0.00565953 -1.16097
0.371852 -0.0022001 -1.14071
0.374897 0.0216166 -1.12919
0.374648 0.0460088 -1.08934
0.375127 0.0965978 -1.15658
0.374983 0.0789702 -1.12497
0.37469 0.0572906 -1.0892
0.361908 0.149788 -1.25094
0.37498 0.135011 -1.22335
0.374637 0.110162 -1.18033
0.374397 0.189599 -1.31724
0.375425 0.164836 -1.27464
0.35839 0.15087 -1.249
0.374641 0.243668 -1.41059
0.375402 0.222582 -1.37412
0.373809 0.204029 -1.34226
0.373081 0.298298 -1.50425
0.375034 0.281068 -1.47403
0.375196 0.258496 -1.43609
0.35785 0.27673 -1.3369
0.374912 0.337378 -1.57125
0.374798 0.312294 -1.52815
0.39984 0.30399 -1.4613
0.35502 0.3342 -1.4394
0.374666 0.392027 -1.66281
0.375035 0.368823 -1.62408
0.371973 0.354039 -1.59613
0.375139 0.426823 -1.71957
0.374981 0.407242 -1.68823
0.41646 -0.474604 -1.46844
0.410009 -0.48297 -1.41346
0.418663 -0.467492 -1.38906
0.44805 -0.42858 -1.5099
0.43074 -0.43188 -1.4748
0.40405 -0.435812 -1.41153
0.415634 -0.423902 -1.36901
0.419109 -0.40133 -1.34933
0.443767 -0.3752 -1.46787
0.420832 -0.381467 -1.42345
0.403297 -0.378795 -1.3645
0.418403 -0.373048 -1.3361
0.433578 -0.326602 -1.41825
0.405391 -0.338179 -1.36019
0.415062 -0.327519 -1.31715
0.419368 -0.306685 -1.29706
0.44367 -0.279305 -1.4136
0.42911 -0.27936 -1.3812
0.403047 -0.279694 -1.31374
0.418189 -0.273532 -1.28143
0.43104 -0.229143 -1.3569
0.407843 -0.235223 -1.31048
0.413529 -0.230575 -1.26526
0.420695 -0.210941 -1.24383
0.4499 -0.17647 -1.365
0.43087 -0.174588 -1.32676
0.403604 -0.181585 -1.26152
0.417867 -0.173578 -1.22724
0.444218 -0.130095 -1.3303
0.413167 -0.132529 -1.26502
0.41269 -0.132278 -1.21458
0.420363 -0.115674 -1.19221
0.42695 -0.0813907 -1.26725
0.404454 -0.0820264 -1.21083
0.417676 -0.0737415 -1.17424
0.437765 -0.0387775 -1.26525
0.413098 -0.0382007 -1.21478
0.412023 -0.0335259 -1.1641
0.421174 -0.0174582 -1.14096
0.419648 0.0217722 -1.12139
0.424764 0.0461717 -1.09202
0.424067 0.0966345 -1.15605
0.424697 0.0795126 -1.12527
0.42492 0.0575842 -1.09096
0.44754 0.1493 -1.25225
0.42378 0.135101 -1.22402
0.424492 0.110057 -1.18044
0.423891 0.189473 -1.31685
0.42441 0.164905 -1.27529
0.422423 0.15083 -1.2487
0.420274 0.243583 -1.41055
0.421815 0.222038 -1.37307
0.424119 0.204161 -1.34264
0.415897 0.29846 -1.50383
0.418124 0.281941 -1.47482
0.419011 0.258751 -1.43583
0.414509 0.337603 -1.57072
0.416829 0.312255 -1.52752
0.42192 0.3043 -1.4921
0.409547 0.317703 -1.11217
0.411226 0.3924 -1.66346
0.413472 0.369419 -1.62408
0.416608 0.353218 -1.59456
0.410367 0.427315 -1.72009
0.412371 0.407926 -1.68862
0.46507 -0.467638 -1.43263
0.462902 -0.426838 -1.53887
0.495485 -0.439845 -1.4738
0.474095 -0.419793 -1.42202
0.45725 -0.41141 -1.38607
0.48973 -0.37238 -1.5654
0.475423 -0.377133 -1.53497
0.47936 -0.37515 -1.47305
0.49326 -0.37348 -1.42935
0.46231 -0.380399 -1.37777
0.452135 -0.362295 -1.3483
0.490192 -0.322094 -1.53482
0.457075 -0.329105 -1.47045
0.49653 -0.34565 -1.4214
0.48227 -0.329458 -1.38643
0.457166 -0.320402 -1.3326
0.475883 -0.264965 -1.47295
0.461363 -0.262427 -1.44027
0.492437 -0.28791 -1.38037
0.465782 -0.276972 -1.3231
0.45697 -0.25743 -1.2995
0.48491 -0.214445 -1.4616
0.462544 -0.22493 -1.42118
0.475068 -0.225737 -1.31322
0.458272 -0.229557 -1.28467
0.48779 -0.19926 -1.4609
0.487365 -0.166705 -1.44195
0.45421 -0.15716 -1.3654
0.492317 -0.17698 -1.3157
0.468876 -0.165994 -1.26787
0.45076 -0.16471 -1.2347
0.48409 -0.116455 -1.4065
0.47431 -0.11681 -1.385
0.451375 -0.12408 -1.34255
0.489456 -0.115493 -1.27874
0.462135 -0.110277 -1.22395
0.470432 -0.0871293 -1.36032
0.458383 -0.0658543 -1.3242
0.470782 -0.0753137 -1.22326
0.45937 -0.065494 -1.1956
0.46005 -0.012822 -1.31
0.45236 -0.02345 -1.28855
0.484127 -0.00936408 -1.2109
0.458317 -0.030942 -1.17447
0.45027 -0.015724 -1.15
0.48774 0.023215 -1.2012
0.471033 0.0212985 -1.16957
0.461384 0.0360054 -1.12523
0.454018 0.0468674 -1.09381
0.458176 0.0953571 -1.16229
0.45781 0.0749709 -1.12337
0.4535 0.057287 -1.09166
0.45069 0.14856 -1.2513
0.452373 0.130367 -1.22038
0.454375 0.108029 -1.1801
0.451147 0.153707 -1.2617
0.48741 0.189405 -1.14705
0.54605 -0.430013 -1.5606
0.525857 -0.426593 -1.52047
0.50554 -0.42458 -1.4817
0.519297 -0.380487 -1.63127
0.54511 -0.39759 -1.5407
0.520403 -0.37456 -1.48217
0.54391 -0.34814 -1.6611
0.511133 -0.320132 -1.5801
0.54773 -0.33174 -1.5079
0.53932 -0.323455 -1.4876
0.50381 -0.318365 -1.41925
0.50532 -0.27847 -1.5432
0.54389 -0.284945 -1.4737
0.525563 -0.27322 -1.4318
0.51127 -0.25023 -1.3952
0.50283 -0.2351 -1.51345
0.53458 -0.228843 -1.42453
0.51667 -0.22348 -1.3881
0.54036 -0.18236 -1.5564
0.51929 -0.168275 -1.50725
0.50386 -0.17094 -1.47875
0.520827 -0.16804 -1.36367
0.50032 -0.19817 -1.3415
0.53113 -0.12511 -1.5089
0.52502 -0.125095 -1.49245
0.5351 -0.13071 -1.37117
0.50222 -0.11842 -1.3027
0.50799 -0.062567 -1.4265
0.507643 -0.0524913 -1.27827
0.50223 -0.031754 -1.3981
0.539917 -0.0318909 -1.32617
0.520813 -0.0159463 -1.2831
0.54283 0.02257 -1.301
0.52983 0.0252883 -1.27549
0.50432 0.04376 -1.2085
0.54158 0.059449 -1.2291
0.50714 0.0585185 -1.17455
0.52228 0.38157 -1.3306
0.5639 -0.40481 -1.5754
0.58892 -0.379615 -1.6101
0.574327 -0.375777 -1.57973
0.55194 -0.36399 -1.5301
0.586207 -0.318513 -1.73573
0.56555 -0.32858 -1.6945
0.58876 -0.34783 -1.5887
0.5711 -0.293745 -1.69085
0.55993 -0.2959 -1.5095
0.59395 -0.23908 -1.7071
0.57672 -0.233577 -1.66803
0.55269 -0.24815 -1.6247
0.591365 -0.21647 -1.52275
0.55711 -0.24331 -1.4753
0.56512 -0.17712 -1.6092
0.597335 -0.19183 -1.51975
0.57211 -0.15554 -1.4528
0.556235 -0.167055 -1.4313
0.553595 -0.14709 -1.56625
0.5512 -0.13607 -1.4023
0.59309 -0.08956 -1.61965
0.553875 -0.0651045 -1.52085
0.55279 -0.0425575 -1.51005
0.595047 -0.0199831 -1.41833
0.56253 -0.0462515 -1.3739
0.55285 -0.019663 -1.3389
0.59304 0.0018248 -1.4025
0.580028 0.024614 -1.3658
0.555527 0.0193958 -1.32553
0.59103 0.09603 -1.3648
0.59265 0.062545 -1.3209
0.56393 0.052593 -1.2767
0.58664 0.105073 -1.37657
0.58573 0.34001 -1.4852
0.634533 -0.385219 -1.63169
0.64285 -0.339045 -1.68425
0.61262 -0.341803 -1.63087
0.608183 -0.281403 -1.75977
0.63355 -0.266165 -1.62825
0.606817 -0.283953 -1.58813
0.62404 -0.24489 -1.7679
0.61522 -0.24273 -1.5774
0.60081 -0.20229 -1.5284
0.6338 -0.18395 -1.7511
0.61622 -0.19084 -1.7186
0.64014 -0.188705 -1.5903
0.60664 -0.15614 -1.5151
0.63771 -0.14007 -1.5594
0.63145 -0.090847 -1.5211
0.60579 -0.078834 -1.4674
0.642363 -0.0582503 -1.40793
0.6478 -0.0130385 -1.50535
0.638541 -0.0152996 -1.461
0.643651 -0.0210639 -1.4421
0.640946 0.0150668 -1.46152
0.630209 0.0137798 -1.44031
0.646563 0.0507637 -1.45733
0.640176 0.052985 -1.43362
0.610232 0.0803392 -1.36638
0.679254 -0.364303 -1.66198
0.672374 -0.371295 -1.62104
0.66692 -0.326807 -1.72205
0.694533 -0.348633 -1.6526
0.693489 -0.348533 -1.64569
0.676283 -0.277617 -1.70987
0.69049 -0.22246 -1.7072
0.67751 -0.23359 -1.6863
0.6652 -0.19063 -1.627
0.678017 -0.123163 -1.62413
0.660745 -0.06991 -1.56275
0.69453 -0.0582515 -1.5037
0.686058 -0.0569824 -1.4799
0.685363 -0.0570151 -1.41655
0.693952 -0.060392 -1.39782
0.663423 -0.027151 -1.7291
0.677497 -0.046704 -1.50663
0.660868 -0.0364636 -1.46288
0.674203 -0.0259076 -1.42596
0.692464 -0.0477409 -1.3968
0.68468 0.0480687 -1.50228
0.674507 0.0269298 -1.47084
0.678099 0.00532108 -1.44338
0.69612 0.0660003 -1.50571
0.675543 0.0551379 -1.48041
0.6595 0.057911 -1.4408
0.69463 0.11953 -1.5658
0.674887 0.122113 -1.53943
0.67601 0.142395 -1.38155
0.68364 0.38604 -1.6779
0.718203 -0.359394 -1.66148
0.721217 -0.361803 -1.63677
0.731455 -0.343494 -1.66837
0.732812 -0.346163 -1.64273
0.71187 -0.1211 -1.6851
0.71441 -0.0763305 -1.6664
0.717605 -0.0694445 -1.50613
0.727552 -0.0735572 -1.48342
0.715984 -0.0691466 -1.4094
0.73112 -0.0647581 -1.38935
0.722435 -0.0214035 -1.41603
0.729744 -0.0421247 -1.39408
0.730656 0.044153 -1.50736
0.723897 0.0250127 -1.47373
0.723318 0.0054557 -1.44133
0.741841 0.0836968 -1.56625
0.727541 0.0598192 -1.52685
0.745444 0.135964 -1.66094
0.739512 0.122133 -1.62326
0.727362 0.107669 -1.58741
0.70015 0.10174 -1.5364
0.70639 0.15419 -1.6523
0.767779 -0.358226 -1.65858
0.753646 -0.35559 -1.64883
0.775015 -0.332392 -1.66693
0.754103 -0.343333 -1.6464
0.79915 -0.10027 -1.4774
0.78745 -0.097218 -1.501
0.773723 -0.0910525 -1.47469
0.777504 -0.0912467 -1.43292
0.757405 -0.0715262 -1.38083
0.769245 -0.0138284 -1.41866
0.760572 -0.0376357 -1.39158
0.77519 0.0416151 -1.51573
0.774375 0.0190299 -1.47478
0.769131 0.00359033 -1.44484
0.782751 0.0966986 -1.60541
0.775579 0.0787551 -1.57495
0.773416 0.0570104 -1.53945
0.76851 0.14368 -1.704
0.776804 0.140451 -1.6657
0.774349 0.116735 -1.62795
0.753917 0.102667 -1.59697
0.78882 0.15705 -1.7006
0.784009 0.152424 -1.68637
0.79311 0.284805 -1.66275
0.794312 0.355547 -1.63385
0.8022 -0.32608 -1.66805
0.82998 -0.10233 -1.5554
0.827399 -0.10566 -1.51266
0.813051 -0.103278 -1.46842
0.813535 -0.10195 -1.44865
0.804515 -0.099344 -1.522
0.805952 -0.0986318 -1.44478
0.80683 -0.00144835 -1.44623
0.84548 0.048458 -1.55195
0.825802 0.0370842 -1.52241
0.816252 0.0152484 -1.47952
0.808975 0.00318665 -1.4481
0.826032 0.0937833 -1.61024
0.825494 0.0713553 -1.57546
0.814514 0.0545383 -1.54453
0.824574 0.133909 -1.66585
0.825037 0.111341 -1.63457
0.808147 0.151668 -1.68745
0.835474 0.23798 -1.66004
0.82097 0.283027 -1.66107
0.842393 0.289955 -1.64444
0.814509 0.320672 -1.65666
0.830236 0.329357 -1.64155
0.810603 0.35318 -1.65436
0.830568 0.373991 -1.63319
0.838459 0.416109 -1.61968
0.82097 0.44152 -1.5857
0.844248 0.454726 -1.60788
0.83827 0.4532 -1.5995
0.891393 -0.155055 -1.63498
0.888463 -0.128436 -1.62877
0.87701 -0.112534 -1.5761
0.85479 -0.11164 -1.5126
0.869214 0.0487671 -1.55473
0.860924 0.0398185 -1.53369
0.878479 0.0904947 -1.61511
0.873418 0.0665058 -1.57789
0.860855 0.051407 -1.5481
0.863407 0.121381 -1.6531
0.871335 0.108152 -1.63582
0.86158 0.22532 -1.6431
0.860614 0.290679 -1.63573
0.859859 0.329562 -1.62883
0.859697 0.375678 -1.61906
0.89851 0.38922 -1.5937
0.858569 0.417961 -1.60947
0.872482 0.429114 -1.5967
0.92736 -0.409731 -1.56628
0.927457 -0.391368 -1.57106
0.905798 -0.155614 -1.62565
0.91109 -0.133383 -1.61485
0.910025 -0.11872 -1.5975
0.914031 0.0889241 -1.61483
0.907323 0.072115 -1.59044
0.908483 0.102667 -1.62869
