# .PCD v.7 - Point Cloud Data file format
VERSION .7
FIELDS x y z
SIZE 4 4 4
TYPE F F F
COUNT 1 1 1
WIDTH 1023
HEIGHT 1
VIEWPOINT 0 0 0 1 0 0 0
POINTS 1023
DATA ascii
0.552212 1.40798 81.7307
0.123184 11.7308 0
0.334637 11.0474 47.2638
0.0778765 18.1825 99.2289
0.259503 27.6878 86.9618
0.90304 32.519 0
0.948543 35.0712 6.2157
0.518486 50.1516 63.1615
0.907241 53.9985 82.0493
0.27109 76.0228 12.5529
0.53 81.7072 97.5316
1.09958 14.0019 14.5517
1.30945 21.2681 66.6902
1.80754 23.7249 49.8955
1.13536 40.5202 47.3974
1.82425 41.0397 69.9992
1.83676 49.8888 0
1.97105 59.5049 11.3068
1.78619 62.622 0
1.22031 64.1148 60.2458
1.65878 71.115 51.6972
1.83907 82.2584 91.5156
1.73798 95.1812 0
2.53507 18.4334 96.3022
2.44008 46.1943 87.1398
2.30226 70.7239 65.4854
2.08611 71.9202 0
2.93944 72.5258 0
2.4316 76.8554 64.9018
3.73482 3.88347 82.4375
3.43885 17.3365 91.0227
3.67319 18.6438 95.7698
3.41878 26.975 0
3.42281 26.8064 83.2348
3.30507 27.8646 35.1621
3.59423 32.8153 47.0942
3.75968 47.9876 48.4984
3.38792 91.4846 31.8358
3.13133 96.9585 84.3862
4.11835 16.7483 0
4.36038 17.7111 99.4605
4.77161 24.7731 57.0377
4.6966 35.3871 17.4621
4.68965 35.8163 27.5986
4.36617 49.8196 0
4.07541 52.6403 0
4.10675 79.5186 40.4833
4.80946 84.1829 78.3699
4.07751 85.8359 59.4984
4.5742 85.2415 87.2821
4.54464 91.5254 28.8154
4.43767 95.5652 85.3672
4.58613 98.0033 62.4598
5.34853 1.08376 95.8956
5.16968 3.93435 0
5.63755 7.53591 86.6075
5.81936 17.3294 91.6062
5.16817 19.438 53.6041
5.80836 45.9249 86.7514
5.79205 62.0916 8.39475
5.56535 89.6765 84.3891
5.64116 96.991 72.4779
6.56262 2.21235 82.3298
6.93613 21.4589 10.977
6.91328 49.2278 0
6.71754 55.4178 41.1196
6.53563 57.2428 32.2137
7.24163 51.7712 0
7.54346 52.3098 17.4553
7.09409 70.1967 40.2816
7.59334 81.9102 8.69877
7.05687 94.3892 64.5995
7.55034 94.6115 75.5714
8.25085 3.32031 0
8.02338 5.16355 52.9266
8.27987 9.0337 60.7121
8.15265 19.9542 0
8.85556 31.6156 0
8.53497 53.507 99.6906
8.87025 54.8715 12.943
8.67052 54.1901 95.8589
8.0873 83.598 43.4031
8.28913 86.8599 53.3086
8.84082 87.6654 79.39
8.414 93.5635 17.0012
8.27484 93.2729 87.7895
9.4157 4.07288 31.8299
9.54101 6.35583 37.711
9.52615 16.3524 0
9.17041 29.3211 60.6417
9.14868 45.7432 87.8686
9.36748 50.8814 37.4039
9.4443 61.8254 68.6177
9.78342 76.3364 49.67
9.11645 77.6597 0
9.22906 79.941 48.6334
9.94414 80.5315 25.074
9.73934 87.075 0
10.7891 20.1719 4.11149
10.4869 26.9243 74.0031
10.9468 38.4327 39.7714
10.2194 45.1387 85.5668
10.3309 50.7235 0
10.2213 56.5133 91.9563
10.5834 61.8611 70.2001
10.6756 62.0133 34.2303
10.4247 93.4367 84.2035
10.2792 98.6663 0
11.0891 2.54191 44.4943
11.3558 2.21847 67.4857
11.6073 9.17991 5.55426
11.3465 9.12061 93.162
11.9865 26.9412 34.4239
11.0052 27.2132 23.5656
11.6898 43.1528 94.0434
11.8818 76.7195 12.6351
11.4238 86.8468 57.0119
11.7067 96.8652 15.1562
11.9594 97.1712 71.6112
12.0165 1.43935 34.8461
12.2811 11.3238 24.3547
12.2777 18.1435 87.768
12.0339 23.067 5.64759
12.7061 32.6651 52.7021
12.769 37.2018 25.7516
12.85 45.8253 81.3092
12.9515 47.6677 88.9861
12.8748 50.3417 33.6799
12.2971 53.117 0
12.8046 58.4766 16.0384
12.422 70.6476 0
12.887 81.9947 34.1768
13.9494 4.66657 29.9223
13.3852 27.3407 2.35352
13.9356 64.5054 83.6581
13.9772 82.7941 79.7315
13.3185 91.0927 8.54384
13.2745 97.5852 96.9841
14.9581 1.16205 0
14.3128 3.35324 21.2499
14.5922 24.2045 0
14.7739 25.2437 14.1786
14.0924 29.6273 80.4175
14.5757 43.0888 0
14.7073 45.9347 92.7322
15.1058 3.13023 43.8011
15.9246 18.5526 0
15.8938 27.3627 47.3854
15.4672 33.4244 62.7099
15.0417 37.6739 59.8189
15.6437 44.2352 25.774
15.5042 54.2645 98.2022
15.3658 77.0922 0
15.2539 77.1247 58.0525
16.076 0.112011 81.9787
16.4834 2.6367 41.7143
16.0825 6.42089 0
16.5267 7.45506 2.548
16.8935 34.5083 28.5804
16.3624 52.7024 79.6861
16.1673 55.5364 0
16.3999 73.159 0
16.6731 79.4025 87.9843
16.3656 82.5133 17.2623
16.1221 88.0468 93.0401
17.6528 38.4091 22.8281
17.744 42.3471 75.3109
17.3202 46.4674 43.9513
17.533 47.4174 2.69895
17.232 60.1935 20.0366
17.4193 86.8272 0
17.8545 88.746 65.6219
18.6321 12.4663 83.9116
18.8707 33.903 28.6083
18.1928 33.4363 86.3168
18.657 41.651 89.3633
18.4463 50.2195 30.66
18.3405 61.7482 31.12
18.3435 73.1994 78.1894
18.5459 79.6537 0
18.6405 81.4575 24.3335
18.001 93.3875 0
19.5243 23.0185 72.5228
19.3133 28.7038 9.32572
19.9507 50.761 73.8885
19.5983 52.0834 5.4775
19.0688 62.4976 4.61842
19.6113 67.1893 51.0453
19.8842 70.6857 71.4229
19.2599 92.4396 12.4129
20.0359 3.11341 0
20.5045 12.9159 25.8928
20.5078 18.7044 96.8314
20.6684 19.5791 28.1222
20.7228 22.8643 87.9438
20.3578 25.7683 0
20.9349 53.6591 37.6767
20.8919 61.5007 67.4432
20.9131 63.3401 58.3853
20.0859 68.9465 0
20.9906 79.9782 89.9074
20.7886 84.8128 3.62669
20.3701 86.8623 0
20.6334 89.4217 37.0627
20.9072 92.4694 54.6034
21.1448 8.92043 33.4222
21.035 70.2465 0
21.2728 75.2374 94.6733
21.2964 90.3151 14.5008
21.9511 94.8453 97.4802
21.5821 96.5252 62.6662
22.3849 4.08686 82.3573
22.0561 7.21984 0
22.5333 15.2859 37.1703
22.4269 17.5925 71.5057
22.1972 25.3889 23.8764
22.3596 43.6336 96.359
22.4701 45.2199 0
22.554 49.1595 0
22.9025 62.4238 54.7421
22.855 65.9984 18.3205
22.8625 74.3508 90.9614
22.077 83.9947 9.15572
22.8798 94.2854 8.62101
23.7227 0.753437 11.0765
23.5792 13.1568 0
23.4674 23.605 0
23.2213 35.5362 90.0579
23.1672 40.158 94.3304
23.7028 45.379 0
23.9787 54.9227 10.2935
23.0009 56.0677 12.9361
23.3608 58.9109 5.16723
23.0894 68.4233 24.8615
23.1131 93.6606 0
23.7506 96.2173 40.6221
24.8226 17.6387 58.1856
24.7348 24.1085 45.6039
24.0146 34.1563 8.51047
24.754 43.0306 0
24.5958 48.781 16.9075
24.241 52.984 12.3688
24.399 58.9871 97.328
24.9292 60.4417 41.6279
24.8489 77.8572 74.6507
24.5286 85.0582 16.5767
24.9668 90.3364 49.4531
24.4126 94.291 17.6608
24.1852 99.6254 10.2172
25.6016 1.81102 72.8835
25.8244 6.6236 46.4544
25.4641 13.8825 68.4688
25.2528 16.7042 0
25.9804 37.6695 63.7666
25.6068 49.3796 5.00293
25.7903 49.0749 17.9179
25.4225 51.5596 0
25.4164 51.833 30.2338
25.0731 60.0517 63.6767
25.1782 69.6304 50.2276
25.6207 86.7072 61.5399
25.3915 96.2447 25.4407
26.9911 3.11831 54.4444
26.5938 7.77346 36.6742
26.2264 16.2014 59.9127
26.0233 39.6242 52.0095
26.6781 60.9564 97.6849
26.3684 90.0019 27.3833
27.7266 1.78739 91.1236
27.7381 16.968 19.624
27.0832 43.3521 44.4582
27.4215 44.2299 98.4138
27.7587 63.2264 22.7896
27.9979 83.8583 77.1798
27.956 91.4864 88.4659
27.1687 98.4083 40.4305
28.8631 8.72902 58.5426
28.3921 16.0808 31.231
28.1391 40.8453 26.0123
28.3343 76.1028 2.82434
28.5095 80.5865 18.164
28.6541 83.8934 59.4925
28.3855 91.2363 0
28.484 99.774 4.65181
29.4168 3.25262 0
29.4494 45.4541 99.5873
29.8836 70.9061 0
29.4045 77.5528 71.6919
30.4781 0.695213 17.3009
30.4614 1.59663 10.6695
30.0964 16.6378 71.109
30.3266 36.0191 54.1712
30.5697 38.5098 19.9002
30.1378 53.9781 75.0133
30.8061 56.8309 54.7115
30.7777 85.2181 81.8222
31.2855 3.3946 12.9317
31.4597 9.15821 80.9356
31.8976 38.5397 84.6427
31.1952 40.9334 0
31.1444 51.8838 23.5122
31.4356 56.3276 51.3485
31.0982 66.8841 33.1931
31.2148 96.9412 0
32.6541 8.84925 57.474
32.2095 13.2716 0
32.54 17.8823 74.9026
32.3203 21.8764 52.3603
32.5925 26.8993 0
32.361 37.1834 49.3757
32.8665 55.3703 67.5793
32.3131 63.912 0
32.9051 65.5242 93.2274
32.5959 67.7564 22.8039
32.3679 71.0952 43.1182
32.0743 89.4099 0
32.2686 89.1143 5.29668
32.9017 97.5865 0
33.6554 7.11886 65.9165
33.3499 11.4267 40.4187
33.5197 20.558 80.4825
33.5866 25.9423 82.6856
33.637 42.1357 52.7294
33.6604 45.4268 14.3071
33.0889 51.9774 0
33.3709 60.1115 15.1438
33.0349 60.5775 93.4355
33.2816 62.7708 73.3244
33.4906 69.3718 14.7879
33.9271 79.9916 57.3749
33.4009 83.7013 24.6303
33.2315 99.6334 0
34.4384 7.51378 35.8025
34.2082 10.2916 82.3045
34.8868 10.6699 93.0234
34.7619 17.701 4.14866
34.9387 20.514 47.3549
34.6017 55.9649 0
34.2653 66.6864 0
34.921 70.0358 72.8696
34.1066 73.5216 12.2339
34.5696 82.6799 18.9782
35.5973 15.8646 76.0268
35.9251 16.7619 0
35.9151 21.0662 0
35.3352 22.9395 58.782
35.4622 29.7003 29.4367
35.6298 31.8003 90.776
35.4905 31.9314 95.7233
35.7801 39.6923 0
35.6097 49.8248 98.665
35.0588 60.8088 59.4018
35.8466 65.1077 12.471
35.6732 66.3805 0
35.6753 96.5255 28.8125
36.363 6.48922 97.2064
36.9654 23.7638 24.9738
36.6469 64.9633 74.6729
36.2394 78.0496 58.4782
36.3082 89.9647 64.9458
37.2689 0.508214 26.7156
37.7259 1.82218 4.85735
37.4613 1.53045 62.9601
37.9359 3.66714 0
37.9306 5.47616 74.6807
37.9229 6.64963 92.7185
37.2283 10.1472 94.0732
37.7284 18.2284 2.98705
37.3309 27.2302 27.8037
37.8773 28.3776 34.4072
37.9692 36.3059 59.4392
37.4871 47.7715 29.2855
37.7726 47.2067 83.8199
37.5583 57.8865 10.3042
37.4435 60.6715 7.82323
37.0159 74.7719 2.5302
37.6463 77.7602 81.2448
37.454 79.6543 95.1207
37.7729 90.2553 53.8984
37.2849 97.1395 0
38.9618 32.005 30.4659
38.6735 51.7751 93.7363
38.817 57.3367 64.6855
38.3847 62.2967 0
38.8677 74.732 27.8636
38.9296 83.7079 29.5807
38.4202 90.1158 73.973
38.3964 93.9068 93.3264
39.4882 19.8716 30.0553
39.9046 25.8133 0
39.1061 25.878 19.0414
39.117 26.56 28.023
39.1482 38.3891 53.6539
39.5545 47.9939 0
39.5515 48.6669 0
39.7318 74.996 43.2521
39.6652 82.186 89.2978
39.515 89.4827 92.7392
39.666 96.9821 0
39.7379 98.663 0
40.7985 2.7096 55.6205
40.0301 13.8827 70.0691
40.255 25.7888 22.5843
40.6392 29.3148 33.075
40.5021 44.5305 0
40.0763 49.7012 56.4044
40.3483 58.9956 14.2675
40.3261 68.0228 0
40.8734 80.075 3.51325
40.531 90.9033 0
41.84 3.06525 0
41.8771 40.4382 38.9307
41.4505 53.7396 86.4883
41.1354 54.0635 70.2517
41.6639 72.572 58.5351
41.5907 74.2707 0
41.1207 81.3795 60.6754
41.3031 85.4385 0
41.9727 85.736 64.2141
42.4131 7.73211 73.908
42.3597 46.2006 29.505
42.5214 48.4778 3.22446
42.5156 52.0068 21.5862
42.8184 55.2765 96.6988
42.1704 98.4402 14.0953
43.1945 2.30624 29.8317
43.8607 8.163 0
43.7475 9.10021 90.5117
43.7165 24.7231 0
43.3247 31.0362 0
43.7193 35.5673 91.6359
43.4827 45.9682 25.3938
43.4452 49.2625 26.1145
43.8745 50.272 58.1711
43.166 56.4459 13.6304
43.8474 57.828 67.5306
43.3655 65.8708 0
43.9135 71.3782 38.3175
43.4394 79.4811 35.6578
43.6127 86.1068 30.1521
44.5833 15.5995 10.8975
44.2024 16.9758 0
44.9434 24.8714 0
44.8778 33.7003 0
44.6006 52.1301 19.3282
44.6369 58.5354 0
44.8424 65.1961 99.4513
44.0153 68.3264 13.0818
44.1032 72.4767 41.0441
44.153 73.7036 88.8827
45.0499 6.50516 2.31323
45.7265 8.53475 84.3603
45.607 9.06064 78.7324
45.5144 31.91 52.721
45.3289 52.7648 52.9146
45.3241 69.8162 4.19928
45.6535 80.3672 22.6256
45.3694 84.4783 0
45.2439 91.2749 14.9448
46.8693 3.68219 42.0671
46.6763 4.64504 86.1341
46.4599 7.24469 0
46.57 34.6953 48.6029
46.2097 48.1522 0
46.5813 63.156 0
47.9582 8.69203 58.8358
47.0183 33.6896 0
47.605 39.6649 66.7034
47.1532 47.321 0
47.0301 63.2306 98.3589
47.397 67.9102 36.1553
47.1065 79.9855 19.0286
47.9279 87.1784 0
47.9897 96.5119 0
48.0046 2.87827 42.633
48.1062 7.69532 88.6148
48.4398 8.01148 0
48.528 16.9493 37.896
48.6357 22.9251 41.4866
48.483 22.2108 69.5512
48.114 32.0642 53.7264
48.9453 44.7783 98.5794
48.2521 57.3438 49.8095
48.2356 61.8156 0
48.0904 64.3578 0
48.7431 98.5367 89.5607
48.037 98.7276 98.5433
49.6037 11.8165 69.5961
49.8368 16.5513 42.4736
49.9193 28.0772 57.6284
49.2618 34.7413 33.5464
49.8165 52.0308 48.1449
49.5876 53.2603 9.02357
49.3277 65.0326 0
49.3981 87.6766 75.7089
49.5147 88.2906 48.5781
49.6366 95.5236 60.0874
49.442 97.4248 6.69832
50.4845 4.01092 0
50.5889 10.0795 61.534
50.6104 15.4363 93.2694
50.8199 18.6518 69.8855
50.7468 25.8688 1.6322
50.2679 41.1037 6.0964
50.5252 49.6561 82.8193
50.2637 64.5103 58.1135
51.3326 8.48377 24.0896
51.5174 17.8036 97.5786
51.2615 18.0977 0
51.2458 26.8677 74.427
51.399 45.091 78.5816
51.6636 52.9651 26.8221
51.0747 53.4089 42.3237
51.3996 57.8675 0
51.6079 59.2408 90.7449
51.5236 66.7558 97.3379
51.63 71.4595 32.9727
51.1657 87.3579 16.5408
51.826 92.7752 60.1301
51.4234 98.3231 59.649
52.9662 11.7751 81.6904
52.173 48.8847 0
52.4775 61.1853 40.5862
52.2733 71.0663 43.3266
52.569 90.0572 17.9963
52.7701 92.4643 99.3035
53.2113 3.04722 11.61
53.6974 3.48652 59.701
53.4242 8.78665 0
53.9906 11.192 0
53.5336 11.9762 24.0884
53.6481 11.0632 38.5033
53.7263 12.888 46.5518
53.6096 27.9764 31.6432
53.2617 39.7164 25.0046
53.4456 44.0763 48.6277
53.4424 46.0779 36.2432
53.1266 46.2535 72.3311
53.3512 47.4631 0
53.5037 57.1613 48.1853
53.7107 73.6823 59.0973
53.9841 75.5551 21.1031
53.0354 76.1024 0
53.9692 82.8737 59.0884
54.8603 6.3375 55.3433
54.3553 6.66191 90.7407
54.5916 35.0915 70.8773
54.1267 43.2241 96.3362
54.8734 48.5614 69.4976
54.671 56.77 19.3006
54.1634 69.8846 63.7143
54.5617 82.0639 94.205
54.3301 86.7031 0
54.3233 96.8193 0
54.2479 97.4793 0
55.8276 20.3183 0
55.6722 23.8183 72.3605
55.2893 24.2055 59.677
55.282 29.3592 30.3545
55.6801 39.4691 93.6793
55.7305 41.4624 86.2026
55.3001 54.7592 0
55.9844 63.1814 12.4685
55.3854 69.5411 96.961
55.8102 70.3019 40.9798
55.0857 73.5213 9.61169
55.7742 74.5439 59.067
55.6182 83.2134 75.9069
55.1907 96.7974 56.5329
56.1277 23.5985 77.3258
56.3965 32.2079 84.2303
56.1243 47.2215 38.9098
56.7945 47.321 91.6333
56.4841 58.7454 7.50516
56.989 71.4064 76.4834
56.3288 80.8397 39.1562
56.852 80.6835 58.0165
56.9081 83.8329 7.28767
56.275 86.4358 0
56.5732 86.4493 27.4358
57.1473 5.63033 74.3564
57.0061 7.04161 10.6205
57.0905 14.2496 0
57.9415 35.9233 0
57.6516 49.8091 28.1315
57.3294 91.4412 83.9726
57.2292 96.362 98.0528
58.4671 4.15729 0
58.7068 22.4605 4.25182
58.3392 22.7351 40.6843
58.8554 41.7581 98.2507
58.8058 43.8615 0
58.0112 45.474 0
58.217 47.3574 35.2424
58.7884 61.7145 0
58.5776 63.6404 94.0828
58.3042 64.2926 42.721
58.8413 77.3473 0
59.3883 5.18235 37.5538
59.0231 10.3094 36.7364
59.8327 12.5186 0
59.8714 13.0874 0
59.7278 18.4521 98.6394
59.3279 24.7103 0
59.8865 28.9751 69.7837
59.5385 30.9937 7.64057
59.5639 47.3166 47.686
59.2918 51.4817 0
59.8658 59.685 16.4458
59.1275 60.7894 40.5013
59.79 72.7272 92.2655
59.0264 79.7559 0
59.7476 81.7298 0
59.7724 90.0702 0
59.4777 93.6212 0
60.596 7.40446 92.7038
60.1855 17.9683 0
60.3958 39.7287 50.7265
60.6102 41.1841 79.6347
60.0798 46.7402 90.4687
60.9997 49.5177 83.4863
60.7034 54.2696 28.3239
60.7555 57.0778 25.191
60.6429 58.0687 1.91051
60.7306 68.5565 0
60.7545 68.0308 17.8819
60.5538 73.6402 0
60.7737 83.0643 51.7562
60.6189 87.3423 0
61.7264 1.45447 98.0658
61.6605 5.19713 0
61.8386 19.9674 38.8637
61.5742 21.9214 0
61.6927 32.6434 98.1374
61.1653 52.4756 1.69956
61.2944 54.1296 0
61.0405 56.6405 94.9814
61.1721 73.0039 42.5404
61.8255 75.9955 37.5225
61.2258 81.4825 0
61.8218 86.6869 11.0111
61.3415 91.9177 42.4061
61.585 94.9146 63.8743
61.3411 98.9185 17.5364
62.9399 21.6809 69.8791
62.2937 22.3818 75.0393
62.8765 34.5935 0
62.4149 34.5192 41.5318
62.594 38.6103 82.2223
62.3298 44.9451 33.7589
62.0073 49.5424 53.8126
62.2087 52.3602 86.374
62.7505 58.0757 87.494
62.79 68.7785 9.09414
62.7558 69.6925 58.8471
62.5305 80.1728 0
62.4354 80.812 30.2677
63.1837 8.32844 45.3961
63.3241 8.55085 73.8546
63.3404 10.5494 87.2746
63.743 13.8353 72.883
63.2622 17.9497 93.2708
63.2541 23.7543 0
63.6333 26.5202 25.7957
63.7557 27.4722 88.8341
63.353 39.8824 54.0417
63.6644 39.2244 55.9267
63.9361 70.408 80.6994
63.8949 80.6561 76.1445
63.7232 84.9196 98.0771
64.5173 9.61765 18.2623
64.0003 12.211 0
64.7574 13.0086 59.8452
64.0875 18.0067 19.0061
64.6665 22.1209 69.6243
64.9774 39.8505 5.75783
64.769 42.7108 1.05152
64.6848 46.3698 39.4386
65.4511 13.1335 28.0527
65.0294 15.9545 0
65.3263 22.8455 0
65.5009 27.6828 0
65.2123 39.1082 0
65.142 49.7465 83.1444
65.7111 55.4354 44.1316
65.1519 58.1971 0
65.0167 59.627 37.105
65.6984 69.4982 0
65.8783 72.4103 69.5354
66.9917 3.94268 5.37238
66.8085 14.1082 21.2934
66.5037 49.4274 18.3618
66.8924 49.2518 86.5526
66.2621 59.2951 0
66.5197 63.3759 52.7835
66.2112 67.8016 54.8341
66.5922 72.9606 59.5385
66.2522 75.5361 31.8594
66.939 82.8883 0
66.082 89.4817 0
66.3502 97.3664 1.5011
67.2136 8.08533 76.4003
67.0386 10.4568 0
67.9647 12.4438 22.6071
67.1701 75.6999 62.1947
67.9845 75.0871 74.251
68.5968 0.493998 0
68.3295 0.102948 45.1444
68.1614 2.32719 34.7218
68.8208 14.8343 0
68.0705 14.4895 53.5625
68.3964 16.2934 61.9693
68.4731 27.0958 17.0991
68.0457 39.2494 0
68.803 76.1511 83.8594
68.4572 80.9874 9.69894
68.2982 81.6599 45.7429
68.3259 89.448 8.53695
69.1222 27.2307 68.6352
69.0395 32.1583 4.8919
69.6501 34.5667 41.7545
69.6737 34.8337 63.2653
69.6289 53.0265 34.6476
69.3948 56.5508 54.7297
69.5974 68.85 41.4863
69.5714 72.342 5.82957
69.742 73.1024 30.4376
69.6651 79.0085 92.3274
69.3194 80.0587 0
69.1714 81.2901 53.9003
69.5516 90.7566 14.7938
69.7471 93.009 68.3339
69.7642 94.9521 79.8507
70.8181 8.35007 48.685
70.6242 14.6605 9.05353
70.0969 22.2576 8.20354
70.5084 42.4222 25.6237
70.5575 58.8264 92.5996
70.723 61.062 77.0102
70.8073 65.0889 3.03787
70.4926 68.8402 60.2303
70.2484 70.8911 36.5896
70.5386 80.567 0
70.3946 89.2672 91.1518
71.4596 18.2866 66.3595
71.6179 25.1799 60.3039
71.2271 30.0878 15.6606
71.4924 36.8526 0
71.335 68.7166 89.6255
71.9046 72.1533 30.415
71.5972 86.6994 66.2335
72.4827 6.03521 0
72.0203 20.6421 11.5513
72.4423 22.9955 0
72.1888 29.1663 0
72.6397 34.8255 55.1972
72.8189 41.2794 50.0536
72.4285 48.0507 0
72.2896 66.8643 82.2653
72.2253 77.1882 72.2836
72.9007 79.0176 77.3558
72.8216 80.314 37.4105
73.535 37.1039 0
73.5071 41.7946 80.5446
73.2572 48.3755 22.2791
73.7856 62.5891 52.4966
73.7582 73.2272 24.6389
73.391 87.863 52.6048
73.7501 91.8455 45.7696
73.127 94.3616 91.0429
74.7471 6.23414 4.63164
74.4043 7.84564 25.8352
74.9162 10.493 0
74.4279 18.2118 0
74.5837 21.3105 0
74.9578 38.0891 39.906
74.6045 68.1039 58.7535
74.1121 72.1597 57.8728
74.1461 89.3893 57.7419
74.3353 99.1169 7.43365
75.3699 10.251 79.0919
75.2717 18.9222 16.7019
75.0502 20.1627 80.1542
75.4543 23.8236 11.2093
75.2403 31.1722 70.9911
75.3378 35.0218 38.2497
75.8263 38.3612 3.4341
75.8239 49.1186 69.906
75.5137 78.4668 62.4106
75.7081 84.9647 38.4072
75.7059 86.0122 0
76.7188 8.85434 40.7912
76.8273 9.16993 42.3589
76.5356 15.524 11.1952
76.8987 72.6121 94.5318
76.3606 77.9759 14.8712
76.7724 98.765 0
77.5805 0.977085 0
77.0984 6.73506 71.1486
77.0854 6.78371 94.7825
77.9845 12.8449 11.5911
77.0986 24.5349 7.75672
77.7147 37.7988 56.282
77.5133 44.9754 94.0104
77.0912 47.4237 11.5532
77.0911 51.8918 42.7816
77.3835 55.2047 36.913
77.6413 58.0544 34.7396
77.2823 68.0499 23.7753
77.6 71.5825 0
77.9585 82.6206 35.6624
77.2318 83.1371 52.4962
78.779 0.463202 60.7684
78.6345 25.8983 9.85169
78.3423 33.945 0
78.3833 45.2318 0
78.9171 64.8823 50.3458
78.179 84.417 0
78.5341 89.8554 67.2298
78.8597 99.7693 16.0158
79.9416 0.233939 69.775
79.5793 5.07685 89.1105
79.8783 7.00297 99.7955
79.6798 13.1245 0
79.8295 19.4274 65.3464
79.2956 42.1721 0
79.5342 47.4214 74.7614
79.7295 53.9861 15.8418
79.0723 66.1655 32.5565
79.1579 78.1296 79.1722
79.7426 86.8161 66.1867
79.0014 95.0237 69.3655
80.2109 1.21545 97.8122
80.077 5.78427 63.348
80.6201 8.4517 75.0777
80.744 12.2088 89.713
80.9501 22.6496 35.5179
80.9361 41.9781 81.2012
80.6913 47.3472 35.2841
80.3977 53.9491 54.3017
80.0949 57.5474 68.0397
81.6432 9.02898 80.0362
81.28 23.6685 94.7776
81.4469 26.0695 28.9036
81.8015 35.2569 86.2123
81.5833 46.3381 23.2196
81.7444 62.4761 34.8399
81.8786 77.0407 25.9984
81.7222 98.2168 55.9649
82.4514 7.85785 0
82.1441 20.015 0
82.4681 57.1319 35.4331
82.8915 64.4547 4.66376
82.279 64.921 74.677
82.5921 69.3682 30.5391
82.7869 76.9994 27.8827
82.2537 94.0532 95.0302
83.8481 8.41068 43.1831
83.771 13.7521 67.8933
83.5303 15.0718 32.7572
83.7826 64.9647 23.8264
83.5998 73.3113 0
83.2443 93.8553 22.0216
84.153 5.14258 84.7944
84.0122 34.1872 39.823
84.6245 42.5493 0
84.6452 45.7 13.6214
84.0452 46.2623 0
84.2091 49.2116 77.1229
84.4441 51.1677 75.212
84.867 69.7016 14.5255
84.4213 69.603 93.0717
84.9223 72.094 66.1037
84.8914 76.0785 72.4512
84.6661 89.711 85.7761
85.3009 7.53463 30.1504
85.0817 18.6567 9.70088
85.8413 23.8597 43.4704
85.1137 26.8475 32.3753
85.2822 29.6308 71.8398
85.649 53.9377 66.2107
85.7986 65.6737 0
85.5696 80.685 83.1918
85.0727 83.0619 74.8515
85.5461 97.9511 70.6621
86.0405 3.05003 25.7749
86.2128 3.54224 81.1421
86.2043 5.48826 84.6104
86.7294 16.04 71.1279
86.3139 37.0642 88.1556
86.7215 44.7412 36.0605
86.6064 55.1588 5.47665
86.8123 65.1667 0
86.4216 86.8271 0
86.7117 93.0757 56.6248
86.8054 95.0864 96.3604
87.4702 18.5473 53.3648
87.6665 23.2959 42.3331
87.7373 32.2551 74.3361
87.1843 46.547 3.89548
87.7201 58.8307 39.8521
87.2124 59.2963 93.2797
87.7339 69.5784 26.5362
87.389 73.2185 60.1439
87.2946 75.8392 73.4903
87.1833 78.9698 0
87.9072 82.5817 1.50937
87.9118 88.4199 94.5285
88.668 4.5304 26.8285
88.371 7.34967 0
88.6617 33.7995 3.73406
88.2533 35.0627 0
88.7086 40.4508 78.2077
88.5978 42.6817 61.9705
88.328 53.9342 33.1102
88.777 64.2032 85.2419
88.1637 88.0871 96.1702
89.6221 3.15861 0
89.6336 8.6925 2.28719
89.5523 9.99849 39.531
89.0527 34.2927 59.7657
89.0264 39.4522 46.11
89.661 39.7856 58.0238
89.9667 46.268 62.786
89.4921 58.0086 86.1525
89.5764 63.641 48.0617
89.743 64.3999 53.1313
89.6788 87.4318 47.9222
89.2047 90.6099 63.4827
90.7819 3.96188 0
90.6354 33.0253 12.0086
90.7866 35.883 32.3035
90.8266 63.4351 24.7166
90.5382 84.7143 10.0374
90.0418 88.2636 63.677
90.7694 98.6001 59.597
91.9116 7.37966 26.046
91.3241 8.15942 51.6229
91.0471 39.6543 30.498
91.3166 55.5432 58.9298
91.1852 58.623 14.7725
91.496 86.3103 85.1538
91.1836 92.0848 0
91.9856 92.296 35.2883
91.7314 96.2099 14.545
92.0842 33.2146 87.1197
92.0872 37.7286 7.04672
92.4042 48.4523 24.3755
92.9376 71.8457 56.1195
92.5569 91.0686 45.6331
93.7228 17.3753 69.1007
93.834 20.5002 18.9421
93.4614 27.9934 64.1888
93.3436 50.3136 50.6029
93.2938 73.0867 99.102
93.5202 87.0969 0
93.6648 87.7472 4.87945
94.4252 2.65113 86.8527
94.1237 32.6461 0
94.0459 46.9944 95.4389
94.7283 61.495 16.1818
94.0523 69.0938 40.3596
94.8583 70.6777 0
94.735 71.4087 0
94.8886 94.2202 96.5976
95.4051 27.4732 61.0113
95.4865 51.6696 74.0518
95.155 63.643 0
95.0062 67.677 95.1101
95.8627 73.8034 19.2527
95.2649 77.9851 0
95.9075 90.8451 34.9099
95.3072 92.8319 33.7443
95.4087 93.683 14.3651
95.6416 94.9961 80.0009
95.8702 95.0412 6.72853
96.9103 21.6324 88.4948
96.2122 22.0183 11.8374
96.7699 27.2145 1.52013
96.7581 28.2035 55.2492
96.1172 32.533 84.6088
96.452 39.7594 76.2493
96.2649 39.7184 94.4966
96.5027 40.8518 13.3054
96.8878 44.5958 75.2155
96.107 45.8989 15.7176
96.9879 55.6005 5.27283
96.7511 61.665 0
96.1191 65.1485 90.6297
96.0781 72.7169 0
96.9914 82.9164 84.3698
96.5419 89.7216 56.2711
96.947 91.7396 86.6852
97.8931 15.6153 84.1391
97.4395 25.995 98.6349
97.3756 36.6362 24.0444
97.8893 39.3098 49.1875
97.1058 42.1763 94.4824
97.7466 56.7541 0
97.47 60.0021 0
97.3098 86.7918 0
98.7722 4.51007 43.3495
98.6693 5.70869 0
98.7668 5.15958 94.4619
98.4841 16.552 84.0509
98.996 20.173 32.913
98.6887 42.3401 77.4522
98.4351 45.522 0
98.664 58.1305 38.0528
98.8729 72.2267 60.7165
98.2379 99.7256 12.0919
99.0341 2.12694 1.02351
99.6336 15.3896 89.8462
99.9354 18.0575 56.0249
99.0054 35.8647 14.8683
99.4908 52.5032 18.2156
99.5931 54.9529 6.53124
99.2133 59.235 0
99.0505 73.1648 41.8492
99.9718 74.9911 99.667
99.1475 85.1207 7.09019
99.7124 94.4304 43.192
99.0148 97.3489 67.9292
