# .PCD v.7 - Point Cloud Data file format
VERSION .7
FIELDS x y z
SIZE 4 4 4
TYPE F F F
COUNT 1 1 1
WIDTH 359
HEIGHT 1
VIEWPOINT 0 0 0 1 0 0 0
POINTS 359
DATA ascii
-0.101735 0.0189035 -0.060026
-0.0728504 0.0175657 -0.060026
-0.0634488 0.0190701 -0.060026
-0.0312926 0.0175174 -0.060026
-0.0136954 0.018566 -0.060026
0.0179328 0.0179272 -0.060026
0.0253891 0.019703 -0.060026
0.040749 0.0178577 -0.060026
0.0535376 0.0184115 -0.060026
-0.111641 0.0223816 -0.060026
-0.106881 0.0254206 -0.060026
-0.0966299 0.0229985 -0.060026
-0.0836681 0.0269909 -0.060026
-0.0761107 0.0234044 -0.060026
-0.062438 0.0298993 -0.060026
-0.0532206 0.0227549 -0.060026
-0.0445207 0.0241433 -0.060026
-0.0343731 0.0256639 -0.060026
-0.0235088 0.0236463 -0.060026
-0.0139359 0.0229793 -0.060026
-0.0063807 0.0280577 -0.060026
0.00297695 0.0250084 -0.060026
0.0109609 0.0255774 -0.060026
0.0225125 0.0221336 -0.060026
0.0306976 0.0290828 -0.060026
0.0441633 0.0281098 -0.060026
0.0571755 0.0251452 -0.060026
0.0672661 0.0249861 -0.060026
-0.104799 0.0337463 -0.060026
-0.0946972 0.034457 -0.060026
-0.0848261 0.0372002 -0.060026
-0.0749519 0.0351097 -0.060026
-0.0665807 0.0329509 -0.060026
-0.0583704 0.0333388 -0.060026
-0.0483731 0.0370303 -0.060026
-0.0320285 0.0343171 -0.060026
-0.0269768 0.0351958 -0.060026
-0.0160485 0.0362767 -0.060026
-0.00556343 0.0331782 -0.060026
0.00517028 0.0342943 -0.060026
0.0129511 0.0328835 -0.060026
0.028564 0.0369225 -0.060026
0.0349081 0.0392663 -0.060026
0.043131 0.0330194 -0.060026
0.0556964 0.033217 -0.060026
0.0638425 0.0336341 -0.060026
0.0729783 0.032041 -0.060026
-0.112202 0.0459192 -0.060026
-0.107029 0.0458896 -0.060026
-0.0847302 0.0454741 -0.060026
-0.0633028 0.045652 -0.060026
-0.055718 0.0451241 -0.060026
-0.0442545 0.0443029 -0.060026
-0.0338835 0.0418846 -0.060026
-0.0252727 0.0434103 -0.060026
-0.0151112 0.0484499 -0.060026
-0.000502519 0.0434459 -0.060026
0.00444451 0.0446022 -0.060026
0.0129374 0.0426367 -0.060026
0.023405 0.04336 -0.060026
0.0300156 0.0441964 -0.060026
0.0437606 0.0447382 -0.060026
0.0550995 0.0467874 -0.060026
0.0658432 0.045022 -0.060026
0.0765863 0.0452759 -0.060026
-0.111404 0.0572083 -0.060026
-0.105234 0.0547353 -0.060026
-0.0936048 0.0569426 -0.060026
-0.0821526 0.0522926 -0.060026
-0.073636 0.0548149 -0.060026
-0.0657086 0.0546098 -0.060026
-0.0524137 0.0560627 -0.060026
-0.0450054 0.0537008 -0.060026
-0.0355188 0.0539397 -0.060026
-0.0267577 0.0557799 -0.060026
-0.0134238 0.0581415 -0.060026
-0.00105169 0.0599528 -0.060026
0.00704493 0.056372 -0.060026
0.0143013 0.0542743 -0.060026
0.0242818 0.0532058 -0.060026
0.03361 0.0555973 -0.060026
0.0430363 0.0540871 -0.060026
0.0644391 0.0559291 -0.060026
0.0755339 0.052942 -0.060026
-0.106669 0.0659315 -0.060026
-0.0946441 0.0636905 -0.060026
-0.0874775 0.0650092 -0.060026
-0.0738861 0.065497 -0.060026
-0.065239 0.0623957 -0.060026
-0.044835 0.064889 -0.060026
-0.031851 0.0639513 -0.060026
-0.0201828 0.0615927 -0.060026
-0.013423 0.066951 -0.060026
-0.00356673 0.0653552 -0.060026
0.00515641 0.0661523 -0.060026
0.0185093 0.0653109 -0.060026
0.034122 0.0651782 -0.060026
0.0433754 0.0636885 -0.060026
0.0514609 0.0648515 -0.060026
0.06084 0.0637713 -0.060026
0.0724646 0.0666233 -0.060026
-0.112959 0.0705359 -0.060026
-0.104963 0.076177 -0.060026
-0.0862809 0.0753081 -0.060026
-0.0771107 0.0761492 -0.060026
-0.0558281 0.0746586 -0.060026
-0.0442969 0.0764244 -0.060026
-0.037207 0.0731623 -0.060026
-0.0226886 0.0743458 -0.060026
-0.0150544 0.0750763 -0.060026
-0.00957528 0.0780985 -0.060026
0.000834398 0.0769017 -0.060026
0.0164817 0.0763169 -0.060026
0.0206894 0.0725139 -0.060026
0.0438343 0.073441 -0.060026
0.0541253 0.0769341 -0.060026
0.0644712 0.0786569 -0.060026
0.0769527 0.0792216 -0.060026
-0.111656 0.0842227 -0.060026
-0.10534 0.0852279 -0.060026
-0.0953281 0.0848683 -0.060026
-0.0841667 0.0862145 -0.060026
-0.0747605 0.0866618 -0.060026
-0.0641313 0.0824123 -0.060026
-0.0556218 0.0850348 -0.060026
-0.0441319 0.0827975 -0.060026
-0.036731 0.0883805 -0.060026
-0.0242567 0.0847393 -0.060026
-0.0186164 0.0824141 -0.060026
-0.00347208 0.0873502 -0.060026
0.00644624 0.0811069 -0.060026
0.0178461 0.0821177 -0.060026
0.0208807 0.0825868 -0.060026
0.0344164 0.0853079 -0.060026
0.0434174 0.0864512 -0.060026
0.0570347 0.0841356 -0.060026
0.063049 0.084751 -0.060026
0.0776374 0.0845156 -0.060026
-0.111741 0.0932252 -0.060026
-0.106796 0.0954532 -0.060026
-0.0954027 0.0970112 -0.060026
-0.0845448 0.0923082 -0.060026
-0.0755965 0.0961203 -0.060026
-0.0655549 0.0962252 -0.060026
-0.0552474 0.096839 -0.060026
-0.0436435 0.092687 -0.060026
-0.0353905 0.0949012 -0.060026
-0.0230173 0.0908412 -0.060026
-0.0130486 0.0941972 -0.060026
-0.006524 0.0944728 -0.060026
0.00748323 0.0939184 -0.060026
0.0166611 0.0927718 -0.060026
0.0248134 0.0937187 -0.060026
0.0343314 0.0950225 -0.060026
0.046025 0.095031 -0.060026
0.0580206 0.0921613 -0.060026
0.0649621 0.0919869 -0.060026
0.0740206 0.0942564 -0.060026
-0.102699 0.103336 -0.060026
-0.0977806 0.10753 -0.060026
-0.0845244 0.103693 -0.060026
-0.0742435 0.105017 -0.060026
-0.0661364 0.109242 -0.060026
-0.0526136 0.108206 -0.060026
-0.04534 0.105303 -0.060026
-0.0342339 0.108238 -0.060026
-0.0292247 0.10542 -0.060026
-0.0161145 0.104154 -0.060026
-0.00468891 0.10817 -0.060026
0.0042339 0.104599 -0.060026
0.0173452 0.1056 -0.060026
0.0278147 0.107921 -0.060026
0.0349605 0.105845 -0.060026
0.0443941 0.104902 -0.060026
0.0569237 0.104188 -0.060026
0.0680407 0.105337 -0.060026
0.0729758 0.104397 -0.060026
-0.108747 0.115852 -0.060026
-0.0965671 0.115342 -0.060026
-0.0859008 0.116747 -0.060026
-0.0747221 0.116332 -0.060026
-0.0642318 0.117464 -0.060026
-0.055734 0.115702 -0.060026
-0.0445945 0.116294 -0.060026
-0.0373484 0.114281 -0.060026
-0.025363 0.114963 -0.060026
-0.0150824 0.114054 -0.060026
-0.00410635 0.114642 -0.060026
0.00644464 0.114819 -0.060026
0.0138658 0.112565 -0.060026
0.0258565 0.110809 -0.060026
0.0428908 0.117863 -0.060026
0.0545872 0.118048 -0.060026
0.0628917 0.117535 -0.060026
0.0708284 0.114084 -0.060026
-0.110089 0.125834 -0.060026
-0.105185 0.120374 -0.060026
-0.0974375 0.125095 -0.060026
-0.0855663 0.123306 -0.060026
-0.0798071 0.125483 -0.060026
-0.0662608 0.127219 -0.060026
-0.0543534 0.122745 -0.060026
-0.0428196 0.123278 -0.060026
-0.0351965 0.123786 -0.060026
-0.024843 0.12579 -0.060026
-0.0136985 0.12527 -0.060026
-0.00490925 0.1249 -0.060026
0.00464451 0.126998 -0.060026
0.0139201 0.126765 -0.060026
0.0246902 0.1258 -0.060026
0.0321897 0.126529 -0.060026
0.0446163 0.125047 -0.060026
0.0564022 0.124091 -0.060026
0.0661636 0.122534 -0.060026
0.0750617 0.123983 -0.060026
-0.112232 0.133125 -0.060026
-0.0929934 0.132311 -0.060026
-0.0853592 0.132813 -0.060026
-0.0776752 0.135237 -0.060026
-0.0677662 0.134542 -0.060026
-0.0576123 0.13228 -0.060026
-0.0456802 0.135226 -0.060026
-0.0256951 0.134655 -0.060026
-0.0167862 0.136496 -0.060026
-0.000854943 0.137088 -0.060026
0.0022597 0.13514 -0.060026
0.0129123 0.133532 -0.060026
0.0239358 0.136244 -0.060026
0.0373543 0.134231 -0.060026
0.0438843 0.132244 -0.060026
0.0538405 0.131822 -0.060026
0.0663417 0.134326 -0.060026
0.0738754 0.13643 -0.060026
-0.100163 0.140093 -0.060026
-0.0913951 0.148387 -0.060026
-0.0853475 0.14616 -0.060026
-0.0758503 0.147425 -0.060026
-0.0646825 0.145894 -0.060026
-0.0535663 0.145424 -0.060026
-0.0456669 0.148754 -0.060026
-0.0339615 0.14668 -0.060026
-0.0287685 0.145245 -0.060026
-0.016795 0.148417 -0.060026
-0.00543464 0.146157 -0.060026
0.00593576 0.14539 -0.060026
0.0135192 0.145376 -0.060026
0.0245577 0.144184 -0.060026
0.0304217 0.144829 -0.060026
0.0495454 0.144936 -0.060026
0.0555186 0.146231 -0.060026
0.069916 0.14532 -0.060026
-0.110581 0.15186 -0.060026
-0.103192 0.156348 -0.060026
-0.0973921 0.155093 -0.060026
-0.0827301 0.155419 -0.060026
-0.0638793 0.154606 -0.060026
-0.0513061 0.150425 -0.060026
-0.045127 0.156134 -0.060026
-0.0387289 0.157229 -0.060026
-0.0277255 0.153772 -0.060026
-0.0137012 0.153766 -0.060026
-0.00629258 0.151205 -0.060026
0.00408595 0.155762 -0.060026
0.0134366 0.157765 -0.060026
0.0248744 0.15134 -0.060026
0.0351127 0.154075 -0.060026
0.046702 0.154566 -0.060026
0.0537542 0.155096 -0.060026
0.0650717 0.15557 -0.060026
0.0769906 0.154834 -0.060026
-0.109233 0.161201 -0.060026
-0.0940811 0.165734 -0.060026
-0.0848494 0.163754 -0.060026
-0.0741222 0.16702 -0.060026
-0.0658554 0.163075 -0.060026
-0.0587721 0.168181 -0.060026
-0.0421239 0.164255 -0.060026
-0.0359031 0.164268 -0.060026
-0.0252661 0.16918 -0.060026
-0.0174573 0.166169 -0.060026
-0.00564759 0.160603 -0.060026
0.00349446 0.161356 -0.060026
0.0251305 0.165214 -0.060026
0.0350778 0.163699 -0.060026
0.045185 0.164213 -0.060026
0.0536669 0.166959 -0.060026
0.0688954 0.166843 -0.060026
0.0724456 0.167479 -0.060026
-0.110379 0.171309 -0.060026
-0.105965 0.176576 -0.060026
-0.0940477 0.175059 -0.060026
-0.0851094 0.173863 -0.060026
-0.073712 0.176088 -0.060026
-0.0620565 0.174821 -0.060026
-0.0552141 0.174696 -0.060026
-0.0455183 0.176878 -0.060026
-0.0371816 0.174451 -0.060026
-0.0260703 0.176217 -0.060026
-0.0149767 0.17371 -0.060026
-0.00915655 0.174956 -0.060026
0.00242834 0.177611 -0.060026
0.0128698 0.173799 -0.060026
0.0261532 0.176964 -0.060026
0.03446 0.173476 -0.060026
0.056511 0.174923 -0.060026
0.0652751 0.175113 -0.060026
0.0737085 0.173767 -0.060026
-0.1065 0.186823 -0.060026
-0.0918879 0.186874 -0.060026
-0.0824706 0.186262 -0.060026
-0.0762404 0.183981 -0.060026
-0.0656223 0.183514 -0.060026
-0.0524043 0.187069 -0.060026
-0.0430037 0.185567 -0.060026
-0.026391 0.188177 -0.060026
-0.0124709 0.186581 -0.060026
-0.00458473 0.1893 -0.060026
0.00685523 0.18634 -0.060026
0.0287685 0.189245 -0.060026
0.0381242 0.18435 -0.060026
0.0450919 0.184276 -0.060026
0.0588216 0.18433 -0.060026
0.0648881 0.184339 -0.060026
0.0769222 0.18889 -0.060026
-0.111394 0.196232 -0.060026
-0.10218 0.193993 -0.060026
-0.0951236 0.194846 -0.060026
-0.0839789 0.193467 -0.060026
-0.0770521 0.19832 -0.060026
-0.0696656 0.193809 -0.060026
-0.0563768 0.197594 -0.060026
-0.0435789 0.194145 -0.060026
-0.037083 0.1941 -0.060026
-0.0159955 0.195403 -0.060026
-0.00574136 0.196762 -0.060026
0.00585919 0.192944 -0.060026
0.0136693 0.196258 -0.060026
0.0206148 0.194932 -0.060026
0.0316465 0.194434 -0.060026
0.0449546 0.196432 -0.060026
0.0592111 0.190779 -0.060026
0.0667188 0.195231 -0.060026
0.0748894 0.198801 -0.060026
-0.111355 0.200605 -0.060026
-0.105913 0.202149 -0.060026
-0.078885 0.202817 -0.060026
-0.0670119 0.203095 -0.060026
-0.0588214 0.204077 -0.060026
-0.0259843 0.20372 -0.060026
-0.0170268 0.201563 -0.060026
-0.00893626 0.201103 -0.060026
0.00621293 0.200762 -0.060026
0.0122165 0.203463 -0.060026
0.0274848 0.202803 -0.060026
0.0386556 0.204068 -0.060026
0.0441945 0.201164 -0.060026
0.0515936 0.200667 -0.060026
0.0750286 0.201776 -0.060026
-0.06925 0.182 -0.055026
