# .PCD v.7 - Point Cloud Data file format
VERSION .7
FIELDS x y z
SIZE 4 4 4
TYPE F F F
COUNT 1 1 1
WIDTH 293
HEIGHT 1
VIEWPOINT 0 0 0 1 0 0 0
POINTS 293
DATA ascii
-0.0674635 0.178925 -0.0533165
-0.074958 0.17564 -0.044892
-0.066117 0.17353 -0.047453
-0.078211 0.169 -0.034566
-0.066 0.16808 -0.030916
-0.0748963 0.17186 -0.036388
-0.0759193 0.16419 -0.0239873
-0.065921 0.16586 -0.025022
-0.0091029 0.16988 -0.021457
-0.011633 0.17699 -0.023349
-0.013986 0.184 -0.023739
-0.077179 0.15851 -0.01495
-0.0739767 0.162123 -0.015611
-0.0660235 0.161695 -0.0156795
-0.021158 0.16849 -0.012383
-0.0137715 0.16403 -0.013258
-0.0251547 0.17333 -0.0116473
-0.015198 0.17471 -0.018868
-0.020399 0.1845 -0.014943
-0.016625 0.18375 -0.019735
-0.071284 0.15839 -0.005998
-0.066429 0.15783 -0.0085673
-0.0325195 0.15449 -0.000988745
-0.0226 0.15912 -0.003799
-0.0449845 0.167805 -0.000450745
-0.0344235 0.16399 -0.00250091
-0.022876 0.16406 -0.0078103
-0.0159605 0.16167 -0.00895545
-0.035303 0.174595 -0.00373645
-0.025736 0.17948 -0.0089653
-0.026406 0.182635 -0.00953155
-0.070929 0.03983 0.0085888
-0.06497 0.0455145 0.0078823
-0.0564697 0.0529677 0.0071486
-0.0825 0.074674 0.0071175
0.045917 0.086298 0.0094211
0.044375 0.096797 0.0086445
-0.0454705 0.14787 0.0070393
-0.054556 0.15814 0.0076754
-0.041892 0.15669 0.0054879
-0.03457 0.154205 0.00120385
-0.0455875 0.16528 0.0036255
-0.03625 0.16935 0.00051958
-0.037 0.17198 0.000199385
-0.068359 0.038502 0.011958
-0.0653707 0.0424843 0.0115613
-0.054844 0.049295 0.011462
0.053068 0.0471315 0.019177
-0.06145 0.059165 0.018731
-0.054145 0.054568 0.012257
0.059562 0.057747 0.01834
-0.072702 0.065008 0.018701
-0.0675 0.061479 0.019221
0.059333 0.067891 0.017361
-0.082879 0.076109 0.017794
-0.079222 0.070654 0.017735
0.047611 0.072606 0.018572
0.055118 0.072639 0.017944
-0.087777 0.0861265 0.018777
0.045406 0.087417 0.015604
-0.089333 0.098483 0.01761
0.043875 0.096228 0.015269
-0.0870325 0.10638 0.0179495
0.039545 0.1061 0.017655
0.042313 0.10009 0.017237
-0.093094 0.11635 0.018959
0.03575 0.1123 0.019109
-0.041733 0.12796 0.01665
-0.031583 0.1259 0.017804
-0.022926 0.1263 0.018077
-0.013821 0.12886 0.019265
0.016484 0.12828 0.01928
0.02675 0.12234 0.017605
-0.090929 0.13667 0.019817
-0.04775 0.135745 0.017279
0.0042768 0.131185 0.017755
-0.091583 0.14522 0.01986
-0.050598 0.1474 0.013881
-0.0885 0.15223 0.019215
-0.0545815 0.15509 0.010799
0.03019 0.039321 0.026847
0.035689 0.042374 0.0275583
0.04828 0.04737 0.025845
-0.053375 0.0548195 0.027761
0.053951 0.054694 0.025361
-0.071037 0.066787 0.025228
-0.06356 0.061816 0.0232127
-0.0555 0.062391 0.029498
0.0438257 0.0647577 0.0280957
0.056079 0.066335 0.024122
-0.081048 0.077169 0.025829
-0.0772875 0.071921 0.024881
0.0437575 0.0766605 0.026087
0.05375 0.072221 0.020429
-0.0863625 0.0879595 0.0247925
0.0431845 0.0868515 0.0262475
-0.086646 0.0967675 0.0253975
0.0422995 0.09558 0.0245915
-0.085536 0.10441 0.023405
0.036998 0.10668 0.026781
0.02886 0.11773 0.027037
0.033506 0.11212 0.02733
-0.093551 0.12394 0.024805
-0.0451308 0.123208 0.0274235
-0.0320785 0.12194 0.025761
-0.0231085 0.122575 0.0266535
-0.011971 0.12723 0.026219
-0.0016659 0.12879 0.026782
0.0080861 0.12866 0.02619
0.01808 0.12536 0.026132
0.0236475 0.12215 0.026963
-0.090681 0.13748 0.02369
-0.05139 0.13694 0.025787
-0.046625 0.13234 0.021909
-0.089601 0.14725 0.025869
-0.054144 0.14714 0.026275
-0.084827 0.15233 0.025476
-0.07211 0.1555 0.027645
-0.062543 0.15524 0.027405
-0.055517 0.15313 0.026915
-0.0663615 0.0384665 0.0356885
0.022389 0.03886 0.038795
-0.062116 0.045145 0.037802
-0.050975 0.049435 0.036965
-0.041741 0.04959 0.03929
0.0255493 0.04507 0.036639
0.037973 0.048347 0.031456
0.044921 0.049904 0.031243
-0.0459815 0.0562185 0.036685
-0.032862 0.053397 0.0381595
-0.026131 0.056531 0.038882
0.0343165 0.055711 0.0358015
0.046657 0.057153 0.031337
-0.065588 0.0691075 0.034082
-0.051959 0.066869 0.036733
-0.045716 0.064541 0.039166
-0.030035 0.06613 0.038942
-0.026437 0.064141 0.039321
0.034957 0.065876 0.0380125
-0.075599 0.0778935 0.034445
-0.064577 0.073455 0.03897
0.037861 0.076625 0.035658
-0.080031 0.087076 0.03429
-0.07516 0.08604 0.038816
0.038036 0.086663 0.035459
-0.080203 0.096758 0.033592
-0.074634 0.097746 0.038347
0.034036 0.097962 0.036674
-0.0753875 0.10552 0.034912
-0.062091 0.10877 0.038274
-0.051698 0.10906 0.038258
-0.041152 0.10853 0.037969
-0.032379 0.10878 0.037952
0.019433 0.1096 0.039063
0.028343 0.1072 0.036339
0.034642 0.10473 0.031831
-0.091727 0.11657 0.039619
-0.060075 0.11512 0.037685
-0.052037 0.1168 0.034582
-0.041672 0.11564 0.032998
-0.031921 0.11566 0.032851
-0.0229645 0.113405 0.037169
-0.01232 0.11816 0.037427
-0.0020063 0.11937 0.038104
0.0086687 0.11758 0.037538
0.0145355 0.11366 0.0375705
0.026422 0.11499 0.032623
-0.091812 0.12767 0.038703
-0.055817 0.12805 0.03698
-0.014723 0.12307 0.031646
-0.0018689 0.12456 0.033184
0.0079813 0.12438 0.032798
0.015982 0.12307 0.031279
-0.089 0.13828 0.037774
-0.060526 0.1368 0.035999
-0.054705 0.13555 0.032127
-0.0852215 0.14636 0.034867
-0.061482 0.14698 0.036168
-0.056129 0.14616 0.03085
-0.0740207 0.152047 0.0347657
-0.062417 0.15317 0.033161
-0.0565 0.15248 0.030132
-0.060765 0.039087 0.044363
-0.051857 0.039252 0.046212
-0.041928 0.039327 0.043582
-0.035276 0.039753 0.047529
-0.0055078 0.039593 0.048377
0.008125 0.039516 0.045374
0.017688 0.039719 0.043084
-0.0556965 0.0444735 0.04318
-0.042016 0.044823 0.041594
-0.031911 0.046848 0.045187
-0.021998 0.049847 0.046725
-0.011653 0.04686 0.048661
-0.0020294 0.044874 0.047587
0.008841 0.045437 0.046623
0.018088 0.046655 0.043321
0.023571 0.04746 0.040428
-0.0403 0.059465 0.040446
-0.02169 0.056549 0.045164
-0.015688 0.052469 0.049615
0.0157345 0.0545955 0.048784
0.026761 0.057829 0.042588
-0.041231 0.066951 0.041392
-0.0350505 0.0642505 0.040668
-0.023548 0.066382 0.045226
0.0243575 0.0663935 0.0456265
0.03325 0.067541 0.040033
-0.06141 0.077489 0.042178
-0.051849 0.076877 0.042992
-0.045253 0.073842 0.0414605
-0.03197 0.0769 0.042177
-0.025625 0.074892 0.047102
0.025285 0.0762975 0.047311
0.03381 0.078604 0.040854
-0.070344 0.087352 0.041908
-0.065253 0.083434 0.042772
-0.051825 0.086844 0.044933
-0.041824 0.086954 0.043295
-0.031893 0.087035 0.044169
-0.026011 0.089634 0.048981
0.0243655 0.087503 0.047045
0.03392 0.086911 0.041034
-0.070058 0.096203 0.041397
-0.061784 0.096825 0.043327
-0.051919 0.096967 0.043563
-0.041875 0.096944 0.042424
-0.031858 0.097026 0.043878
-0.022521 0.097723 0.045194
0.0086436 0.099323 0.048079
0.018511 0.097194 0.047253
0.02742 0.096386 0.043312
0.0336 0.092627 0.040463
-0.072672 0.10976 0.044294
-0.061339 0.10393 0.041164
-0.052154 0.10404 0.040972
-0.043262 0.10412 0.040891
-0.031027 0.10395 0.041228
-0.021462 0.10618 0.042059
-0.0121865 0.10348 0.0444675
-0.0018186 0.10381 0.0450515
0.0079536 0.10633 0.042968
0.017407 0.10535 0.043139
0.024948 0.10286 0.041418
-0.0842113 0.11512 0.0456277
-0.071301 0.11322 0.04841
-0.063094 0.11811 0.044399
-0.0139555 0.1127 0.0404965
-0.0017447 0.11425 0.041273
0.0054216 0.11349 0.040749
-0.087377 0.12615 0.046795
-0.0653795 0.128125 0.046353
-0.085401 0.13647 0.044514
-0.071112 0.13767 0.047518
-0.06551 0.13624 0.042195
-0.080421 0.14428 0.042793
-0.071925 0.14545 0.043266
-0.065971 0.14396 0.04109
-0.030331 0.039749 0.052133
-0.021919 0.039826 0.053521
-0.013851 0.039778 0.051036
-0.0255535 0.044275 0.051673
-0.01245 0.046773 0.050903
-0.0016111 0.049844 0.05172
0.0066154 0.04993 0.051259
-0.014791 0.0579815 0.0517615
-0.001875 0.056597 0.05441
0.0080973 0.056888 0.05295
0.013984 0.058886 0.050416
-0.015415 0.0673085 0.0537015
-0.0017852 0.066712 0.056503
0.0080431 0.066902 0.055006
0.015832 0.067418 0.051639
-0.02107 0.077249 0.054365
-0.011875 0.076964 0.057022
-0.0019567 0.076863 0.057803
0.008125 0.076853 0.055536
0.017644 0.076955 0.052372
-0.0242445 0.0848795 0.0525255
-0.011943 0.086771 0.057009
-0.0017931 0.086849 0.056843
0.0081167 0.08691 0.055228
0.016381 0.085894 0.051642
-0.0154955 0.0945345 0.0530335
-0.0020197 0.095698 0.053906
0.0074817 0.09473 0.052315
0.0145 0.093279 0.05088
-0.0750955 0.118605 0.0517055
-0.066091 0.11973 0.050881
-0.080515 0.12741 0.052034
-0.072399 0.12662 0.052364
-0.066325 0.12347 0.050729
-0.077042 0.134155 0.05112
